<?xml version="1.0" encoding="utf-8" ?><svg xmlns="http://www.w3.org/2000/svg" xmlns:xlink="http://www.w3.org/1999/xlink" width="61" height="74" viewBox="0 0 61 74"><path fill="#FCE1C6" d="M24.1953 26.7625C28.6179 26.4302 33.6811 26.8768 38.1583 26.7601C43.5143 26.6204 45.3558 29.7057 45.2974 34.712C45.2475 38.9984 45.4524 43.4471 45.4456 47.7955C44.1608 47.9748 42.8597 47.9555 41.5625 47.9663C35.0958 47.8346 25.1866 48.9942 20.8084 42.1878C18.5498 38.6765 20.286 28.9657 24.1953 26.7625Z"/><path d="M30.9885 32.2779C32.6842 32.2534 37.5336 31.9931 38.4701 32.9948C39.5038 34.1006 39.2078 40.9307 38.0561 42.2421C37.4923 42.8841 34.8882 42.7442 34.0625 42.7462C32.2986 42.7931 30.1447 42.596 28.351 42.4745C28.4508 41.3763 28.7954 39.9114 28.7146 38.8564C28.6335 37.797 26.6355 37.9682 25.7796 37.3402L25.7698 37.0043C26.164 36.2608 30.109 32.9311 30.9885 32.2779Z"/></svg>