<?xml version="1.0" encoding="utf-8" ?><svg xmlns="http://www.w3.org/2000/svg" xmlns:xlink="http://www.w3.org/1999/xlink" width="512" height="548" viewBox="0 0 512 548"><path fill="#7E7EB6" transform="scale(2.03019 2.03019)" d="M59.3878 26.3372C62.6381 26.1719 71.0266 25.9283 74.1952 26.5292C79.9376 27.6184 81.6481 27.6465 87.649 27.6153L100.701 27.6047C117.327 27.5989 133.983 27.5652 150.61 27.6421C152.649 27.6515 155.524 26.588 157.544 26.4036C160.857 26.1011 164.649 26.3717 167.964 26.3306C171.408 26.288 173.765 26.8627 177.086 27.4757C178.57 27.7494 181.522 27.2673 182.991 28.1348C184.37 28.9489 184.735 31.0356 185.123 32.4999L208.166 32.5088C211.807 32.506 215.95 32.3484 219.56 32.7202C222.022 32.9736 225.904 36.7813 226.014 39.4499C226.237 44.8895 226.16 50.4197 226.154 55.8955L226.134 87.954L226.136 141.783C226.137 150.582 226.179 159.429 226.15 168.229C226.138 171.705 223.889 173.392 223.899 177.226C223.923 186.039 223.913 194.823 223.943 203.639C223.955 206.91 224.181 212.455 223.769 215.523C223.429 218.056 217.293 222.466 215.619 224.598C214.639 225.792 214.282 227.356 213.346 228.577C212.415 229.792 210.964 229.518 209.668 229.41C208.427 229.308 207.165 229.426 205.934 229.493C204.168 230.728 201.033 234.652 199.239 236.344C196.053 239.35 195.196 239.222 191.08 239.202L155.943 239.175C149.718 239.175 142.634 238.95 136.451 239.621C135.576 239.716 133.994 240.92 133.232 241.455C129.936 241.72 124.805 241.568 121.401 241.565L100.349 241.55L62.652 241.561C56.216 241.562 49.6696 241.604 43.2299 241.489C41.7362 241.462 39.1113 240.451 37.4446 240.35C36.0867 240.269 34.9928 240.981 33.765 240.829C33.0505 240.74 33.1383 239.833 33.1618 239.279C33.4089 233.469 33.3101 227.618 33.3253 221.796C33.336 217.669 33.3826 213.372 33.1783 209.258C33.0332 206.336 30.966 205.33 30.9631 202.162C30.9498 187.688 30.9567 173.193 30.9588 158.721L30.9658 147.469C30.9742 145.609 31.0094 143.357 30.9605 141.432C30.8994 139.03 28.8507 138.004 28.7979 137.511C28.1598 131.545 28.445 121.04 28.4188 115.258C28.3539 100.972 28.4978 87.5955 28.3889 73.4067C28.3674 70.605 27.29 67.2831 27.2198 64.679C27.309 60.8055 26.9606 56.5557 27.1711 52.7155C27.5619 45.5881 26.1103 35.6733 28.5765 29.1067C32.9925 28.3982 32.8468 29.4684 36.8237 29.7472C37.9459 29.8259 38.7797 26.5833 40.997 26.4112C42.5881 26.2878 43.9813 27.4608 45.2081 27.5125C48.536 27.6528 52.2612 27.817 55.528 27.2216C56.8763 26.9759 57.8817 26.5855 59.3878 26.3372Z"/></svg>