<?xml version="1.0" encoding="utf-8" ?><svg xmlns="http://www.w3.org/2000/svg" xmlns:xlink="http://www.w3.org/1999/xlink" width="653" height="413" viewBox="0 0 653 413"><path fill="#FCFBFB" transform="scale(3.47186 3.47186)" d="M85.7807 32.6021C89.5002 32.5821 103.451 37.1076 106.575 39.4581C114.575 45.5807 121.071 53.9114 122.877 64.0064C123.354 66.6728 122.696 68.3418 120.635 70.0707C119.472 70.7904 115.062 75.9517 114.276 76.0955C109.645 76.9433 103.624 78.848 99.0109 80.3389C96.6698 81.0956 92.9121 80.404 90.4679 81.0888C88.6016 81.6117 88.1877 82.1795 86.3125 82.4869C85.1118 82.5411 81.3245 82.6648 80.2079 82.4428C74.5105 81.31 67.5534 79.9652 62.2263 77.8568C58.3478 76.3218 52.3798 73.6157 50.6611 69.6043C49.3636 66.5757 51.2498 62.6695 52.3971 59.8195C51.5167 58.9083 50.3084 57.9774 51.0671 56.7317C51.8944 56.1807 52.9929 56.2108 53.9931 56.1513C54.086 55.6558 54.2135 55.1675 54.3746 54.6898C55.8553 50.2918 57.7575 47.6233 61.882 45.5653C62.9633 40.8376 71.658 36.31 75.853 35.0004C77.1161 34.606 84.5781 32.705 85.7807 32.6021Z"/></svg>