<?xml version="1.0" encoding="utf-8" ?><svg xmlns="http://www.w3.org/2000/svg" xmlns:xlink="http://www.w3.org/1999/xlink" width="750" height="521" viewBox="0 0 750 521"><path fill="#E2A678" transform="scale(1.54983 1.54983)" d="M405.711 41.4144C409.775 41.0009 414.131 41.2985 418.272 41.1669C419.435 41.1299 426.172 41.1359 426.813 41.5664C434.533 46.7499 437.945 41.6408 439.28 52.8723C440.836 53.7892 446.558 59.0088 446.753 60.7086C447.532 67.513 446.736 76.3104 447.036 82.9578C447.456 92.2651 444.891 90.351 441.097 95.5815C437.404 100.673 440.695 104.221 430.692 104.835L430.476 105.014C429.606 105.739 427.727 108.211 426.828 108.309C420.17 109.04 413.116 108.476 406.409 108.524C401.418 108.559 397.783 102.909 394.138 101.936C393.031 102.873 389.778 104.743 388.375 105.342C386.514 106.135 379.96 112.473 379.235 112.522C372.56 112.972 365.82 112.614 359.109 112.728C355.349 112.787 354.755 110.575 352.296 109.42C344.336 105.682 338.797 102.671 336.798 93.4733C335.297 92.1375 331.691 89.5851 332.079 87.4496C332.794 83.5183 331.485 71.2577 332.753 68.343C335.382 62.3033 351.608 48.5418 358.472 48.9777C365.188 49.4043 374.75 48.2509 380.119 49.4952C381.853 49.6262 383.329 51.5694 384.492 52.8221C386.131 53.1624 387.952 53.1562 389.503 53.8253C390.521 54.2649 392.836 57.5734 393.975 57.0496C396.74 55.3873 400.152 51.6079 401.957 48.9848C402.788 47.7782 402.26 45.1615 403.788 43.1876C404.527 42.1759 404.658 42.0763 405.711 41.4144Z"/><path fill="#FEFEFE" transform="scale(1.54983 1.54983)" d="M405.443 44.0314C408.387 43.9308 425.53 43.3907 427.284 44.5071C427.966 45.3609 428.158 46.5287 428.439 47.6069C430.516 47.6002 433.215 47.5014 435.194 47.8588C435.35 50.1499 435.502 52.1847 435.467 54.4811C438.346 55.2792 437.899 55.7166 439.935 57.6728C440.407 58.5172 442.334 59.8147 443.185 60.442C443.352 69.148 443.266 78.0377 443.263 86.7586C443.262 89.3322 440.415 90.0722 438.515 93.0726C437.427 93.7369 436.854 93.868 435.639 94.2356C435.694 96.4931 435.595 98.7578 435.521 101.015C433.004 101.03 430.778 101.074 428.268 101.229C428.085 102.466 427.884 103.566 427.637 104.793C424.248 105.193 404.083 105.737 402.069 104.342C399.575 102.615 398.268 99.0265 395.81 97.1708C394.822 97.01 395.225 96.9729 394.279 97.3193C393.186 98.3521 393.091 99.7378 392.869 101.192C390.854 101.225 388.532 101.117 386.494 101.066L385.662 103.845C382.986 105.401 382.045 105.826 380.746 108.584C377.913 108.873 373.562 108.798 370.609 108.819C365.625 108.855 360.059 108.968 355.12 108.616C355.088 107.521 355.137 106.092 354.523 105.211C353.369 104.745 352.154 105.086 350.924 105.036C350.579 105.022 349.258 105.016 349.047 104.815C346.171 102.073 343.086 98.9375 340.257 96.191C339.261 95.2248 339.72 91.5963 339.76 90.2811C338.363 89.9145 337.17 89.506 335.811 89.0396C335.601 85.1152 335.295 72.0652 335.97 68.7407C336.269 67.2683 347.061 57.5824 348.934 55.0539C350.833 54.9843 352.506 55.1832 354.625 55.0765C354.805 53.1256 354.507 52.4102 356.138 51.3305C360.308 52.0964 379.99 50.4824 381.463 52.636C381.962 53.3652 382.071 54.4099 382.222 55.2659C384.429 55.3064 387.773 55.0644 389.142 56.9679C391.192 59.8171 393.082 59.4309 396.47 59.1974C397.553 56.6841 401.906 51.7931 404.446 50.7923C404.564 50.7462 404.682 50.7011 404.8 50.657C405.261 49.3704 405.037 46.0941 405.443 44.0314Z"/><path fill="#DDB48D" transform="scale(1.54983 1.54983)" d="M403.788 43.1876L403.951 43.1101C404.906 42.6487 405.716 41.8906 406.568 41.9141C407.366 42.7954 407.468 42.5612 408.532 41.8942C411.388 41.8758 424.508 41.5586 426.281 42.1211C425.849 42.387 424.85 42.3237 424.287 42.3337L424.415 42.5806L423.907 42.9133C425.451 43.3786 427.559 43.0482 428.066 44.2249C428.469 45.1612 428.306 46.2912 429.155 47.0752C431.385 47.6132 434.797 45.983 436.042 47.9819C437.012 49.5375 435.565 52.5442 436.052 53.7304C436.38 54.5273 440.178 55.4891 439.935 57.6728C437.899 55.7166 438.346 55.2792 435.467 54.4811C435.502 52.1847 435.35 50.1499 435.194 47.8588C433.215 47.5014 430.516 47.6002 428.439 47.6069C428.158 46.5287 427.966 45.3609 427.284 44.5071C425.53 43.3907 408.387 43.9308 405.443 44.0314C405.037 46.0941 405.261 49.3704 404.8 50.657C404.682 50.7011 404.564 50.7462 404.446 50.7923C401.906 51.7931 397.553 56.6841 396.47 59.1974C393.082 59.4309 391.192 59.8171 389.142 56.9679C387.773 55.0644 384.429 55.3064 382.222 55.2659C382.071 54.4099 381.962 53.3652 381.463 52.636C379.99 50.4824 360.308 52.0964 356.138 51.3305C357.915 50.7203 374.232 50.6743 377.377 50.6761L376.741 50.5855C379.481 50.0723 380.972 52.1645 382.974 52.624L383.129 52.2399L382.729 51.6138C382.484 51.6782 382.621 51.6112 382.322 51.8709L381.804 50.7735C379.317 49.3208 367.163 49.7876 363.484 49.6719C366.977 49.2589 372.041 49.5899 375.661 49.4991C377.181 49.461 378.639 49.8222 380.119 49.4952C381.853 49.6262 383.329 51.5694 384.492 52.8221C386.131 53.1624 387.952 53.1562 389.503 53.8253C390.521 54.2649 392.836 57.5734 393.975 57.0496C396.74 55.3873 400.152 51.6079 401.957 48.9848C402.788 47.7782 402.26 45.1615 403.788 43.1876Z"/><path fill="#E2A678" transform="scale(1.54983 1.54983)" d="M123.729 55.5951C124.261 54.9166 125.129 53.8096 125.84 53.3922C131.23 50.2246 146.255 49.3888 152.103 50.4524C154.789 51.9619 168.982 66.4212 172.264 69.332C172.683 69.7036 173.291 71.4554 173.458 72.1199C173.873 73.7595 174.132 75.4399 174.496 77.1421C175.028 79.6374 177.688 84.5375 176.363 86.8106C175.971 87.4836 174.726 88.6664 174.269 89.4849C173.639 90.615 173.423 92.3378 172.854 93.3154C170.738 96.956 168.187 98.8634 164.916 101.175C163.818 101.952 163.698 104 160.509 104.604C158.639 104.959 157.267 104.96 155.748 106.099C154.155 107.804 151.691 106.642 149.973 105.896L146.285 107.208C145.218 106.93 138.827 104.649 138.006 104.089C133.933 101.311 130.241 98.2284 125.846 95.6619C124.136 94.663 119.915 90.1305 118.93 88.1533C117.794 85.8712 119.003 79.8542 118.118 77.2701C116.041 75.0175 114.304 74.7148 114.921 69.9771C115.42 66.1452 118.679 61.436 120.725 58.1231C121.021 57.6439 123.144 56.0493 123.729 55.5951Z"/><path fill="#FEFEFE" transform="scale(1.54983 1.54983)" d="M136.978 51.2982C143.037 50.7391 144.367 50.3991 150.392 51.8594C150.947 52.5389 151.138 52.7256 151.813 53.287C155.251 56.8239 158.718 60.3325 162.214 63.8124C164.807 66.4086 167.904 69.6444 170.72 71.9171C171.074 74.9966 170.91 78.3619 170.965 81.4886C172.624 81.8206 173.731 81.8712 174.747 83.269C175.237 85.6895 172.783 85.9623 170.972 86.4093C170.991 87.2433 171.154 91.565 170.66 92.0574C167.534 95.1756 164.148 98.0413 161.187 101.403C159.652 101.243 157.674 100.979 156.167 100.987C156.073 101.614 155.822 103.06 155.8 103.625C155.597 104.013 155.238 104.792 154.835 104.965C152.022 106.174 151.913 103.101 151.028 101.449C148.004 99.063 148.565 103.979 146.454 105.516C144.191 105.666 143.645 102.871 143.484 101.115C142.627 101.165 141.544 101.256 140.81 101.25C139.186 101.238 136.757 101.645 136.581 99.4704C136.503 98.4975 134.478 97.3475 133.674 96.8504C132.25 95.9699 132.135 94.991 131.84 93.4249C119.276 94.4414 120.872 83.7303 121.019 75.1698C116.184 73.9533 116.474 71.4427 117.6 67.1728C118.579 66.6916 119.929 66.3014 120.994 65.9571C120.889 62.182 120.069 60.6015 123.693 58.5423C125.798 56.7588 125.133 55.1804 128.779 55.19C130.832 55.1954 133.611 55.299 135.588 55.0676L135.883 55.031C136.219 53.6111 136.502 52.681 136.978 51.2982Z"/><path fill="#E2A678" transform="scale(1.54983 1.54983)" d="M277.085 150.289C281.664 150.109 300.87 149.863 304.179 150.844C305.628 151.274 306.837 152.51 307.988 153.451C314.124 153.521 323.126 152.745 327.265 156.96C330.703 160.46 332.802 162.586 333 167.477C333.263 173.977 331.745 173.664 327.389 177.441C326.673 178.061 324.958 180.888 324.128 181.697C323.628 182.184 323.104 182.701 322.332 182.79C316.77 183.434 310.481 182.722 304.84 183.077C303.048 183.819 300.907 185.555 299.054 185.649C294.964 185.856 290.564 185.756 286.455 185.772L273.649 185.824C268.346 185.843 265.11 186.666 260.774 183.243C253.503 182.592 251.469 180.626 251.29 172.884C251.258 166.734 250.472 162.288 255.142 157.497C259.776 152.743 264.994 154.117 271.134 154.008C273.185 152.447 274.636 151.152 277.085 150.289Z"/><path fill="#E5643E" transform="scale(1.54983 1.54983)" d="M277.137 154.861C285.265 155.002 297.116 154.435 304.778 155.025C305.066 156.097 305.315 157.423 305.55 158.529C310.164 158.969 318.302 158.742 323.052 158.737C324.701 161.02 325.943 162.041 328.164 163.804C328.253 166.418 328.35 170.158 327.987 172.686C325.226 173.858 324.254 174.688 323.26 177.484C317.979 177.982 308.281 177.706 302.687 177.74C301.958 177.796 302.277 177.681 301.684 178.065C301.185 178.994 301.199 180.399 301.127 181.49C297.018 181.399 265.035 181.814 263.934 181.144C263.521 180.893 263.358 180.412 263.229 179.964C263.066 179.399 262.956 178.868 262.486 178.466C260.84 177.056 257.747 177.577 255.754 177.679C255.66 172.971 255.389 168.064 255.524 163.392C258.478 161.98 258.819 161.731 260.033 158.729L274.196 158.716C274.324 157.582 274.24 156.376 274.737 155.403C275.65 154.757 275.834 154.956 277.137 154.861Z"/><path fill="#FEFEFE" transform="scale(1.54983 1.54983)" d="M254.352 289.833C252.34 289.456 250.779 288.471 250.73 286.236C250.676 283.811 250 275.657 251.817 274.014C254.758 271.354 256.962 268.175 260.031 265.757C261.907 264.43 270.913 265.074 273.295 265.788C273.694 265.899 275.591 267.479 275.997 267.819C279.148 271.002 279.447 271.243 279.546 275.704L281.775 277.04C283.516 279.164 283.451 285.754 282.671 288.337C281.858 289.487 281.023 289.809 279.697 290.323C279.396 297.891 277.969 295.47 274.399 301.071C271.327 301.513 265.013 302.395 262.471 300.362C261.833 299.852 261.279 298.664 260.926 297.907C253.619 297.372 254.179 297.11 254.352 289.833Z"/><path fill="#DDB48D" transform="scale(1.54983 1.54983)" d="M281.775 277.04C283.516 279.164 283.451 285.754 282.671 288.337C281.858 289.487 281.023 289.809 279.697 290.323C279.396 297.891 277.969 295.47 274.399 301.071C271.327 301.513 265.013 302.395 262.471 300.362C261.833 299.852 261.279 298.664 260.926 297.907C253.619 297.372 254.179 297.11 254.352 289.833L254.844 289.851C255.231 291.76 254.851 293.74 256.113 295.819C257.438 296.749 260.775 296.626 262.486 296.678C262.808 297.67 263.122 298.919 263.974 299.553C265.99 301.054 270.812 300.431 273.15 299.993C274.6 297.983 277.1 296.252 278.013 294.447C278.43 293.623 278.388 291.264 279.121 289.688C280.515 288.46 281.4 290.066 281.984 287.586C282.889 283.745 282.511 280.798 281.775 277.04Z"/></svg>