<?xml version="1.0" encoding="utf-8" ?><svg xmlns="http://www.w3.org/2000/svg" xmlns:xlink="http://www.w3.org/1999/xlink" width="732" height="411" viewBox="0 0 732 411"><path fill="#FDFDFC" transform="scale(2.56966 2.56966)" d="M127.087 23.6513C129.493 22.2125 145.186 22.8122 148.802 23.3327C149.447 23.4257 149.957 24.2343 150.705 24.5808C151.741 25.0601 153.719 25.1325 154.571 25.5205C157.739 26.9624 160.909 28.7356 164.088 30.1358C167.252 31.5291 171.045 32.3317 174.118 34.1044C174.86 34.5326 176.527 36.9427 177.051 37.7437C179.364 39.9705 182.322 43.8638 183.254 46.963C183.954 49.2899 184.32 52.0277 185.462 54.2964C186.229 55.8218 188.082 57.5268 188.936 59.0346C189.437 66.6854 188.293 67.9986 185.507 75.1396C184.697 77.216 186.047 80.1541 184.177 82.7617C182.732 84.4789 180.882 85.8027 179.61 87.4724C178.866 89.4255 178.913 90.9818 178.259 92.8455C175.855 96.0217 172.443 98.724 170.132 101.596C166.44 106.185 159.437 101.762 156.306 104.852C154.088 107.053 143.42 104.815 141.56 106.407C139.594 108.335 129.728 107.86 127.299 106.672C123.753 105.219 120.146 106.578 117.589 103.507C112.46 102.765 110.056 104.945 106.258 100.593L106.02 100.364C99.2201 93.7746 97.6396 93.003 97.4959 83.5165C96.5187 81.7897 94.1928 79.8937 93.8822 78.4698C92.5651 72.4312 90.023 63.0526 92.8279 57.2853C93.3374 56.0348 93.333 54.6044 93.773 53.2489C94.6031 50.6918 95.516 48.0003 96.4233 45.4788C97.1127 45.9708 97.2592 47.0353 97.4882 47.8954C97.8847 46.6069 98.6058 45.0208 99.1403 43.7516C98.8777 40.671 99.2297 41.9589 100.174 39.2593C105.207 32.101 111.973 29.8936 119.491 26.4876C122.188 25.2658 124.511 24.7205 127.087 23.6513Z"/><path fill="#C8986B" transform="scale(2.56966 2.56966)" d="M92.8279 57.2853C93.3249 57.4632 93.9555 57.6689 94.4302 57.8681C92.4044 60.116 92.7575 68.4561 93.9112 71.0223C94.716 71.6663 95.0322 71.7054 95.1262 72.8736C95.5548 78.1981 95.1334 79.3765 99.5006 83.0151C99.6059 89.6638 99.0182 91.9189 104.332 96.8014C105.806 98.1557 107.846 100.185 109.469 101.363C107.482 101.827 108.395 100.697 106.258 100.593L106.02 100.364C99.2201 93.7746 97.6396 93.003 97.4959 83.5165C96.5187 81.7897 94.1928 79.8937 93.8822 78.4698C92.5651 72.4312 90.023 63.0526 92.8279 57.2853Z"/><path fill="#C8986B" transform="scale(2.56966 2.56966)" d="M177.051 37.7437C179.364 39.9705 182.322 43.8638 183.254 46.963C183.954 49.2899 184.32 52.0277 185.462 54.2964C186.229 55.8218 188.082 57.5268 188.936 59.0346C189.437 66.6854 188.293 67.9986 185.507 75.1396C184.697 77.216 186.047 80.1541 184.177 82.7617C183.833 81.8931 183.815 81.0465 183.737 80.1173C183.405 73.9351 186.594 69.8274 187.974 64.0159C188.12 63.3999 187.973 60.4589 187.94 59.6487C186.864 58.028 184.981 56.7018 183.968 54.8104C182.441 51.9598 182.052 48.9199 180.984 45.9313C179.984 43.1354 178.424 40.3823 177.051 37.7437Z"/><path fill="#D7A16F" transform="scale(2.56966 2.56966)" d="M177.143 91.2351C178.085 92.0867 177.902 91.7099 178.259 92.8455C175.855 96.0217 172.443 98.724 170.132 101.596C166.44 106.185 159.437 101.762 156.306 104.852C155.863 104.723 155.341 104.292 154.953 104.006C155.583 103.413 155.623 102.748 155.948 101.814C156.598 101.543 166.001 101.656 167.594 101.574C169.822 98.9481 175.903 93.8014 177.143 91.2351Z"/><path fill="#D7A16F" transform="scale(2.56966 2.56966)" d="M100.174 39.2593C105.207 32.101 111.973 29.8936 119.491 26.4876C122.188 25.2658 124.511 24.7205 127.087 23.6513C127.057 24.4253 127.18 24.2327 126.736 24.7216C117.282 26.4278 103.851 35.3493 99.1403 43.7516C98.8777 40.671 99.2297 41.9589 100.174 39.2593Z"/><path fill="#C8986B" transform="scale(2.56966 2.56966)" d="M140.286 106.192C140.422 105.952 140.8 104.393 140.918 103.988C141.751 103.57 153.426 103.829 154.953 104.006C155.341 104.292 155.863 104.723 156.306 104.852C154.088 107.053 143.42 104.815 141.56 106.407C140.991 106.434 140.823 106.358 140.286 106.192Z"/><path fill="#D7A16F" transform="scale(2.56966 2.56966)" d="M96.4233 45.4788C97.1127 45.9708 97.2592 47.0353 97.4882 47.8954C97.3484 48.7789 94.5272 57.7831 94.4302 57.8681C93.9555 57.6689 93.3249 57.4632 92.8279 57.2853C93.3374 56.0348 93.333 54.6044 93.773 53.2489C94.6031 50.6918 95.516 48.0003 96.4233 45.4788Z"/><path fill="#D7A16F" transform="scale(2.56966 2.56966)" d="M177.973 86.4696C179.13 85.8668 183.631 81.5873 183.737 80.1173C183.815 81.0465 183.833 81.8931 184.177 82.7617C182.732 84.4789 180.882 85.8027 179.61 87.4724C178.866 89.4255 178.913 90.9818 178.259 92.8455C177.902 91.7099 178.085 92.0867 177.143 91.2351C177.311 89.4984 176.82 87.7413 177.973 86.4696Z"/><path fill="#C8986B" transform="scale(2.56966 2.56966)" d="M118.888 102.465C120.359 104.71 125.687 102.974 127.365 104.213C128.164 104.803 126.662 105.643 129.369 105.9C128.454 106.083 128.089 106.123 127.299 106.672C123.753 105.219 120.146 106.578 117.589 103.507L118.888 102.465Z"/><path fill="#D7A16F" transform="scale(2.56966 2.56966)" d="M129.369 105.9C131.512 105.95 138.74 105.865 140.286 106.192C140.823 106.358 140.991 106.434 141.56 106.407C139.594 108.335 129.728 107.86 127.299 106.672C128.089 106.123 128.454 106.083 129.369 105.9Z"/><path fill="#D7A16F" transform="scale(2.56966 2.56966)" d="M106.258 100.593C108.395 100.697 107.482 101.827 109.469 101.363C112.46 102.063 117.49 101.133 118.888 102.465L117.589 103.507C112.46 102.765 110.056 104.945 106.258 100.593Z"/><path fill="#C8986B" transform="scale(2.56966 2.56966)" d="M96.4233 45.4788C96.6691 44.1983 99.0773 40.3343 100.174 39.2593C99.2297 41.9589 98.8777 40.671 99.1403 43.7516C98.6058 45.0208 97.8847 46.6069 97.4882 47.8954C97.2592 47.0353 97.1127 45.9708 96.4233 45.4788Z"/></svg>