<?xml version="1.0" encoding="utf-8" ?><svg xmlns="http://www.w3.org/2000/svg" xmlns:xlink="http://www.w3.org/1999/xlink" width="2609" height="3144" viewBox="0 0 2609 3144"><path fill="#F0F0EF" transform="scale(7.97918 7.97918)" d="M139.966 261.387C136.215 259.497 133.012 256.676 130.664 253.194C124.983 244.629 121.534 235.627 117.41 226.347C115.863 222.865 113.206 218.937 111.542 215.391C110.041 212.237 108.916 208.913 107.406 205.763C106.079 203.051 104.188 200.449 103.092 197.643C100.261 190.392 98.4712 182.56 95.3106 175.445C93.5573 171.498 91.6641 167.911 90.3322 163.756C88.8221 159.046 88.2613 154.25 86.7645 149.561C85.9001 146.951 84.6805 144.386 83.7761 141.783C81.942 136.583 80.2751 131.485 78.5433 126.234C74.1534 112.924 67.9045 97.7513 70.5269 83.5162C72.4194 73.2433 76.9263 63.3294 85.6894 57.3001C88.5371 55.3408 92.2981 54.3478 95.5572 53.3417C98.3886 52.3134 100.956 50.7322 103.925 50.0709C110.681 48.5659 117.07 48.5438 123.978 48.4186C131.496 48.2824 138.785 48.1063 146.243 50.0089C150.851 51.1845 157.772 53.5358 161.583 56.5849C165.602 60.8434 169.318 67.5397 172.014 72.7373C172.923 74.5756 173.677 77.2697 174.617 79.1614C175.538 81.2878 177.36 83.7111 178.157 85.838C179.77 90.1452 181.246 92.3506 183.854 95.9506C188.132 101.855 190.52 109.307 193.652 115.803C193.697 115.869 193.741 115.935 193.785 116.001C194.749 116.695 195.885 117.56 196.862 118.199C200.32 118.407 202.678 118.127 205.069 120.813C205.434 121.226 205.793 121.644 206.145 122.067C207.468 124.398 209.338 127.123 210.328 129.589C213.205 136.76 216.836 143.489 220.032 150.497C220.99 152.599 219.652 154.394 218.377 155.881C217.071 156.799 216.668 157.132 215.773 158.482C216.25 160.634 217.639 166.14 217.888 168.063C219.588 172.029 220.726 176.167 222.466 180.204C224.354 184.582 225.328 189.777 226.993 194.36C228.134 197.504 227.208 201.094 229.694 204.195C233.634 209.36 231.411 222.107 226.927 226.109C222.071 230.443 226.149 232.819 227.275 237.312C228.408 241.835 227.48 251.74 229.333 256.329C230.338 257.396 229.932 262.028 230.224 264.363C230.935 270.052 233.092 272.87 232.986 278.663L232.96 278.923C232.813 280.534 233.188 282.022 233.365 283.62C234.196 291.139 234.694 294.032 228.489 299.249C224.848 302.309 219.696 304.815 215.272 306.649C214.12 307.126 211.812 307.25 210.477 307.784C207.819 308.846 205.258 310.521 202.425 310.978C199.528 311.446 195.908 311.333 192.951 311.211C191.987 310.563 191.304 310.13 190.448 309.337C187.408 306.2 184.161 303.528 181.299 300.176C175.679 293.593 171.488 285.63 165.087 279.811C163.573 278.435 162.104 276.953 160.703 275.46C159.742 274.572 158.367 273.219 157.235 272.663C153.161 270.661 151.122 271.753 147.342 268.623L146.05 265.234C143.981 263.664 141.715 262.81 139.966 261.387Z"/><path fill="#F0F0EF" transform="scale(7.97918 7.97918)" d="M185 261.481C187.025 259.619 190.473 257.522 193.073 256.604C194.303 256.17 195.5 256.327 196.598 255.537C199.258 253.623 204.725 251.046 207.888 250.214C209.725 249.731 211.848 249.632 213.602 248.933C215.496 248.179 217.461 246.757 219.175 245.652C220.603 244.731 224.373 240.972 225.939 241.039C227.813 241.119 227.483 255.304 228.505 256.344L229.333 256.329C230.338 257.396 229.932 262.028 230.224 264.363C230.935 270.052 233.092 272.87 232.986 278.663L232.96 278.923C232.813 280.534 233.188 282.022 233.365 283.62C234.196 291.139 234.694 294.032 228.489 299.249C224.848 302.309 219.696 304.815 215.272 306.649C214.12 307.126 211.812 307.25 210.477 307.784C207.819 308.846 205.258 310.521 202.425 310.978C199.528 311.446 195.908 311.333 192.951 311.211C191.987 310.563 191.304 310.13 190.448 309.337C187.408 306.2 184.161 303.528 181.299 300.176C175.679 293.593 171.488 285.63 165.087 279.811C163.573 278.435 162.104 276.953 160.703 275.46C159.166 273.317 158.664 272.894 157.489 270.46C158.827 270.264 162.64 270.389 163.229 270.089C163.245 269.477 163.207 269.308 163.504 268.76C164.994 268.267 167.316 268.718 168.413 268.248C174.665 265.569 177.685 261.605 185 261.481Z"/><path fill="#807D7A" transform="scale(7.97918 7.97918)" d="M229.694 204.195C233.634 209.36 231.411 222.107 226.927 226.109C222.071 230.443 226.149 232.819 227.275 237.312C228.408 241.835 227.48 251.74 229.333 256.329L228.505 256.344C227.483 255.304 227.813 241.119 225.939 241.039C224.373 240.972 220.603 244.731 219.175 245.652C217.461 246.757 215.496 248.179 213.602 248.933C211.848 249.632 209.725 249.731 207.888 250.214C204.725 251.046 199.258 253.623 196.598 255.537C195.5 256.327 194.303 256.17 193.073 256.604C190.473 257.522 187.025 259.619 185 261.481C177.685 261.605 174.665 265.569 168.413 268.248C167.316 268.718 164.994 268.267 163.504 268.76C163.207 269.308 163.245 269.477 163.229 270.089C162.64 270.389 158.827 270.264 157.489 270.46C158.664 272.894 159.166 273.317 160.703 275.46C159.742 274.572 158.367 273.219 157.235 272.663C153.161 270.661 151.122 271.753 147.342 268.623L146.05 265.234C143.981 263.664 141.715 262.81 139.966 261.387C141.583 262.129 141.324 261.776 142.749 262.117C143.112 262.204 145.428 263.221 146.054 263.464C146.817 263.151 147.716 261.535 148.61 260.557C152.851 260.188 156.227 259.361 160.512 259.188C162.461 256.637 164.784 256.538 167.747 255.951C174.453 254.623 184.486 247.098 190.474 246.436C191.301 245.661 192.024 244.848 192.787 244.012C203.736 242.686 210.624 234.981 220.606 231.642C221.006 231.509 221.976 231.528 222.427 231.557L223.686 231.632C224.056 230.9 223.874 229.486 223.832 228.596C231.302 222.63 232.386 212.809 229.694 204.195Z"/><path fill="#575655" transform="scale(7.97918 7.97918)" d="M193.785 116.001C194.749 116.695 195.885 117.56 196.862 118.199C200.32 118.407 202.678 118.127 205.069 120.813C205.434 121.226 205.793 121.644 206.145 122.067C207.468 124.398 209.338 127.123 210.328 129.589C213.205 136.76 216.836 143.489 220.032 150.497C220.99 152.599 219.652 154.394 218.377 155.881C217.071 156.799 216.668 157.132 215.773 158.482C216.25 160.634 217.639 166.14 217.888 168.063C217.008 166.431 215.262 160.006 214.594 157.833C213.736 157.167 212.774 156.31 211.932 155.598C209.661 147.601 207.233 142.148 203.194 134.891C202.005 132.755 199.824 129.874 198.881 127.763C196.793 123.088 196.507 120.546 193.785 116.001Z"/><path fill="#98E751" transform="scale(7.97918 7.97918)" d="M196.108 157.074C197.355 157.009 198.81 157.099 200.074 157.144C202.31 159.219 204.668 161.64 203.028 164.916C202.529 165.911 200.689 167.669 199.735 168.207L196.002 168.226C191.034 165.096 190.641 159.899 196.108 157.074Z"/><path fill="#575655" transform="scale(7.97918 7.97918)" d="M188.059 136.318C191.801 136.093 189.743 137.625 193.757 139.642L193.79 144.319C192.001 145.44 190.773 147.279 189.1 147.516C185.971 147.223 185.328 146.696 183.039 144.461C182.959 143.038 183.001 141.296 182.997 139.848C184.545 138.203 185.844 136.733 188.059 136.318Z"/><path fill="#94A3A5" transform="scale(7.97918 7.97918)" d="M232.986 278.663C233.799 284.103 235.697 289.649 233.219 295.07C238.66 297.397 237.645 301.83 240.776 305.314C245.039 309.751 247.821 313.481 250.522 319.095C251.52 321.169 253.882 323.72 255.025 325.975C258.168 332.173 262.109 338.244 265.459 344.276C267.673 348.261 269.226 353.436 271.413 357.535C272.104 359.131 274.13 361.707 274.488 363.108C276.381 370.497 278.284 375.475 283.319 381.419C284.54 382.861 285.835 387.219 287.212 388.873C288.361 390.564 290.298 392.062 291.407 394L197.797 394C197.512 393.347 197.261 392.68 197.045 392.001C195.779 387.906 195.977 380.761 195.563 376.27C195.354 374.002 195.034 371.828 194.788 369.614C194.651 368.381 194.459 364.822 194.445 363.595C194.404 360.263 192.387 356.904 192.511 354.129C192.711 349.652 193.801 345.065 194.212 340.47C194.671 335.331 194.036 330.692 194.645 325.709C194.755 324.814 195.846 322.812 196.303 321.928C194.994 318.369 192.893 315.914 191.303 312.57C191.078 312.097 190.601 309.958 190.448 309.337C191.304 310.13 191.987 310.563 192.951 311.211C195.908 311.333 199.528 311.446 202.425 310.978C205.258 310.521 207.819 308.846 210.477 307.784C211.812 307.25 214.12 307.126 215.272 306.649C219.696 304.815 224.848 302.309 228.489 299.249C234.694 294.032 234.196 291.139 233.365 283.62C233.188 282.022 232.813 280.534 232.96 278.923L232.986 278.663Z"/></svg>