<?xml version="1.0" encoding="utf-8" ?><svg xmlns="http://www.w3.org/2000/svg" xmlns:xlink="http://www.w3.org/1999/xlink" width="1502" height="1647" viewBox="0 0 1502 1647"><clipPath id="cl_6"><rect y="0.00012207031" width="1502.0001" height="1647"/></clipPath><g clip-path="url(#cl_6)"><defs><linearGradient id="gradient_0" gradientUnits="userSpaceOnUse" x1="499.70703" y1="1041.8325" x2="383.29446" y2="750.58575"><stop offset="0" stop-color="#D95871"/><stop offset="1" stop-color="#F97492"/></linearGradient></defs><path fill="url(#gradient_0)" transform="matrix(2.55009 0 0 2.54954 -395.263 -928.031)" d="M246.932 804.398C251.441 780.897 261.073 752.401 273.646 731.865C279.044 723.047 287.61 712.446 293.885 703.732C305.933 687.082 315.188 668.581 321.287 648.955C338.356 594.225 324.778 536.464 347.847 484.072C366.791 441.052 437.971 411.806 479.753 433.765C498.668 432.728 509.474 435.045 525.222 446.662C562.396 474.084 563.052 512.522 564.398 554.417C564.987 572.736 565.449 590.739 567.083 608.99C567.792 616.916 567.863 626.745 569.1 634.433L569.231 635.224C572.555 643.733 577.556 650.553 579.801 658.983C581.17 664.124 580.433 670.872 580.748 675.974C581.46 687.484 579.446 719.174 583.602 728.674C590.87 744.509 597.855 761.221 606.829 776.114C607.445 777.137 614.677 781.561 616.025 782.233C645.521 796.927 650.7 832.551 657.897 861.719C661.46 876.052 665.355 890.301 669.58 904.454C671.621 911.141 673.813 918.378 676.604 924.791C683.638 940.952 692.672 955.948 696.781 973.236C700.644 989.486 698.48 1000.11 687.223 1012.45C673.302 1012.56 659.381 1012.58 645.46 1012.51C639.912 1012.5 628.018 1012.22 622.977 1012.91L616.261 1013.09C610.015 993.935 603.467 974.884 596.62 955.94C592.101 965.741 588.934 970.27 583.486 978.987C579.43 985.475 578.409 1004.28 577.496 1012.86C557.135 1011.79 529.836 1012.66 508.856 1012.66L376.269 1012.64C359.029 1012.64 339.733 1013.28 322.874 1012.97C321.952 1004.36 321.551 994.221 319.109 986.056C316.86 978.534 312.096 970.649 308.875 963.349C304.371 953.144 303.063 944.628 301.467 933.846C299.493 939.42 297.864 951.734 296.624 958.038C293.1 975.961 290.512 995.33 286.27 1012.99C278.033 1012.32 265.884 1012.67 257.412 1012.71L207.878 1012.98C208.241 1004.86 210.415 991.426 211.605 983.118C214.151 965.142 216.826 947.185 219.629 929.248C222.94 906.776 226.409 884.327 230.038 861.904C232.147 848.835 234.41 835.01 237.588 822.154C239.015 816.383 244.362 810.024 246.932 804.398ZM326.241 772.196C333.838 770.681 342.21 768.491 349.803 766.674C359.69 765.049 373.487 761.464 382.421 756.908C392.324 751.858 396.571 745.713 399.847 735.503C402.152 717.798 401.474 701.02 401.467 683.159C401.46 665.792 402.07 646.962 401.395 629.728C419.427 650.579 433.465 662.961 459.981 672.586C473.648 677.547 476.743 677.364 490.609 678.725C495.684 678.409 499.628 676.444 503.697 673.621C507.01 670.648 508.821 668.441 511.658 665.073L514.719 661.233C516.477 657.996 518.535 654.797 520.485 651.661C524.137 645.907 527.267 639.67 530.424 633.616C531.313 631.685 532.083 628.828 532.726 626.737L532.81 626.314C532.023 625.488 531.163 625.423 530.031 625.139L531.366 624.233C532.417 622.038 532.162 620.225 531.664 617.869C532.888 617.792 532.789 617.739 533.989 617.379L534.512 615.778L536.741 616.322C537.096 614.149 538.399 609.967 539.045 607.683L539.959 603.656L540.904 604.557L544.263 604.465C545.193 600.787 545.464 595.676 545.799 591.794C551.224 600.438 554.8 606.375 559.36 615.406C561.923 620.482 566.676 631.176 569.231 635.224L569.1 634.433C567.863 626.745 567.792 616.916 567.083 608.99C565.449 590.739 564.987 572.736 564.398 554.417C563.052 512.522 562.396 474.084 525.222 446.662C509.474 435.045 498.668 432.728 479.753 433.765C437.971 411.806 366.791 441.052 347.847 484.072C324.778 536.464 338.356 594.225 321.287 648.955C315.188 668.581 305.933 687.082 293.885 703.732C287.61 712.446 279.044 723.047 273.646 731.865C261.073 752.401 251.441 780.897 246.932 804.398C267.531 779.917 296.612 778.812 326.241 772.196Z"/><defs><linearGradient id="gradient_1" gradientUnits="userSpaceOnUse" x1="459.68301" y1="713.77478" x2="299.94116" y2="511.52359"><stop offset="0" stop-color="#2B524D"/><stop offset="1" stop-color="#575454"/></linearGradient></defs><path fill="url(#gradient_1)" transform="matrix(2.55009 0 0 2.54954 -395.263 -928.031)" d="M246.932 804.398C251.441 780.897 261.073 752.401 273.646 731.865C279.044 723.047 287.61 712.446 293.885 703.732C305.933 687.082 315.188 668.581 321.287 648.955C338.356 594.225 324.778 536.464 347.847 484.072C366.791 441.052 437.971 411.806 479.753 433.765C498.668 432.728 509.474 435.045 525.222 446.662C562.396 474.084 563.052 512.522 564.398 554.417C564.987 572.736 565.449 590.739 567.083 608.99C567.792 616.916 567.863 626.745 569.1 634.433L569.231 635.224C566.676 631.176 561.923 620.482 559.36 615.406C554.8 606.375 551.224 600.438 545.799 591.794C545.464 595.676 545.193 600.787 544.263 604.465L540.904 604.557L539.959 603.656L539.045 607.683C538.399 609.967 537.096 614.149 536.741 616.322L534.512 615.778L533.989 617.379C532.789 617.739 532.888 617.792 531.664 617.869C532.162 620.225 532.417 622.038 531.366 624.233L530.031 625.139C531.163 625.423 532.023 625.488 532.81 626.314L532.726 626.737C532.083 628.828 531.313 631.685 530.424 633.616C527.267 639.67 524.137 645.907 520.485 651.661C518.535 654.797 516.477 657.996 514.719 661.233L511.658 665.073C508.821 668.441 507.01 670.648 503.697 673.621C499.628 676.444 495.684 678.409 490.609 678.725C476.743 677.364 473.648 677.547 459.981 672.586C433.465 662.961 419.427 650.579 401.395 629.728C402.07 646.962 401.46 665.792 401.467 683.159C401.474 701.02 402.152 717.798 399.847 735.503C396.571 745.713 392.324 751.858 382.421 756.908C373.487 761.464 359.69 765.049 349.803 766.674C342.21 768.491 333.838 770.681 326.241 772.196C296.612 778.812 267.531 779.917 246.932 804.398ZM271.488 744.217C269.15 747.129 265.084 757.923 263.791 761.652C268.055 755.162 272.433 748.747 276.922 742.411C299.993 712.052 324.423 680.572 327.322 640.887C320.008 666.977 311.296 686.797 295.24 708.704C288.248 718.245 275.77 733.905 271.488 744.217Z"/><path fill="#FCBEA6" transform="matrix(2.55009 0 0 2.54954 -395.263 -928.031)" d="M470.274 498.686C477.787 491.804 481.199 488.527 486.204 479.411C502.017 507.871 519.408 519.672 546.61 536.82C550.021 538.971 542.827 581.391 542.293 588.264C543.87 589.27 545.057 589.969 545.799 591.794C545.464 595.676 545.193 600.787 544.263 604.465L540.904 604.557L539.959 603.656L539.045 607.683C538.399 609.967 537.096 614.149 536.741 616.322L534.512 615.778L533.989 617.379C532.789 617.739 532.888 617.792 531.664 617.869C532.162 620.225 532.417 622.038 531.366 624.233L530.031 625.139C531.163 625.423 532.023 625.488 532.81 626.314L532.726 626.737C532.083 628.828 531.313 631.685 530.424 633.616C527.267 639.67 524.137 645.907 520.485 651.661C518.535 654.797 516.477 657.996 514.719 661.233L511.658 665.073C508.821 668.441 507.01 670.648 503.697 673.621C499.628 676.444 495.684 678.409 490.609 678.725C476.743 677.364 473.648 677.547 459.981 672.586C433.465 662.961 419.427 650.579 401.395 629.728C398.804 625.412 396.922 621.605 394.696 617.113C375.785 620.18 361.964 612.903 355.197 594.42C351.405 584.062 353.441 566.257 366.189 562.495C382.656 557.637 384.201 574.54 390.149 577.925C397.437 577.666 405.067 551.06 409.566 544.246C415.047 535.946 445.264 518.416 454.778 511.728C460.195 507.36 465.13 503.358 470.274 498.686Z"/><path fill="#C5BDBA" transform="matrix(2.55009 0 0 2.54954 -395.263 -928.031)" d="M479.901 504.945C479.952 502.557 480.301 499.569 479.374 497.508L478.023 496.652C482.912 496.263 487.63 495.772 492.536 495.973L492.857 496.273L491.543 496.716C490.703 499.33 490.973 502.187 491.023 504.958C494.296 504.942 498.175 505.018 501.385 504.798C500.967 508.39 500.887 510.386 500.911 514.013C503.347 513.971 509.098 513.391 510.756 514.513C511.671 516.222 510.841 520.251 511.021 523.209C513.75 523.292 517.138 523.125 519.494 524.216C517.016 526.068 513.788 523.408 510.746 525.888C510.56 527.543 510.811 528.096 511.222 529.679C509.691 533.499 504.806 533.096 501.073 533.434C500.912 535.942 500.768 539.948 500.361 542.296C497.833 542.331 481.687 542.839 480.247 542.111C479.8 538.968 480.368 534.75 479.03 533.341L477.262 532.804L477.291 532.041L479.479 531.622C480.195 529.672 479.832 526.714 479.74 524.522C477.233 524.482 471.859 523.977 470.233 525.776C469.142 526.981 470.02 526.999 469.104 528.737L469.116 528.305C469.15 526.798 469.195 526.561 468.778 525.056C463.529 522.647 462.33 527.899 457.953 524.129C458.865 523.491 459.286 523.228 460.267 522.706C460.65 517.359 457.515 512.769 461.597 509.773L461.62 508.509C458.797 508.684 458.121 510.938 454.778 511.728C460.195 507.36 465.13 503.358 470.274 498.686C470.214 500.911 469.84 502.672 471.065 504.381C473.056 505.621 477.152 505.011 479.901 504.945Z"/><path fill="#FCBEA6" transform="matrix(2.55009 0 0 2.54954 -395.263 -928.031)" d="M470.56 506.263L479.783 506.31L479.817 513.865L470.605 513.943L470.56 506.263Z"/><path fill="#FCBEA6" transform="matrix(2.55009 0 0 2.54954 -395.263 -928.031)" d="M473.629 515.344C475.19 515.291 476.448 515.31 478.009 515.36C480.839 517.448 480.545 519.841 479.142 522.81L477.74 523.116C472.415 523.352 467.023 521.825 471.505 515.67L473.629 515.344Z"/><path fill="#FCBEA6" transform="matrix(2.55009 0 0 2.54954 -395.263 -928.031)" d="M481.004 515.517L489.483 515.33L489.577 523.032L481.098 523.09L481.004 515.517Z"/><path fill="#FCBEA6" transform="matrix(2.55009 0 0 2.54954 -395.263 -928.031)" d="M500.962 515.513L509.331 515.389L509.42 523.161L501.089 523.116L500.962 515.513Z"/><path fill="#FCBEA6" transform="matrix(2.55009 0 0 2.54954 -395.263 -928.031)" d="M480.997 497.174C484.208 497.112 486.402 496.62 488.948 498.227C490.008 500.236 489.657 502.572 489.6 504.947L481.067 504.908L480.997 497.174Z"/><path fill="#FCBEA6" transform="matrix(2.55009 0 0 2.54954 -395.263 -928.031)" d="M490.976 506.318L499.223 506.337L499.441 513.874L490.857 513.896L490.976 506.318Z"/><path fill="#FCBEA6" transform="matrix(2.55009 0 0 2.54954 -395.263 -928.031)" d="M481.11 506.308L489.462 506.327C489.432 508.712 489.554 511.433 489.605 513.847L481.014 513.934L481.11 506.308Z"/><path fill="#FCBEA6" transform="matrix(2.55009 0 0 2.54954 -395.263 -928.031)" d="M481.037 524.625L489.61 524.542L489.709 531.861L481.161 531.884L481.037 524.625Z"/><path fill="#FCBEA6" transform="matrix(2.55009 0 0 2.54954 -395.263 -928.031)" d="M490.945 515.521L499.238 515.519C499.246 517.971 499.423 520.372 499.573 522.819C498.17 523.12 492.781 523.008 491.03 523.005L490.945 515.521Z"/><path fill="#FCBEA6" transform="matrix(2.55009 0 0 2.54954 -395.263 -928.031)" d="M490.665 524.527L499.466 524.572C499.361 526.853 499.473 529.536 499.511 531.851L491.096 531.892C491.117 529.546 490.843 526.891 490.665 524.527Z"/><path fill="#FCBEA6" transform="matrix(2.55009 0 0 2.54954 -395.263 -928.031)" d="M468.178 515.342L468.964 515.749C470.673 522.62 468.382 523.385 462.346 523.267L461.276 522.633C460.607 515.7 462.119 515.378 468.178 515.342Z"/><path fill="#FCBEA6" transform="matrix(2.55009 0 0 2.54954 -395.263 -928.031)" d="M481.097 533.381L489.673 533.331L489.851 540.422C486.861 540.109 484.577 540.957 482.038 539.853C480.71 538.137 481.088 535.729 481.097 533.381Z"/><path fill="#FCBEA6" transform="matrix(2.55009 0 0 2.54954 -395.263 -928.031)" d="M490.944 533.33L499.339 533.292L499.011 540.185L491.064 540.644L490.944 533.33Z"/><path fill="#FCBEA6" transform="matrix(2.55009 0 0 2.54954 -395.263 -928.031)" d="M468.076 506.477L468.983 506.633C471.014 513.594 468.519 513.878 462.835 514.025L461.761 513.502C460.888 511.512 461.991 509.032 463.365 507.52C464.492 506.279 466.465 506.554 468.076 506.477Z"/><path fill="#FCBEA6" transform="matrix(2.55009 0 0 2.54954 -395.263 -928.031)" d="M501.035 524.649C504.239 524.582 507.841 523.663 509.656 526.548C509.444 528.425 509.41 528.346 508.461 530.023C505.936 530.827 504.095 531.659 501.755 530.882C500.573 529.037 500.96 526.962 501.035 524.649Z"/><path fill="#C5BDBA" transform="matrix(2.55009 0 0 2.54954 -395.263 -928.031)" d="M467.879 651.124C475.792 647.459 504.924 641.201 505.461 655.221C506.974 656.586 507.535 656.262 509.839 656.579L509.323 657.608C506.373 658.194 506.207 658.79 504.904 661.594C506.093 664.737 508.624 664.448 511.658 665.073C508.821 668.441 507.01 670.648 503.697 673.621C503.68 672.431 503.766 673.021 503.065 671.872C501.746 671.688 501.046 671.956 499.764 672.258L499.755 671.11C498.44 672.014 498.501 671.93 497.631 673.261L497.227 673.175C488.331 673.964 475.543 675.024 468.104 669.142C467.747 665.757 466.978 666.468 463.943 665.312C464.833 663.804 466.198 665.896 468.002 664.34C468.342 662.096 468.376 661.725 468.053 659.486C466.638 657.892 466.765 658.332 464.377 657.584L464.91 656.572L467.391 656.068C468.366 654.124 467.973 653.49 467.879 651.124Z"/><path fill="#E0BFB3" transform="matrix(2.55009 0 0 2.54954 -395.263 -928.031)" d="M509.839 656.579L509.323 657.608C506.373 658.194 506.207 658.79 504.904 661.594C506.093 664.737 508.624 664.448 511.658 665.073C508.821 668.441 507.01 670.648 503.697 673.621C503.68 672.431 503.766 673.021 503.065 671.872C501.746 671.688 501.046 671.956 499.764 672.258L499.755 671.11C498.44 672.014 498.501 671.93 497.631 673.261L497.227 673.175C497.426 672.296 497.403 668.237 497.503 666.869C500.151 666.261 504.724 666.626 505.811 665.472C505.618 664.437 505.438 663.401 505.269 662.362C504.887 659.928 504.756 659.426 505.995 657.728C507.733 657.537 508.28 657.373 509.839 656.579Z"/><path fill="#F3C3B0" transform="matrix(2.55009 0 0 2.54954 -395.263 -928.031)" d="M497.503 666.869C499.989 666.842 501.02 666.421 502.957 667.488C502.486 669.235 501.433 669.999 499.755 671.11C498.44 672.014 498.501 671.93 497.631 673.261L497.227 673.175C497.426 672.296 497.403 668.237 497.503 666.869Z"/><path fill="#FCBEA6" transform="matrix(2.55009 0 0 2.54954 -395.263 -928.031)" d="M488.051 648.346C490.705 648.442 493.248 648.209 495.166 649.905C496.256 651.961 495.952 653.803 495.902 656.189L488.16 656.15L488.051 648.346Z"/><path fill="#FCBEA6" transform="matrix(2.55009 0 0 2.54954 -395.263 -928.031)" d="M488.018 657.866C490.327 657.854 493.316 657.493 495.11 658.631C496.222 660.44 495.815 662.793 495.736 665.056C493.329 665.105 490.897 665.446 488.84 664.404C487.579 662.631 487.977 660.21 488.018 657.866Z"/><path fill="#FCBEA6" transform="matrix(2.55009 0 0 2.54954 -395.263 -928.031)" d="M469.513 658.089L477.411 657.977L477.245 665C474.863 665.111 472.125 665.586 470.205 664.471C469.05 662.61 469.44 660.405 469.513 658.089Z"/><path fill="#FCBEA6" transform="matrix(2.55009 0 0 2.54954 -395.263 -928.031)" d="M484.721 648.831L485.894 648.996C486.922 651.452 487.29 652.84 485.897 655.208C483.761 656.794 483.5 656.26 480.378 656.307L479.339 656.02L478.343 654.264C478.446 649.535 480.925 649.481 484.721 648.831Z"/><path fill="#FCBEA6" transform="matrix(2.55009 0 0 2.54954 -395.263 -928.031)" d="M478.833 658.041C481.169 657.935 483.941 657.451 485.766 658.597C486.84 660.448 486.435 662.754 486.344 665.022L478.819 664.926L478.833 658.041Z"/><path fill="#FCBEA6" transform="matrix(2.55009 0 0 2.54954 -395.263 -928.031)" d="M497.188 658.04C499.984 657.913 501.304 657.535 503.578 658.775C504.544 660.741 504.016 662.712 503.754 664.992C501.471 665.161 500.277 665.408 498.057 664.784C496.825 662.948 497.241 660.606 497.188 658.04Z"/><path fill="#FCBEA6" transform="matrix(2.55009 0 0 2.54954 -395.263 -928.031)" d="M476.818 649.891C478.492 651.522 478.122 653.627 477.073 655.397C474.734 656.846 472.922 656.627 470.202 656.644L469.756 656.068C469.474 653.535 469.201 654.322 470.273 652.375C472.263 650.823 474.381 650.493 476.818 649.891Z"/><path fill="#FCBEA6" transform="matrix(2.55009 0 0 2.54954 -395.263 -928.031)" d="M488.036 666.433C490.306 666.324 492.96 665.936 494.966 666.756C496.208 668.824 495.793 669.35 495.818 671.999C493.424 672.131 490.94 672.555 488.845 671.618C487.628 669.417 488.035 669.135 488.036 666.433Z"/><path fill="#FCBEA6" transform="matrix(2.55009 0 0 2.54954 -395.263 -928.031)" d="M478.903 666.47C481.183 666.373 483.299 666.082 485.43 666.781C486.727 668.826 486.287 669.498 486.309 672.205C484.001 672.217 481.551 672.513 479.597 671.495C478.472 669.45 478.871 669.007 478.903 666.47Z"/><path fill="#FCBEA6" transform="matrix(2.55009 0 0 2.54954 -395.263 -928.031)" d="M497.083 649.588C499.544 650.03 500.606 650.057 502.783 651.335C504.397 653.693 503.925 653.079 504.177 656.202C502.049 656.263 499.977 656.541 498.056 655.771C496.75 653.553 497.176 652.453 497.083 649.588Z"/><path fill="#F3C3B0" transform="matrix(2.55009 0 0 2.54954 -395.263 -928.031)" d="M468.806 666.386C471.212 666.243 474.169 665.768 476.264 666.66C477.731 668.491 477.347 668.965 477.623 671.577C473.624 670.441 470.934 670.072 468.806 666.386Z"/><path fill="#C5BDBA" transform="matrix(2.55009 0 0 2.54954 -395.263 -928.031)" d="M512.584 579.517L512.163 578.738C520.348 578.373 529.439 579.911 538.079 577.267L538.667 578.131C537.645 579.732 535.863 580.05 534.115 580.331C533.44 582.5 533.772 584.922 533.888 587.248C535.751 586.874 538.133 586.102 539.756 586.812C538.262 588.373 536.087 588.351 533.91 588.507C533.806 591.198 533.353 593.782 534.598 596.024C537.625 597.695 536.687 595.328 538.948 596.892L538.692 597.702C536.996 598.101 535.885 598.351 534.255 598.944C533.044 602.722 532.396 607.531 537.847 606.634L539.045 607.683C538.399 609.967 537.096 614.149 536.741 616.322L534.512 615.778L533.989 617.379C532.789 617.739 532.888 617.792 531.664 617.869C532.162 620.225 532.417 622.038 531.366 624.233L530.031 625.139C531.163 625.423 532.023 625.488 532.81 626.314L532.726 626.737C527.361 626.719 526.913 628.73 520.318 627.551L520.353 626.886C519.293 625.038 519.467 622.017 519.333 619.706C517.657 619.619 515.253 619.046 513.545 618.699C515.526 616.717 516.658 616.186 517.055 613.149C517.672 608.418 515.283 611.001 513.636 608.833C517.653 605.813 519.437 602.638 514.559 599.145C518.015 597.389 517.93 591.475 515.789 589.169L515.91 588.699C514.254 588.522 513.615 588.633 512.437 587.477C511.404 585.188 512.61 582.263 512.584 579.517Z"/><path fill="#FCBEA6" transform="matrix(2.55009 0 0 2.54954 -395.263 -928.031)" d="M530.031 625.139C527.211 625.899 527.079 625.947 525.516 623.787C524.68 618.903 528.158 618.411 531.664 617.869C532.162 620.225 532.417 622.038 531.366 624.233L530.031 625.139Z"/><path fill="#F3C3B0" transform="matrix(2.55009 0 0 2.54954 -395.263 -928.031)" d="M512.584 579.517C517.742 580.381 517.66 581.84 516.961 586.828C516.853 587.599 516.384 588.142 515.91 588.699C514.254 588.522 513.615 588.633 512.437 587.477C511.404 585.188 512.61 582.263 512.584 579.517Z"/><path fill="#FCBEA6" transform="matrix(2.55009 0 0 2.54954 -395.263 -928.031)" d="M519.333 619.706C521.928 619.191 521.9 618.741 523.978 619.726C526.29 623.581 524.373 626.056 520.353 626.886C519.293 625.038 519.467 622.017 519.333 619.706Z"/><path fill="#F3C3B0" transform="matrix(2.55009 0 0 2.54954 -395.263 -928.031)" d="M537.847 606.634L539.045 607.683C538.399 609.967 537.096 614.149 536.741 616.322L534.512 615.778C530.778 608.844 536.697 608.868 537.847 606.634Z"/><path fill="#FCBEA6" transform="matrix(2.55009 0 0 2.54954 -395.263 -928.031)" d="M518.106 590.127L524.772 589.943L524.77 598.029C522.595 598.192 520.421 598.62 518.728 597.472C517.527 595.455 518.005 592.641 518.106 590.127Z"/><path fill="#FCBEA6" transform="matrix(2.55009 0 0 2.54954 -395.263 -928.031)" d="M518.136 600.086C520.303 599.925 522.343 599.443 524.032 600.558C525.199 602.492 524.708 605.528 524.61 607.976L518.113 607.987L518.136 600.086Z"/><path fill="#FCBEA6" transform="matrix(2.55009 0 0 2.54954 -395.263 -928.031)" d="M517.809 580.4C520.042 580.399 522.049 580.116 523.879 581.222C525.156 583.102 524.796 585.792 524.797 588.234C522.656 588.314 520.457 588.702 518.75 587.646C517.543 585.828 517.847 582.769 517.809 580.4Z"/><path fill="#FCBEA6" transform="matrix(2.55009 0 0 2.54954 -395.263 -928.031)" d="M531.614 589.28L531.928 589.433C534.077 595.122 532.296 597.466 527.057 598.25C526.351 597.552 526.462 597.747 526.301 596.752C525.292 590.516 525.949 589.764 531.614 589.28Z"/><path fill="#FCBEA6" transform="matrix(2.55009 0 0 2.54954 -395.263 -928.031)" d="M531.66 599.206L531.99 599.3C533.398 601.344 532.845 604.23 531.705 606.317C530.93 607.736 528.959 607.747 527.464 608.055C526.268 607.168 526.408 607.306 526.137 605.764C525.098 599.863 526.941 599.579 531.66 599.206Z"/><path fill="#FCBEA6" transform="matrix(2.55009 0 0 2.54954 -395.263 -928.031)" d="M518.308 609.644C520.48 609.513 522.042 609.132 523.837 610.207C525.24 612.641 524.673 614.253 524.224 617.301C522.125 617.427 520.476 617.82 518.772 616.771C517.312 614.248 517.913 612.876 518.308 609.644Z"/><path fill="#FCBEA6" transform="matrix(2.55009 0 0 2.54954 -395.263 -928.031)" d="M528.315 579.834L531.165 580.02C533.985 583.544 533.102 586.838 528.874 588.354C527.564 588.204 527.629 588.271 526.572 587.502C525.411 584.164 524.659 581.317 528.315 579.834Z"/><path fill="#FCBEA6" transform="matrix(2.55009 0 0 2.54954 -395.263 -928.031)" d="M530.331 608.893L531.338 608.936L532.12 609.839C532.932 614.362 532.446 615.937 528.147 616.897L526.878 616.718C525.216 614.63 525.465 612.029 526.928 609.892C527.542 608.996 529.185 609.074 530.331 608.893Z"/><path fill="#F15E50" transform="matrix(2.55009 0 0 2.54954 -395.263 -928.031)" d="M539.959 603.656C540.769 598.53 541.547 593.399 542.293 588.264C543.87 589.27 545.057 589.969 545.799 591.794C545.464 595.676 545.193 600.787 544.263 604.465L540.904 604.557L539.959 603.656Z"/><path fill="#F3C3B0" transform="matrix(2.55009 0 0 2.54954 -395.263 -928.031)" d="M515.789 589.169C517.93 591.475 518.015 597.389 514.559 599.145L513.158 597.614C512.358 594.363 511.619 592.579 513.395 589.585L515.789 589.169Z"/><path fill="#C5BDBA" transform="matrix(2.55009 0 0 2.54954 -395.263 -928.031)" d="M418.504 581.477C418.541 577.093 419.126 571.879 413.647 570.191C412.646 569.883 412.313 569.897 411.585 569.129L412.12 568.848C417.136 569.784 423.758 573.937 429.398 575.503C436.26 577.525 441.755 578.687 449.004 578.693C452.755 578.696 458.482 578.21 462.04 578.685C460.751 580.002 459.463 580.056 457.418 580.32C457.431 582.192 457.21 587.015 458.042 588.322L463.929 588.493C462.842 589.408 459.356 589.63 457.641 589.896C457.534 592.763 457.113 595.786 458.144 598.355C459.041 599.062 459.233 599.341 460.301 599.692C459.57 599.873 457.927 600.095 457.916 600.573C457.821 604.829 457.603 613.87 457.607 617.699C459.791 617.473 462.437 616.955 464.434 617.584C462.527 618.588 461.899 618.569 459.719 618.925C458.58 619.566 458.196 619.443 458.107 620.419C457.117 631.267 457.648 642.815 457.441 653.721C457.382 656.812 457.881 661.237 457.254 663.759C455.536 664.214 454.718 663.45 452.809 662.367C452.39 662.101 447.508 660.062 446.028 659.246C436.119 653.786 423.074 646.723 416.988 637.012C417.909 636.153 418.149 635.785 418.711 634.658C418.359 630.856 418.297 629.42 418.596 625.638C416.959 623.889 414.019 622.755 411.764 621.669C411.797 623.144 411.978 625.188 411.548 626.536C411.228 624.6 410.15 622.18 410.033 621.366C409.269 616.068 412.361 615.556 407.72 610.962L408.054 610.337C411.377 611.185 414.454 614.443 417.853 615.656C420.744 611.346 411.682 610.165 408.173 606.49C409.472 605.566 409.426 605.461 410.197 604.124C410.415 602.066 410.46 601.958 409.884 600.011C408.543 599.345 407.589 599.052 406.744 597.83C407.904 597.447 407.822 597.603 409.144 597.808L409.584 597.879C410.163 596.839 409.886 591.409 409.944 589.514C407.556 587.917 405.186 586.295 402.832 584.648L410.092 587.726C409.924 584.729 410.112 581.831 410.246 578.835C408.299 577.523 405.864 576.35 404.649 574.501C406.246 574.39 408.623 576.033 410.16 576.896C410.181 574.778 410.009 572.556 410.745 570.626C411.48 573.202 411.276 575.155 411.231 577.827C413.639 579.13 416.043 580.283 418.504 581.477Z"/><path fill="#FCBEA6" transform="matrix(2.55009 0 0 2.54954 -395.263 -928.031)" d="M448.238 658.287C448.172 652.65 447.773 642.152 448.348 636.931C449.58 636.257 451.969 636.838 453.669 637.014C454.732 637.43 455.305 637.365 455.506 638.207C456.39 641.91 456.391 658.805 455.785 661.914C453.44 660.949 450.57 659.439 448.238 658.287Z"/><path fill="#FCBEA6" transform="matrix(2.55009 0 0 2.54954 -395.263 -928.031)" d="M418.596 625.638L420.196 625.986C422.424 627.071 425.723 628.547 427.807 629.707L428.135 645.77C425.566 643.502 422.299 640.777 419.99 638.34C419.771 636.714 419.85 635.802 418.711 634.658C418.359 630.856 418.297 629.42 418.596 625.638Z"/><path fill="#C5BDBA" transform="matrix(2.55009 0 0 2.54954 -395.263 -928.031)" d="M418.596 625.638L420.196 625.986C420.22 630.115 420.311 634.222 419.99 638.34C419.771 636.714 419.85 635.802 418.711 634.658C418.359 630.856 418.297 629.42 418.596 625.638Z"/><path fill="#E0BFB3" transform="matrix(2.55009 0 0 2.54954 -395.263 -928.031)" d="M456.036 619.494C457.171 619.226 458.544 619.086 459.719 618.925C458.58 619.566 458.196 619.443 458.107 620.419C457.117 631.267 457.648 642.815 457.441 653.721C457.382 656.812 457.881 661.237 457.254 663.759C455.536 664.214 454.718 663.45 452.809 662.367C454.351 662.813 454.596 662.792 456.147 662.908L455.785 661.914C456.391 658.805 456.39 641.91 455.506 638.207C455.305 637.365 454.732 637.43 453.669 637.014L453.862 636.228L455.181 636.002C456.596 634.157 455.768 630.944 454.846 629.03C454.242 627.774 452.817 627.86 451.478 627.555L454.954 627.163C456.283 626.035 455.998 621.36 456.036 619.494Z"/><path fill="#C5BDBA" transform="matrix(2.55009 0 0 2.54954 -395.263 -928.031)" d="M429.398 575.503C436.26 577.525 441.755 578.687 449.004 578.693C452.755 578.696 458.482 578.21 462.04 578.685C460.751 580.002 459.463 580.056 457.418 580.32L456.014 580.474C454.364 580.568 448.691 580.708 447.597 581.332L446.499 581.149C444.375 580.519 440.505 580.428 438.159 580.286C437.346 580.639 437.301 580.5 436.851 581.089L436.449 580.149C434.336 578.854 431.934 578.526 429.477 577.973L428.657 576.882L429.398 575.503Z"/><path fill="#FCBEA6" transform="matrix(2.55009 0 0 2.54954 -395.263 -928.031)" d="M447.597 581.332C448.691 580.708 454.364 580.568 456.014 580.474C456.279 583.287 456.61 585.874 456.426 588.699L447.939 588.828C447.851 586.549 447.815 583.537 447.597 581.332Z"/><path fill="#FCBEA6" transform="matrix(2.55009 0 0 2.54954 -395.263 -928.031)" d="M438.159 580.286C440.505 580.428 444.375 580.519 446.499 581.149L446.582 588.843C443.877 588.389 440.994 588.217 438.249 587.987C438.376 585.374 438.253 582.896 438.159 580.286Z"/><path fill="#FCBEA6" transform="matrix(2.55009 0 0 2.54954 -395.263 -928.031)" d="M453.862 636.228C450.222 635.717 445.45 634.257 448.11 628.607C448.683 627.392 450.065 627.657 451.478 627.555C452.817 627.86 454.242 627.774 454.846 629.03C455.768 630.944 456.596 634.157 455.181 636.002L453.862 636.228Z"/><path fill="#FCBEA6" transform="matrix(2.55009 0 0 2.54954 -395.263 -928.031)" d="M447.914 619.475C450.622 619.438 453.329 619.444 456.036 619.494C455.998 621.36 456.283 626.035 454.954 627.163C452.666 626.96 450.351 627.069 448.623 625.753C447.48 623.901 447.851 621.769 447.914 619.475Z"/><path fill="#FCBEA6" transform="matrix(2.55009 0 0 2.54954 -395.263 -928.031)" d="M429.477 577.973C431.934 578.526 434.336 578.854 436.449 580.149L436.851 581.089C436.85 583.137 437.08 584.703 436.144 586.47C433.894 587.285 432.154 586.46 429.457 585.94C429.531 583.384 429.474 580.554 429.477 577.973Z"/><path fill="#FCBEA6" transform="matrix(2.55009 0 0 2.54954 -395.263 -928.031)" d="M438.483 633.817C440.917 634.144 444.546 635.372 447.004 636.119C446.737 643.035 446.955 649.82 447.118 656.731C445.1 657.192 440.597 653.983 438.605 652.767C438.733 646.679 438.543 639.94 438.483 633.817Z"/><path fill="#FCBEA6" transform="matrix(2.55009 0 0 2.54954 -395.263 -928.031)" d="M429.598 630.483L437.042 632.955C437.133 639.062 437.104 645.253 437.128 651.367C433.985 649.947 432.3 648.376 429.636 646.203L429.598 630.483Z"/><path fill="#FCBEA6" transform="matrix(2.55009 0 0 2.54954 -395.263 -928.031)" d="M438.042 589.483C441.577 589.469 443.23 589.711 446.754 590.263L446.782 598.852L438.039 598.46L438.042 589.483Z"/><path fill="#FCBEA6" transform="matrix(2.55009 0 0 2.54954 -395.263 -928.031)" d="M438.167 599.673C440.561 600.141 444.354 600.066 446.929 600.099L446.516 609.238L438.032 608.542C437.997 605.553 438.084 602.658 438.167 599.673Z"/><path fill="#FCBEA6" transform="matrix(2.55009 0 0 2.54954 -395.263 -928.031)" d="M447.927 600.202L456.148 600.007C456.281 603.063 456.195 605.995 456.132 609.051L447.949 609.262C447.875 606.33 447.932 603.156 447.927 600.202Z"/><path fill="#FCBEA6" transform="matrix(2.55009 0 0 2.54954 -395.263 -928.031)" d="M448.048 590.093L456.29 590.035L456.17 598.866L448.083 598.979C447.909 596.208 448.02 592.911 448.048 590.093Z"/><path fill="#FCBEA6" transform="matrix(2.55009 0 0 2.54954 -395.263 -928.031)" d="M420.136 594.381L427.899 596.868C427.818 599.715 427.877 602.841 427.871 605.714C425.405 605.753 422.372 604.169 419.963 603.146L420.136 594.381Z"/><path fill="#FCBEA6" transform="matrix(2.55009 0 0 2.54954 -395.263 -928.031)" d="M419.889 583.903C422.136 584.888 425.737 586.043 428.145 586.898C427.861 589.028 427.909 593.148 427.878 595.438C425.263 594.579 422.663 593.673 420.081 592.721L419.889 583.903Z"/><path fill="#FCBEA6" transform="matrix(2.55009 0 0 2.54954 -395.263 -928.031)" d="M419.846 574.154C422.002 574.666 425.542 576.115 427.753 576.95L427.834 585.205C425.376 584.485 422.306 583.235 419.857 582.312L419.846 574.154Z"/><path fill="#FCBEA6" transform="matrix(2.55009 0 0 2.54954 -395.263 -928.031)" d="M429.588 597.619L436.995 599.28C436.681 601.74 436.672 605.465 436.594 608.034C434.118 607.96 431.942 607.278 429.534 606.673L429.588 597.619Z"/><path fill="#FCBEA6" transform="matrix(2.55009 0 0 2.54954 -395.263 -928.031)" d="M429.578 587.512C431.901 587.875 434.643 588.495 436.986 588.968C436.652 591.422 436.676 595.313 436.62 597.894C434.174 597.4 431.763 596.751 429.347 596.127L429.578 587.512Z"/><path fill="#FCBEA6" transform="matrix(2.55009 0 0 2.54954 -395.263 -928.031)" d="M411.394 579.672L418.492 583.114C418.401 585.979 418.474 589.199 418.476 592.096L411.389 588.689L411.394 579.672Z"/><path fill="#FCBEA6" transform="matrix(2.55009 0 0 2.54954 -395.263 -928.031)" d="M411.346 590.188L418.472 593.633L418.302 602.298C416.301 601.561 413.441 600.219 411.414 599.336L411.346 590.188Z"/><path fill="#FCBEA6" transform="matrix(2.55009 0 0 2.54954 -395.263 -928.031)" d="M438.022 610.027C440.616 610.071 444.196 610.517 446.861 610.773L446.871 617.659C444.149 617.667 440.986 617.306 438.236 617.061C438.298 614.68 438.144 612.402 438.022 610.027Z"/><path fill="#FCBEA6" transform="matrix(2.55009 0 0 2.54954 -395.263 -928.031)" d="M447.85 610.592L456.225 610.488L456.191 617.89L447.812 618.007C447.866 615.575 447.839 613.035 447.85 610.592Z"/><path fill="#FCBEA6" transform="matrix(2.55009 0 0 2.54954 -395.263 -928.031)" d="M438.362 625.283L446.888 627.253C446.666 629.516 446.855 632.135 446.938 634.437C444.471 634.074 440.724 632.798 438.229 632.03L438.362 625.283Z"/><path fill="#FCBEA6" transform="matrix(2.55009 0 0 2.54954 -395.263 -928.031)" d="M419.974 604.897C422.301 605.574 425.521 606.882 427.872 607.756L427.866 614.481C420.481 612.2 419.838 612.608 419.974 604.897Z"/><path fill="#FCBEA6" transform="matrix(2.55009 0 0 2.54954 -395.263 -928.031)" d="M438.376 618.255C440.79 618.749 444.263 618.986 446.813 619.231C446.936 621.31 446.948 623.765 447.006 625.875C444.294 625.384 441.108 625.157 439.042 623.557C437.851 621.337 438.288 620.996 438.376 618.255Z"/><path fill="#FCBEA6" transform="matrix(2.55009 0 0 2.54954 -395.263 -928.031)" d="M429.528 622.246L436.982 624.738L436.985 631.388C429.645 629.463 429.207 629.862 429.528 622.246Z"/><path fill="#FCBEA6" transform="matrix(2.55009 0 0 2.54954 -395.263 -928.031)" d="M429.525 608.065C431.82 608.534 433.766 608.79 435.872 609.816C437.213 612.106 436.722 613.124 436.734 616.115C429.831 618.279 429.314 612.937 429.525 608.065Z"/><path fill="#FCBEA6" transform="matrix(2.55009 0 0 2.54954 -395.263 -928.031)" d="M420.021 618.294C421.588 618.731 426.352 620.97 428.089 621.742L427.858 628.013C425.567 627.165 422.397 625.389 420.129 624.202C420.043 622.22 420.037 620.276 420.021 618.294Z"/><path fill="#FCBEA6" transform="matrix(2.55009 0 0 2.54954 -395.263 -928.031)" d="M411.477 600.866C413.825 601.85 416.163 602.856 418.492 603.884L418.407 610.761C411.457 608.002 411.286 608.294 411.477 600.866Z"/><path fill="#FCBEA6" transform="matrix(2.55009 0 0 2.54954 -395.263 -928.031)" d="M411.334 613.845C417.894 616.703 418.617 616.449 418.424 623.645C412.115 620.657 411.853 620.836 411.334 613.845Z"/><path fill="#FCBEA6" transform="matrix(2.55009 0 0 2.54954 -395.263 -928.031)" d="M429.363 616.638C431.947 617.353 433.562 616.971 436.144 618.298C437.292 620.166 436.879 620.75 436.85 623.207C431.524 621.924 429.44 622.459 429.363 616.638Z"/><path fill="#F3C3B0" transform="matrix(2.55009 0 0 2.54954 -395.263 -928.031)" d="M419.298 613.286C424.149 613.851 427.901 614.482 428.207 619.747C426.487 619.916 423.079 618.492 421.703 617.475C419.464 615.821 419.844 615.736 419.298 613.286Z"/><path fill="#C5BDBA" transform="matrix(2.55009 0 0 2.54954 -395.263 -928.031)" d="M503.25 597.097C500.338 598.564 491.863 598.928 488.561 598.573C484.997 595.526 484.788 572.802 483.713 567.351C483.17 564.6 481.279 552.164 482.411 550.121C485.85 548.263 493.195 548.708 497.312 548.726C497.513 551.663 496.718 555.763 497.105 557.646C498.531 559.711 498.936 572.416 500.194 577.684C501.664 581.829 503.091 586.058 504.838 590.089C503.329 591.642 502.801 592.501 500.754 592.975L503.25 597.097Z"/><path fill="#FC7366" transform="matrix(2.55009 0 0 2.54954 -395.263 -928.031)" d="M497.105 557.646C498.531 559.711 498.936 572.416 500.194 577.684C498.467 578.978 498.206 580.574 497.46 582.682C495.05 574.415 495.115 565.959 497.105 557.646Z"/><path fill="#F15E50" transform="matrix(2.55009 0 0 2.54954 -395.263 -928.031)" d="M497.46 582.682C498.206 580.574 498.467 578.978 500.194 577.684C501.664 581.829 503.091 586.058 504.838 590.089C503.329 591.642 502.801 592.501 500.754 592.975C498.954 589.258 498.149 586.703 497.46 582.682Z"/><path fill="#FC7366" transform="matrix(2.55009 0 0 2.54954 -395.263 -928.031)" d="M370.999 574.198C373.874 574.275 374.876 574.45 377.417 575.99C383.236 579.517 391.332 600.005 387.535 605.099C385.635 605.577 384.413 604.978 382.501 604.409C370.135 599.018 350.529 585.371 370.999 574.198Z"/><path fill="#34514E" transform="matrix(2.55009 0 0 2.54954 -395.263 -928.031)" d="M443.091 553.845C449.387 553.344 460.8 554.695 463.427 561.59L462.881 562.369C460.528 562.392 458.782 560.969 456.674 559.697C457.54 566.082 457.179 569.827 451.41 573.563C440.143 574.175 438.297 569.031 439.377 558.862C435.497 560.019 431.251 560.986 427.299 561.964C432.936 556.699 435.565 555.419 443.091 553.845Z"/><path fill="#34514E" transform="matrix(2.55009 0 0 2.54954 -395.263 -928.031)" d="M521.974 556.192C527.605 555.942 538.581 558.658 539.747 565.058L538.984 565.774C536.56 565.575 534.88 563.94 532.826 562.436C532.606 568.765 532.966 571.538 527.577 575.608C516.613 578.104 514.621 569.445 516.205 560.803C513.006 562.641 511.176 563.54 507.782 564.995C512.678 559.642 514.669 557.618 521.974 556.192Z"/><path fill="#34514E" transform="matrix(2.55009 0 0 2.54954 -395.263 -928.031)" d="M447.779 534.027C451.745 533.786 456.39 533.829 460.407 533.903C464.571 533.98 473.446 533.053 475.028 537.653C472.697 544.799 454.211 541.481 447.252 541.351C437.184 541.182 429.577 542.053 419.901 544.369C430.327 537.42 435.241 534.868 447.779 534.027Z"/><path fill="#34514E" transform="matrix(2.55009 0 0 2.54954 -395.263 -928.031)" d="M516.042 536.379C524.6 536.297 538.443 536.041 544.221 543.287C545.144 544.444 544.932 544.489 544.663 545.683C542.625 546.529 542.062 545.949 539.575 545.397C532.612 544.228 512.444 546.364 508.775 541.103C509.073 536.705 512.516 536.809 516.042 536.379Z"/><path fill="#FC7366" transform="matrix(2.55009 0 0 2.54954 -395.263 -928.031)" d="M504.838 590.089C507.564 595.05 510.354 599.024 510.914 604.639C508.681 607.798 507.118 609.114 504.068 611.56C502.786 612.751 499.848 614.516 497.979 614.605C495.309 612.419 499.557 607.927 501.02 606.046C498.483 606.89 486.762 611.495 485.281 611.241C483.795 605.533 500.737 601.423 504.625 600.435L504.88 599.545L503.25 597.097L500.754 592.975C502.801 592.501 503.329 591.642 504.838 590.089Z"/><path fill="#F15E50" transform="matrix(2.55009 0 0 2.54954 -395.263 -928.031)" d="M504.068 611.56C503.532 611.041 503.273 610.524 502.85 609.88C503.297 605.688 506.806 603.167 510.914 604.639C508.681 607.798 507.118 609.114 504.068 611.56Z"/><path fill="#FC7366" transform="matrix(2.55009 0 0 2.54954 -395.263 -928.031)" d="M483.353 625.992C484.556 625.849 485.763 625.738 486.972 625.658C490.972 625.4 505.81 626.659 505.758 631.94C502.732 633.873 494.993 632.228 491.177 631.722C482.3 631.4 473.433 632.361 464.589 633.2C471.613 628.606 475.072 627.195 483.353 625.992Z"/><path fill="#FC7366" transform="matrix(2.55009 0 0 2.54954 -395.263 -928.031)" d="M484.312 638.139C487.33 637.902 494.535 637.49 496.831 639.424L495.641 640.412C492.552 641.037 485.63 642.444 483.676 639.558L484.312 638.139Z"/><path fill="#FCBEA6" transform="matrix(2.55009 0 0 2.54954 -395.263 -928.031)" d="M483.087 479.371L483.122 479.838C476.961 492.14 432.128 520.684 418.95 529.132L418.926 528.206C424.727 522.705 434.538 515.931 441.056 511.017C455.129 500.408 469.352 490.46 483.087 479.371Z"/><path fill="#C5BDBA" transform="matrix(2.55009 0 0 2.54954 -395.263 -928.031)" d="M496.552 491.49C497.419 492.075 503.39 498.037 504.259 499.093C511.491 507.895 524.869 515.796 531.992 523.932C521.193 519.111 503.875 501.099 496.552 491.49Z"/><defs><linearGradient id="gradient_2" gradientUnits="userSpaceOnUse" x1="267.57767" y1="745.68884" x2="272.37772" y2="753.1933"><stop offset="0" stop-color="#DFFBFF" stop-opacity="0"/><stop offset="1" stop-color="#BDD9DF" stop-opacity="0.062745102"/></linearGradient></defs><path fill="url(#gradient_2)" transform="matrix(2.55009 0 0 2.54954 -395.263 -928.031)" d="M271.488 744.217C273.882 741.871 273.901 741.371 276.922 742.411C272.433 748.747 268.055 755.162 263.791 761.652C265.084 757.923 269.15 747.129 271.488 744.217Z"/><path fill="#FCBEA6" transform="matrix(2.55009 0 0 2.54954 -395.263 -928.031)" d="M545.799 591.794C551.224 600.438 554.8 606.375 559.36 615.406C561.923 620.482 566.676 631.176 569.231 635.224C572.555 643.733 577.556 650.553 579.801 658.983C581.17 664.124 580.433 670.872 580.748 675.974C581.46 687.484 579.446 719.174 583.602 728.674C590.87 744.509 597.855 761.221 606.829 776.114C607.445 777.137 614.677 781.561 616.025 782.233C645.521 796.927 650.7 832.551 657.897 861.719C661.46 876.052 665.355 890.301 669.58 904.454C671.621 911.141 673.813 918.378 676.604 924.791C683.638 940.952 692.672 955.948 696.781 973.236C700.644 989.486 698.48 1000.11 687.223 1012.45C673.302 1012.56 659.381 1012.58 645.46 1012.51C639.912 1012.5 628.018 1012.22 622.977 1012.91L616.261 1013.09C610.015 993.935 603.467 974.884 596.62 955.94C596.792 955.549 596.957 955.156 597.118 954.761C603.713 938.389 596.76 915.19 588.901 900.273C582.773 888.644 570.168 873.305 569.573 859.777C569.306 853.692 567.708 816.859 569.171 813.243C568.83 811.28 568.256 809.288 567.682 807.378C563.859 794.639 560.701 781.302 555.987 768.863C553.854 769.572 548.254 768.175 545.71 767.704C535.444 765.584 527.343 763.107 517.335 760.092C496.773 751.29 492.271 741.741 490.808 719.338C489.986 706.744 490.294 694.469 490.425 681.859L490.609 678.725C495.684 678.409 499.628 676.444 503.697 673.621C507.01 670.648 508.821 668.441 511.658 665.073L514.719 661.233C516.477 657.996 518.535 654.797 520.485 651.661C524.137 645.907 527.267 639.67 530.424 633.616C531.313 631.685 532.083 628.828 532.726 626.737L532.81 626.314C532.023 625.488 531.163 625.423 530.031 625.139L531.366 624.233C532.417 622.038 532.162 620.225 531.664 617.869C532.888 617.792 532.789 617.739 533.989 617.379L534.512 615.778L536.741 616.322C537.096 614.149 538.399 609.967 539.045 607.683L539.959 603.656L540.904 604.557L544.263 604.465C545.193 600.787 545.464 595.676 545.799 591.794Z"/><path fill="#34514E" transform="matrix(2.55009 0 0 2.54954 -395.263 -928.031)" d="M514.719 661.233C523.774 673.825 526.982 678.652 524.781 694.577C522.165 713.507 530.757 725.484 545.308 736.551C548.97 746.593 552.814 758.596 555.987 768.863C553.854 769.572 548.254 768.175 545.71 767.704C535.444 765.584 527.343 763.107 517.335 760.092C496.773 751.29 492.271 741.741 490.808 719.338C489.986 706.744 490.294 694.469 490.425 681.859L490.609 678.725C495.684 678.409 499.628 676.444 503.697 673.621C507.01 670.648 508.821 668.441 511.658 665.073L514.719 661.233Z"/><path fill="#FC7366" transform="matrix(2.55009 0 0 2.54954 -395.263 -928.031)" d="M596.62 955.94C596.792 955.549 596.957 955.156 597.118 954.761C603.713 938.389 596.76 915.19 588.901 900.273C582.773 888.644 570.168 873.305 569.573 859.777C569.306 853.692 567.708 816.859 569.171 813.243C576.263 835.93 581.675 858.16 588.111 880.962C598.443 916.623 607.901 952.532 616.476 988.656C618.476 996.807 621.128 1004.7 622.977 1012.91L616.261 1013.09C610.015 993.935 603.467 974.884 596.62 955.94Z"/><path fill="#FC7366" transform="matrix(2.55009 0 0 2.54954 -395.263 -928.031)" d="M514.719 661.233C516.477 657.996 518.535 654.797 520.485 651.661C532.004 658.857 538.62 680.759 545.364 682.621C545.04 699.624 540.18 720.096 545.308 736.551C530.757 725.484 522.165 713.507 524.781 694.577C526.982 678.652 523.774 673.825 514.719 661.233Z"/><path fill="#34514E" transform="matrix(2.55009 0 0 2.54954 -395.263 -928.031)" d="M530.424 633.616L530.975 635.031C534.764 648.524 546.688 669.605 545.364 682.621C538.62 680.759 532.004 658.857 520.485 651.661C524.137 645.907 527.267 639.67 530.424 633.616Z"/><path fill="#FC7366" transform="matrix(2.55009 0 0 2.54954 -395.263 -928.031)" d="M539.045 607.683L539.959 603.656L540.904 604.557L544.263 604.465L544.44 605.07C546.976 613.539 552.726 621.437 555.951 629.222C558.369 635.063 564.764 651.687 565.304 657.704L564.674 657.586C563.111 654.109 560.829 649.104 559.707 645.511C555.601 632.366 547.849 620.953 542.884 608.236C541.432 613.609 540.175 616.873 538.137 622.025C545.33 635.994 552.195 649.867 556.977 664.915C551.994 659.582 539.97 632.428 536.679 624.905C535.213 627.927 533.186 632.728 530.975 635.031L530.424 633.616C531.313 631.685 532.083 628.828 532.726 626.737L532.81 626.314C532.023 625.488 531.163 625.423 530.031 625.139L531.366 624.233C532.417 622.038 532.162 620.225 531.664 617.869C532.888 617.792 532.789 617.739 533.989 617.379L534.512 615.778L536.741 616.322C537.096 614.149 538.399 609.967 539.045 607.683Z"/><path fill="#E0BFB3" transform="matrix(2.55009 0 0 2.54954 -395.263 -928.031)" d="M534.512 615.778L536.741 616.322C535.972 618.409 533.796 624.719 532.81 626.314C532.023 625.488 531.163 625.423 530.031 625.139L531.366 624.233C532.417 622.038 532.162 620.225 531.664 617.869C532.888 617.792 532.789 617.739 533.989 617.379L534.512 615.778Z"/><path fill="#FCBEA6" transform="matrix(2.55009 0 0 2.54954 -395.263 -928.031)" d="M401.395 629.728C419.427 650.579 433.465 662.961 459.981 672.586C473.648 677.547 476.743 677.364 490.609 678.725L490.425 681.859C490.294 694.469 489.986 706.744 490.808 719.338C492.271 741.741 496.773 751.29 517.335 760.092C527.343 763.107 535.444 765.584 545.71 767.704C545.172 774.77 543.346 805.77 541.571 810.659C539.194 827.58 540.881 839.984 529.492 854.502C515.318 872.568 492.659 880.976 470.483 883.564C440.413 887.072 404.641 883.857 380.196 864.332C373.358 858.869 367.263 852.084 363.347 844.209C354.908 827.238 352.003 786.599 349.803 766.674C359.69 765.049 373.487 761.464 382.421 756.908C392.324 751.858 396.571 745.713 399.847 735.503C402.152 717.798 401.474 701.02 401.467 683.159C401.46 665.792 402.07 646.962 401.395 629.728Z"/><path fill="#FC7366" transform="matrix(2.55009 0 0 2.54954 -395.263 -928.031)" d="M401.395 629.728C419.427 650.579 433.465 662.961 459.981 672.586C473.648 677.547 476.743 677.364 490.609 678.725L490.425 681.859C466.024 707.344 438.778 736.914 400.991 738.623C400.644 738.639 400.348 738.553 400.022 738.476L400.723 736.203C400.045 735.512 400.389 735.656 399.847 735.503C402.152 717.798 401.474 701.02 401.467 683.159C401.46 665.792 402.07 646.962 401.395 629.728Z"/><path fill="#FC7366" transform="matrix(2.55009 0 0 2.54954 -395.263 -928.031)" d="M517.335 760.092C527.343 763.107 535.444 765.584 545.71 767.704C545.172 774.77 543.346 805.77 541.571 810.659C539.381 804.053 533.619 794.373 531.816 787.691L530.982 786.838C525.991 778.155 521.436 769.229 517.335 760.092Z"/><path fill="#FC7366" transform="matrix(2.55009 0 0 2.54954 -395.263 -928.031)" d="M530.982 786.838L531.816 787.691C527.44 789.234 479.816 789.339 474.837 788.142C477.804 787.307 484.025 787.42 487.375 787.147C502.325 785.929 516.232 786.611 530.982 786.838Z"/><path fill="#FC7366" transform="matrix(2.55009 0 0 2.54954 -395.263 -928.031)" d="M371.048 786.591C379.006 785.83 411.848 786.629 419.871 788.166C416.46 788.783 412.47 788.704 408.961 788.754C402.324 788.88 363.357 789.211 359.271 787.534C362.867 786.7 367.298 786.719 371.048 786.591Z"/><path fill="#FCBEA6" transform="matrix(2.55009 0 0 2.54954 -395.263 -928.031)" d="M246.932 804.398C267.531 779.917 296.612 778.812 326.241 772.196C328.24 790.431 332.919 850.5 329.462 866.219C327.61 874.639 323.357 882.506 317.991 889.194C316.172 891.46 314.095 894.57 311.825 896.347C310.331 898.177 310.026 898.327 307.916 899.42C305.482 910.664 302.041 921.309 301.712 932.902C301.694 933.523 301.729 933.321 301.467 933.846C299.493 939.42 297.864 951.734 296.624 958.038C293.1 975.961 290.512 995.33 286.27 1012.99C278.033 1012.32 265.884 1012.67 257.412 1012.71L207.878 1012.98C208.241 1004.86 210.415 991.426 211.605 983.118C214.151 965.142 216.826 947.185 219.629 929.248C222.94 906.776 226.409 884.327 230.038 861.904C232.147 848.835 234.41 835.01 237.588 822.154C239.015 816.383 244.362 810.024 246.932 804.398Z"/><path fill="#FC7366" transform="matrix(2.55009 0 0 2.54954 -395.263 -928.031)" d="M307.916 899.42C308.557 895.77 310.632 881.092 312.869 879.362L312.245 880.055L313.177 880.576C313.469 886.902 313.069 890.119 311.825 896.347C310.331 898.177 310.026 898.327 307.916 899.42Z"/></g></svg>