<?xml version="1.0" encoding="utf-8" ?><svg xmlns="http://www.w3.org/2000/svg" xmlns:xlink="http://www.w3.org/1999/xlink" width="2209" height="1521" viewBox="0 0 2209 1521"><clipPath id="cl_7"><rect x="-0.00048828125" width="2209" height="1521"/></clipPath><g clip-path="url(#cl_7)"><path fill="#FC7E7A" transform="matrix(2.4654 0 0 2.46515 -0.000488281 -655.731)" d="M311.613 382.564C313.696 379.462 315.832 373.168 317.366 369.561C333.222 332.281 364.536 303.85 404.295 294.549C420.756 290.699 432.273 291.202 448.397 297.026C469.279 290.256 483.003 290.55 504.029 297.63C545.664 311.649 573.115 347.929 586.105 388.652C600.568 435.147 600.803 485.139 608.973 532.893C612.382 552.981 616.606 573.848 620.984 593.746C630.891 638.77 641.149 681.956 608.094 720.445C635.93 729.238 665.581 739.867 678.688 767.346C687.064 784.907 692.698 804.044 696.691 822.998C704.52 860.16 709.606 898.397 715.7 935.851C721.566 971.215 726.815 1006.68 731.447 1042.22C734.399 1063.99 738.335 1087.35 738.655 1108.95C739.099 1138.86 724.943 1167.63 709.605 1192.41C708.105 1194.83 706.781 1197.39 705.578 1200L607.945 1200L291.121 1200L193.503 1200C186.592 1189.46 181.568 1177.7 175.357 1166.94C153.019 1128.24 160.026 1090.53 166.447 1048.1C169.026 1029.97 171.703 1011.85 174.476 993.743C179.462 959.396 184.836 925.107 190.599 890.882C197.186 849.461 201.543 807.002 219.91 768.617C233.146 740.954 262.09 729.668 289.476 720.875C271.027 696.264 267.169 670.857 270.402 640.951C267.305 636.386 262.628 626.567 260.278 621.533C242.692 584.092 236.994 542.164 243.949 501.388C249.867 467.131 264.36 434.928 286.077 407.778C294.559 397.133 300.339 390.452 311.613 382.564ZM650.24 1106.79C647.781 1098.16 646.007 1087.26 643.771 1078.26C635.848 1046.34 629.305 1013.21 621.338 981.363C604.783 1029.92 604.097 1090.8 613.433 1140.74C615.082 1149.56 617.759 1165.51 620.22 1173.89C621.939 1170.71 623.375 1167.24 624.729 1163.88C632.495 1144.64 643.015 1126.23 650.24 1106.79ZM248.902 1107.3C257.606 1128.66 269.667 1152.19 279.338 1173.61C282.06 1165.27 284.516 1146.84 286.046 1137.91C292.62 1100.24 293.412 1062.36 287.758 1024.58C285.167 1007.26 282.547 997.152 277.44 980.373C272.507 1000.22 268.916 1021.51 264.33 1041.58C261.709 1053.05 258.724 1064.24 256.006 1075.64C253.392 1086.6 252.783 1096.38 248.902 1107.3Z"/><path fill="#323E4A" transform="matrix(2.4654 0 0 2.46515 -0.000488281 -655.731)" d="M311.613 382.564C313.696 379.462 315.832 373.168 317.366 369.561C333.222 332.281 364.536 303.85 404.295 294.549C420.756 290.699 432.273 291.202 448.397 297.026C469.279 290.256 483.003 290.55 504.029 297.63C545.664 311.649 573.115 347.929 586.105 388.652C600.568 435.147 600.803 485.139 608.973 532.893C612.382 552.981 616.606 573.848 620.984 593.746C630.891 638.77 641.149 681.956 608.094 720.445C601.996 718.981 597.235 717.563 591.254 715.642C590.168 714.25 589.93 713.604 588.023 713.082C582.793 711.65 563.063 705.107 559.361 706.726C550.496 705.058 531.646 695.98 523.931 690.669C510.337 681.312 507.625 672.252 504.821 657.054C501.892 640.449 502.241 621.19 502.746 604.379C468.028 632.595 444.282 642.631 404.385 613.312C401.48 611.177 397.725 608.031 394.778 606.108C394.916 608.681 395.019 613.253 395.338 615.655C395.688 634.757 396.408 669.181 382.633 683.729C375.431 691.335 348.678 705.544 338.644 706.766C335.485 705.146 308.368 712.38 307.337 715.755C301.678 717.386 295.11 719.466 289.476 720.875C271.027 696.264 267.169 670.857 270.402 640.951C267.305 636.386 262.628 626.567 260.278 621.533C242.692 584.092 236.994 542.164 243.949 501.388C249.867 467.131 264.36 434.928 286.077 407.778C294.559 397.133 300.339 390.452 311.613 382.564Z"/><path fill="#FDC5A8" transform="matrix(2.4654 0 0 2.46515 -0.000488281 -655.731)" d="M345.156 495.585C345.387 482.671 344.936 470.667 349.558 458.303C357.493 436.413 377.377 425.177 395.015 412.114C413.531 398.4 435.415 381.714 445.963 360.694C449.238 354.167 445.434 331.314 449.144 325.334L450.107 325.234C453.155 327.923 451.687 351.299 453.067 356.908C456.934 372.628 472.009 384.729 483.104 395.693C502.652 414.69 531.039 426.192 544.73 450.331C552.97 464.86 550.63 481.882 552.526 497.079C553.092 496.286 554.098 494.459 554.635 493.543C555.736 489.493 557.794 477.376 560.039 475.482C569.127 473.63 577.297 483.153 578.712 491.759C581.968 511.546 563.856 544.862 540.951 542.134C534.27 562.294 530.347 573.794 515.819 590.392C513.247 593.331 504.172 602.457 502.746 604.379C468.028 632.595 444.282 642.631 404.385 613.312C401.48 611.177 397.725 608.031 394.778 606.108C393.911 604.663 384.27 595.534 382.016 592.998C366.831 575.917 361.52 563.609 354.982 542.132C319.388 545.509 300.815 473.344 336.082 475.373C338.497 476.786 341.42 489.904 343.026 494.368L345.156 495.585Z"/><path fill="#FC7E7A" transform="matrix(2.4654 0 0 2.46515 -0.000488281 -655.731)" d="M345.156 495.585C341.797 499.053 353.097 520.651 347.394 523.335C342.503 521.096 342.945 497.335 332.259 495.535C329.886 496.923 329.558 498.574 327.815 501.184L326.786 501.191L325.93 499.928C325.782 491.452 327.663 486.904 337.258 490.54C339.423 491.361 340.789 493.306 343.026 494.368L345.156 495.585Z"/><path fill="#FC7E7A" transform="matrix(2.4654 0 0 2.46515 -0.000488281 -655.731)" d="M554.635 493.543C558.083 491.165 564.142 486.275 567.77 491.508C569.217 493.595 570.157 496.354 569.903 498.927L569.093 500.141L568.257 500.29L567.836 499.736C557.664 486.463 553.622 512.299 551.541 518.467C550.797 520.672 550.346 521.387 548.226 522.241L547.28 521.65C545.979 514.77 552.487 501.382 552.526 497.079C553.092 496.286 554.098 494.459 554.635 493.543Z"/><path fill="#323E4A" transform="matrix(2.4654 0 0 2.46515 -0.000488281 -655.731)" d="M389.553 472.397C398.848 471.596 412.241 475.217 415.811 484.792L415.331 485.615C412.518 485.846 407.344 481.187 404.376 479.21C406.54 487.563 406.266 493.202 397.908 497.795C396.158 497.892 394.078 497.799 392.439 497.156C389.866 496.166 387.804 494.177 386.72 491.643C384.54 486.558 385.628 482.393 387.573 477.627C381.757 479.78 379.48 482.464 374.302 484.22C373.709 484.421 373.15 483.599 372.519 483.002C372.021 477.754 385.237 473.314 389.553 472.397Z"/><path fill="#323E4A" transform="matrix(2.4654 0 0 2.46515 -0.000488281 -655.731)" d="M497.955 472.425C506.742 471.819 516.392 473.173 522.256 480.822C523.261 482.131 523.658 482.568 523.448 484.106C520.173 484.917 514.006 479.543 508.96 477.765L508.196 477.502C511.505 485.05 511.633 489.462 505.917 495.896C494.254 502.782 488.689 490.034 491.66 479.235C488.595 481.168 484.131 485.215 480.732 484.661L480.667 483.7C484.58 477.311 490.976 474.207 497.955 472.425Z"/><path fill="#323E4A" transform="matrix(2.4654 0 0 2.46515 -0.000488281 -655.731)" d="M392.835 445.553C399.391 445.55 419.82 446.398 421.931 453.481C421.669 454.742 421.4 455.525 420.431 456.422C418.024 458.647 397.596 454.548 392.2 454.408C383.131 454.408 377.403 456.129 368.622 457.468C367.016 457.713 365.182 457.738 363.87 456.69L364.07 455.583C370.737 448.156 383.432 446.178 392.835 445.553Z"/><path fill="#323E4A" transform="matrix(2.4654 0 0 2.46515 -0.000488281 -655.731)" d="M500.751 445.574C510.336 445.785 525.968 448.549 532.373 456.278L532.134 457.094C528.096 458.456 513.437 454.655 506.293 454.248C503.025 454.178 499.757 454.354 496.516 454.777C491.937 455.367 477.783 458.716 475.902 457.063C464.748 447.257 497.25 445.752 500.751 445.574Z"/><path fill="#FC7E7A" transform="matrix(2.4654 0 0 2.46515 -0.000488281 -655.731)" d="M438.048 480.614C446.872 482.127 442.885 507.5 442.283 513.922C441.764 519.459 437.62 529.28 438.392 534.43C439.251 540.151 454.08 538.676 456.679 540.394L456.788 541.659L455.411 543.126C445.142 547.259 429.976 541.854 433.335 528.738C436.155 517.727 439.694 510.273 438.684 498.401C438.321 494.13 437.357 484.357 438.048 480.614Z"/><path fill="#FC7E7A" transform="matrix(2.4654 0 0 2.46515 -0.000488281 -655.731)" d="M432.619 567.455C437.286 567.181 443.066 568.043 448.061 568.08C456.948 568.146 466.256 567.2 475.072 567.898C476.792 568.034 477.554 568.292 478.418 569.466C475.649 572.898 467.957 572.419 463.691 572.559C451.14 573.884 432.553 573.437 419.687 571.759C418.332 571.582 418.111 570.736 417.591 569.792L418.162 568.771C421.431 567.203 428.698 567.505 432.619 567.455Z"/><path fill="#FC7E7A" transform="matrix(2.4654 0 0 2.46515 -0.000488281 -655.731)" d="M436.947 583.232C444.728 584.136 451.046 583.956 458.871 583.556C460.215 583.487 460.283 583.914 460.962 584.799L460.315 586.229C455.675 587.878 436.797 590.415 435.919 584.314L436.947 583.232Z"/><path fill="#FDE0DD" transform="matrix(2.4654 0 0 2.46515 -0.000488281 -655.731)" d="M311.613 382.564C311.261 386.502 307.912 396.256 306.815 400.743C304.297 411.039 302.006 421.008 300.505 431.535C295.597 465.943 293.703 501.001 289.077 535.426C284.301 570.971 275.837 605.407 270.402 640.951C267.305 636.386 262.628 626.567 260.278 621.533C242.692 584.092 236.994 542.164 243.949 501.388C249.867 467.131 264.36 434.928 286.077 407.778C294.559 397.133 300.339 390.452 311.613 382.564Z"/><path fill="#FDC5A8" transform="matrix(2.4654 0 0 2.46515 -0.000488281 -655.731)" d="M591.254 715.642C597.235 717.563 601.996 718.981 608.094 720.445C635.93 729.238 665.581 739.867 678.688 767.346C687.064 784.907 692.698 804.044 696.691 822.998C704.52 860.16 709.606 898.397 715.7 935.851C721.566 971.215 726.815 1006.68 731.447 1042.22C734.399 1063.99 738.335 1087.35 738.655 1108.95C739.099 1138.86 724.943 1167.63 709.605 1192.41C708.105 1194.83 706.781 1197.39 705.578 1200L607.945 1200C611.97 1192.3 616.396 1181.98 620.22 1173.89C621.939 1170.71 623.375 1167.24 624.729 1163.88C632.495 1144.64 643.015 1126.23 650.24 1106.79C647.781 1098.16 646.007 1087.26 643.771 1078.26C635.848 1046.34 629.305 1013.21 621.338 981.363C621.852 978.552 623.115 974.446 624 971.644C632.959 943.26 632.048 909.449 621.139 881.573C623.708 867.589 625.969 853.524 629.207 839.703C629.872 836.868 631.491 830.714 629.949 828.279L628.748 828.556C624.87 831.685 618.216 867.437 616.986 873.76C596.027 830.345 592.651 787.226 591.318 739.882C591.18 735.014 589.802 719.686 591.254 715.642Z"/><path fill="#FDC5A8" transform="matrix(2.4654 0 0 2.46515 -0.000488281 -655.731)" d="M289.476 720.875C295.11 719.466 301.678 717.386 307.337 715.755C307.027 754.929 305.394 801.671 294.939 839.303C291.596 851.34 286.69 862.023 281.502 873.324C280.389 866.244 274.561 832.09 270.025 828.724C265.439 829.735 270.256 841.542 270.9 845.025C272.436 853.331 274.169 861.604 275.549 869.941C278.573 883.353 274.634 890.18 271.671 903.516C265.583 930.927 268.918 953.721 277.44 980.373C272.507 1000.22 268.916 1021.51 264.33 1041.58C261.709 1053.05 258.724 1064.24 256.006 1075.64C253.392 1086.6 252.783 1096.38 248.902 1107.3C257.606 1128.66 269.667 1152.19 279.338 1173.61C280.565 1180.1 288.411 1193.32 291.121 1200L193.503 1200C186.592 1189.46 181.568 1177.7 175.357 1166.94C153.019 1128.24 160.026 1090.53 166.447 1048.1C169.026 1029.97 171.703 1011.85 174.476 993.743C179.462 959.396 184.836 925.107 190.599 890.882C197.186 849.461 201.543 807.002 219.91 768.617C233.146 740.954 262.09 729.668 289.476 720.875Z"/><path fill="#FDC5A8" transform="matrix(2.4654 0 0 2.46515 -0.000488281 -655.731)" d="M394.778 606.108C397.725 608.031 401.48 611.177 404.385 613.312C444.282 642.631 468.028 632.595 502.746 604.379C502.241 621.19 501.892 640.449 504.821 657.054C507.625 672.252 510.337 681.312 523.931 690.669C531.646 695.98 550.496 705.058 559.361 706.726C560.196 710.886 559.442 723.921 559.114 728.586C557.134 756.808 553.938 787.05 538.122 811.335C525.159 832.124 503.123 841.691 479.991 846.429C448.885 852.8 406.944 849.226 379.9 831.576C342.997 807.491 338.481 746.264 338.644 706.766C348.678 705.544 375.431 691.335 382.633 683.729C396.408 669.181 395.688 634.757 395.338 615.655C395.019 613.253 394.916 608.681 394.778 606.108Z"/><path fill="#FC7E7A" transform="matrix(2.4654 0 0 2.46515 -0.000488281 -655.731)" d="M394.778 606.108C397.725 608.031 401.48 611.177 404.385 613.312C444.282 642.631 468.028 632.595 502.746 604.379C502.241 621.19 501.892 640.449 504.821 657.054C485.031 668.436 458.761 662.38 439.682 652.213C422.572 643.095 409.079 630.132 396.442 615.685L395.338 615.655C395.019 613.253 394.916 608.681 394.778 606.108Z"/></g></svg>