<?xml version="1.0" encoding="UTF-8"?>
<svg version="1.1" xmlns="http://www.w3.org/2000/svg" width="563" height="614">
<path d="M0 0 C4.69958987 -0.70641017 8.47910451 -1.10258878 12.45703125 1.78125 C13.94923864 3.22515767 15.39958772 4.71405062 16.796875 6.25 C19.66952691 8.53182279 21.41908207 8.25856764 25 8 C28.91974945 9.26815423 30.48957144 11.84403267 33 15 C33.57363281 15.36222656 34.14726562 15.72445312 34.73828125 16.09765625 C37.58531186 17.93083745 39.5695895 19.4542291 40.51025391 22.83251953 C41.36498244 27.52320889 41.72326195 32.24462364 42 37 C42.66 37 43.32 37 44 37 C48.46140297 44.60811322 48.52936896 51.56777443 48.390625 60.22265625 C48.38314882 61.57741962 48.37746241 62.93219392 48.37347412 64.28697205 C48.35832563 67.82338212 48.31914055 71.35911718 48.2746582 74.89526367 C48.23346966 78.5153694 48.21541322 82.13558602 48.1953125 85.75585938 C48.15263292 92.83751287 48.08451608 99.91871197 48 107 C48.66 107 49.32 107 50 107 C50.02803711 107.63389648 50.05607422 108.26779297 50.08496094 108.92089844 C50.70729563 124.66520917 50.70729563 124.66520917 59 137.375 C61.83404996 139.8878918 64.35556753 141.78518918 68 143 C69.6484375 144.671875 69.6484375 144.671875 71.375 146.75 C76.56588487 152.8911088 76.56588487 152.8911088 82.875 157.8125 C86.30799383 160.21559568 88.65042718 162.85904906 91.33984375 166.0390625 C94.07504605 169.26981909 96.69176037 172.24598997 100.37890625 174.37109375 C103.12894195 176.08013233 105.07903389 177.91445591 107.3125 180.25 C110.71540738 183.7315224 114.19367968 187.0072898 117.890625 190.171875 C121.19527592 193.0359058 124.39391457 196.01667065 127.60546875 198.984375 C129.93589488 201.0591071 129.93589488 201.0591071 132.6015625 202.53515625 C135.05171961 204.03158771 136.43174667 205.44220687 138.1875 207.6875 C139.59585169 209.53798428 139.59585169 209.53798428 141 211 C141.66 211 142.32 211 143 211 C143 211.66 143 212.32 143 213 C143.8353125 213.3403125 143.8353125 213.3403125 144.6875 213.6875 C147.65855185 215.37377267 149.64522125 217.530354 152 220 C152.825 220.825 153.65 221.65 154.5 222.5 C157 225 159.5 227.5 162 230 C162.845625 230.825 163.69125 231.65 164.5625 232.5 C167 235 167 235 168.8125 237.375 C171.2722012 240.32664144 173.99670468 242.57941816 177 244.9609375 C179.13411803 247.13673752 180.35536327 249.42495646 181.79931641 252.08691406 C184.55174867 256.47244867 188.51275385 259.98918959 192.13085938 263.65820312 C193.04641602 264.60663086 193.04641602 264.60663086 193.98046875 265.57421875 C194.53629639 266.13713623 195.09212402 266.70005371 195.66479492 267.2800293 C197.14678662 269.18908607 197.45239565 270.67995943 198 273 C198.66 273.33 199.32 273.66 200 274 C200.78020873 275.28281511 201.50012762 276.6026369 202.1875 277.9375 C204.1062992 281.52457269 206.22211987 284.78076519 208.625 288.0625 C211.64598845 292.25649698 213.32081558 296.139203 215 301 C215.66 301.33 216.32 301.66 217 302 C219.54948225 306.64905587 219.61749169 311.81600584 220 317 C220.66 317 221.32 317 222 317 C229.9803249 337.21682309 226.78869448 368.02030546 219 388 C218.608125 389.010625 218.21625 390.02125 217.8125 391.0625 C217.544375 391.701875 217.27625 392.34125 217 393 C216.34 393 215.68 393 215 393 C214.9175 393.825 214.835 394.65 214.75 395.5 C212.59307635 405.56564372 205.90785998 411.86645709 199 419 C198.319375 419.72058594 197.63875 420.44117188 196.9375 421.18359375 C189.83377769 428.55687695 181.47742617 434.0591335 171.04394531 434.49829102 C168.80543466 434.51912016 166.56667466 434.52000629 164.328125 434.50390625 C163.12871277 434.51332748 161.92930054 434.52274872 160.69354248 434.53245544 C156.87885287 434.5609855 153.06478733 434.56418924 149.25 434.5625 C145.44958603 434.56612635 141.64962515 434.57588195 137.8493042 434.60325623 C135.49295673 434.61983258 133.13646109 434.62309107 130.78009033 434.61024475 C117.2611634 434.69552881 105.49438239 437.97565521 94 445 C93.29875 445.26683594 92.5975 445.53367187 91.875 445.80859375 C87.26194742 447.72025277 82.95394653 450.21596363 78.58984375 452.63476562 C72.11973451 456.1379509 65.44274159 459.15049109 58 459.5625 C55.82422587 459.64311709 55.82422587 459.64311709 54 460 C53.67 460.66 53.34 461.32 53 462 C37.9696907 464.50505155 22.12510464 462.84447244 7 462 C7 461.34 7 460.68 7 460 C5.98808594 460.03996094 4.97617187 460.07992188 3.93359375 460.12109375 C-2.08202626 460.11976785 -7.99378335 459.1914462 -13.9387207 458.34594727 C-15.95624051 458.0598424 -17.97501303 457.78426938 -19.99414062 457.50976562 C-29.86947037 456.13052963 -29.86947037 456.13052963 -31 455 C-45.87507504 452.48561597 -60.9279976 452.67275714 -75.96484375 452.62109375 C-78.53594062 452.60487818 -81.10703154 452.5876941 -83.67811584 452.56959534 C-89.71343948 452.52887015 -95.7487541 452.49573811 -101.78414589 452.46712118 C-113.24015339 452.41271306 -124.696061 452.34450243 -136.15194893 452.26918221 C-139.89360393 452.24652513 -143.63524801 452.23014747 -147.37693787 452.21446228 C-149.68350343 452.20104688 -151.99006785 452.18743133 -154.29663086 452.17358398 C-155.83594521 452.16966393 -155.83594521 452.16966393 -157.40635681 452.16566467 C-163.98407473 452.11905617 -170.4594083 451.69723164 -177 451 C-177 450.34 -177 449.68 -177 449 C-177.72703125 449.03480469 -178.4540625 449.06960938 -179.203125 449.10546875 C-191.29341687 449.43097661 -201.9691619 447.00204608 -212 440 C-213.75622259 438.28098552 -215.25481255 436.5321682 -216.74609375 434.58203125 C-218.0589689 432.80265173 -218.0589689 432.80265173 -220.4375 431.0625 C-223.49073313 428.60501968 -225.84724549 425.80760156 -228.3515625 422.8046875 C-230.06632331 420.78227744 -230.06632331 420.78227744 -233 419 C-233.33 418.01 -233.66 417.02 -234 416 C-234.66 415.34 -235.32 414.68 -236 414 C-240 407.81021898 -240 407.81021898 -240 405 C-240.66 405 -241.32 405 -242 405 C-242.67057887 403.2097939 -243.3363469 401.41778511 -244 399.625 C-244.37125 398.62726563 -244.7425 397.62953125 -245.125 396.6015625 C-246 394 -246 394 -246 392 C-246.66 392 -247.32 392 -248 392 C-248.50744423 390.10614563 -249.00564574 388.20981334 -249.5 386.3125 C-249.7784375 385.25675781 -250.056875 384.20101563 -250.34375 383.11328125 C-250.9391715 380.28857328 -251.12786492 377.87163292 -251 375 C-251.66 375 -252.32 375 -253 375 C-257.4043862 351.77210612 -256.77436349 329.28193365 -253 306 C-252.34 306 -251.68 306 -251 306 C-250.8453125 304.1128125 -250.8453125 304.1128125 -250.6875 302.1875 C-248.96531016 286.76055999 -241.92674357 272.66457595 -235 259 C-234.14479688 257.29218529 -233.29061973 255.5838564 -232.4375 253.875 C-232.02757812 253.05902344 -231.61765625 252.24304688 -231.1953125 251.40234375 C-230.40670139 249.81739005 -229.63034416 248.22627209 -228.8671875 246.62890625 C-226.20818662 241.10409331 -226.20818662 241.10409331 -224 240 C-223.01407957 238.35614699 -223.01407957 238.35614699 -222.125 236.375 C-219.40457449 230.72177376 -216.24825055 225.36667482 -213 220 C-212.505 219.13375 -212.01 218.2675 -211.5 217.375 C-210.13206341 215.2091004 -208.8312664 213.75801574 -207 212 C-204.5450756 209.09872571 -202.65064569 206.40445673 -201 203 C-198.87949658 199.64823652 -196.79101259 196.79101259 -194 194 C-192.82425289 191.90010348 -192.82425289 191.90010348 -192 190 C-191.34 190 -190.68 190 -190 190 C-189.87625 189.443125 -189.7525 188.88625 -189.625 188.3125 C-189.41875 187.549375 -189.2125 186.78625 -189 186 C-188.79375 185.21625 -188.5875 184.4325 -188.375 183.625 C-186.69791622 180.42329461 -184.6274518 178.85143838 -181.75390625 176.72265625 C-179.80688356 174.99953659 -179.80688356 174.99953659 -178.60546875 172.17578125 C-176.80225661 168.60884337 -174.49264501 165.97342195 -171.75 163.125 C-170.82704659 162.14945665 -169.90519107 161.17287354 -168.984375 160.1953125 C-168.50129883 159.68476318 -168.01822266 159.17421387 -167.52050781 158.64819336 C-165.89657993 156.88789517 -164.33978943 155.08009119 -162.78125 153.26171875 C-158.34632767 148.16338064 -153.54871312 143.44061131 -148.75 138.6875 C-147.8528125 137.79482422 -146.955625 136.90214844 -146.03125 135.98242188 C-144.37713288 134.33697154 -142.72198449 132.69255673 -141.06542969 131.04956055 C-139.82360757 129.81727962 -138.58487308 128.58185912 -137.35229492 127.34033203 C-131.16062437 121.20343524 -124.35504946 116.86482952 -116.46875 113.2265625 C-113.9027056 112.11512661 -113.9027056 112.11512661 -112 110 C-109.66666667 109 -107.33333333 108 -105 107 C-104.34 106.34 -103.68 105.68 -103 105 C-100.68060793 104.2863409 -98.34476551 103.6252708 -96 103 C-93.99638693 102.34427209 -91.99508067 101.68124706 -90 101 C-90 98.36 -90 95.72 -90 93 C-90.66 93 -91.32 93 -92 93 C-94.25046419 82.9733783 -95.69500192 72.80935033 -92 63 C-91.34 63 -90.68 63 -90 63 C-89.731875 62.360625 -89.46375 61.72125 -89.1875 61.0625 C-88 59 -88 59 -85 58 C-84.67 57.34 -84.34 56.68 -84 56 C-82 54 -82 54 -79.5 53.125 C-76.8604924 52.21791378 -76.8604924 52.21791378 -75.6875 49.875 C-75.3471875 48.946875 -75.3471875 48.946875 -75 48 C-74.34 48 -73.68 48 -73 48 C-72.814375 46.948125 -72.814375 46.948125 -72.625 45.875 C-71.55114369 40.93526098 -70.58799618 37.55255918 -67 34 C-65.72154494 32.04825199 -64.55508836 30.04980481 -63.37890625 28.03515625 C-60.74856524 24.15298156 -59.09030012 22.28780102 -54.43359375 21.05859375 C-53.10408938 20.83591165 -51.77182101 20.62922018 -50.4375 20.4375 C-45.99376134 19.77711698 -43.18183216 19.29641338 -40 16 C-37.1875 15.48046875 -37.1875 15.48046875 -34 15.1875 C-30.81890618 14.81301854 -30.81890618 14.81301854 -28 14 C-25.62265218 11.09413157 -25.62265218 11.09413157 -25 8 C-24.34 8 -23.68 8 -23 8 C-23 7.34 -23 6.68 -23 6 C-21.2507786 5.91857073 -19.50045458 5.86061459 -17.75 5.8125 C-16.77546875 5.77769531 -15.8009375 5.74289063 -14.796875 5.70703125 C-11.62531258 6.03924798 -10.32959693 6.88672279 -8 9 C-8 8.34 -8 7.68 -8 7 C-7.34 7 -6.68 7 -6 7 C-5.62875 6.0409375 -5.62875 6.0409375 -5.25 5.0625 C-4 3 -4 3 -1.875 2.25 C-0.946875 2.12625 -0.946875 2.12625 0 2 C0 1.34 0 0.68 0 0 Z " fill="#EFAF8F" transform="translate(302,76)"/>
<path d="M0 0 C1.24546405 2.49092811 0.7767578 3.41080733 0 6 C2.18321646 7.44437483 4.37119246 8.88049052 6.5625 10.3125 C7.17158203 10.71662109 7.78066406 11.12074219 8.40820312 11.53710938 C12.46273506 14.17577302 16.4907506 16.19630024 21 18 C22.09183594 18.45761719 23.18367187 18.91523438 24.30859375 19.38671875 C25.85740234 20.03060547 25.85740234 20.03060547 27.4375 20.6875 C28.48808594 21.12449219 29.53867187 21.56148438 30.62109375 22.01171875 C31.40613281 22.33785156 32.19117188 22.66398437 33 23 C26.50079205 25.20208458 19.45959126 22.15076705 13.53515625 19.37890625 C8.17985965 16.52642868 2.91371295 13.57160927 -2 10 C-2 9.34 -2 8.68 -2 8 C-7.64245332 10.74062018 -10.86982897 14.77440456 -12.91015625 20.59765625 C-15.05451342 28.60397473 -16.04579337 36.78259699 -17 45 C-17.66 45 -18.32 45 -19 45 C-20.59694828 52.94485516 -20.59694828 52.94485516 -18.68359375 60.5390625 C-15.58406839 64.11389305 -12.24820222 66.87589889 -8 69 C-7.175 69.515625 -6.35 70.03125 -5.5 70.5625 C-3.05639899 71.96757058 -0.63891571 73.01983131 2 74 C2 74.66 2 75.32 2 76 C11.75181689 77.62530281 18.53110548 77.71612774 27 72 C29.53312969 69.24272185 29.53312969 69.24272185 31 66 C31.556875 65.030625 32.11375 64.06125 32.6875 63.0625 C35.12659025 57.22989289 34.76681655 50.24770831 35 44 C56.75634237 44.74508022 77.10346601 51.58511657 92.4296875 67.52734375 C97.95120098 73.83635178 101.30784249 80.09493825 104 88 C104.50080078 89.423125 104.50080078 89.423125 105.01171875 90.875 C111.17132978 109.5729497 113.96043323 128.54555079 115.69042969 148.09765625 C115.95381856 150.97524884 115.95381856 150.97524884 116.5300293 153.67822266 C117.20994915 158.48393147 117.12220785 163.23880452 117.09765625 168.0859375 C117.09553383 169.67131821 117.09553383 169.67131821 117.09336853 171.28872681 C117.0877894 174.65084716 117.07524069 178.01289991 117.0625 181.375 C117.05748231 183.66015529 117.05291987 185.94531162 117.04882812 188.23046875 C117.03782679 193.8203354 117.02110944 199.41016287 117 205 C117.99 205 118.98 205 120 205 C119.9669712 207.10483555 119.89755454 209.2091243 119.8125 211.3125 C119.77769531 212.48425781 119.74289062 213.65601563 119.70703125 214.86328125 C119 218 119 218 117.00585938 219.65039062 C113.02319257 221.43857955 109.52193327 221.57877227 105.19921875 221.73046875 C103.9446563 221.79068962 103.9446563 221.79068962 102.66474915 221.85212708 C100.00606653 221.97679772 97.34702131 222.08240815 94.6875 222.1875 C92.87950018 222.26892393 91.07155596 222.35159245 89.26367188 222.43554688 C84.84296196 222.63811951 80.42182881 222.8236082 76 223 C76.01047363 223.97533691 76.02094727 224.95067383 76.03173828 225.95556641 C76.44071416 267.71960171 76.44071416 267.71960171 73 287 C72.01 287 71.02 287 70 287 C70 287.99 70 288.98 70 290 C55.66682388 291.81186876 41.37109143 290.802374 27 290 C27 289.34 27 288.68 27 288 C25.98808594 288.03996094 24.97617187 288.07992188 23.93359375 288.12109375 C17.91797374 288.11976785 12.00621665 287.1914462 6.0612793 286.34594727 C4.04375949 286.0598424 2.02498697 285.78426938 0.00585938 285.50976562 C-9.86947037 284.13052963 -9.86947037 284.13052963 -11 283 C-24.37412678 280.85370566 -37.77261332 280.67873697 -51.28515625 280.62109375 C-53.36454516 280.60487516 -55.44392674 280.5876908 -57.52330017 280.56959534 C-62.93299992 280.52441684 -68.34271 280.48932786 -73.75250244 280.45739746 C-82.46871811 280.40500148 -91.18482809 280.34051562 -99.90090752 280.26918221 C-102.93946709 280.24634321 -105.97801272 280.23009391 -109.01661682 280.21446228 C-110.85881722 280.20106904 -112.70101603 280.18745543 -114.54321289 280.17358398 C-115.39030823 280.17097061 -116.23740356 280.16835724 -117.11016846 280.16566467 C-122.88633491 280.11366509 -122.88633491 280.11366509 -124 279 C-124.04080783 277.00041636 -124.04254356 274.99954746 -124 273 C-123.03320312 272.95101563 -122.06640625 272.90203125 -121.0703125 272.8515625 C-113.55008772 272.41970801 -106.34659721 271.78046944 -99 270 C-99 269.34 -99 268.68 -99 268 C-97.845 267.46375 -96.69 266.9275 -95.5 266.375 C-82.55196 259.82105383 -74.87788831 249.53562487 -69.91015625 236.0390625 C-67.71331065 229.32417594 -66.28302744 222.60412195 -65.07373047 215.66162109 C-64.45127469 212.15639052 -63.73059395 208.84109447 -62.5 205.5 C-61.04628168 201.53805266 -60.29146575 197.5190331 -59.5625 193.375 C-57.99736569 184.51388389 -55.70783087 175.93471228 -53.21875 167.28515625 C-50.67026497 158.29620632 -48.86782171 149.14948199 -47 140 C-46.34 140 -45.68 140 -45 140 C-44.87044922 138.58074219 -44.87044922 138.58074219 -44.73828125 137.1328125 C-43.89108317 128.83835001 -42.36682823 121.05793047 -40.02856445 113.05810547 C-38.35317118 107.32275483 -36.87077985 101.56565944 -35.5 95.75 C-35.19316284 94.45618408 -35.19316284 94.45618408 -34.88012695 93.13623047 C-33.76844033 88.4060017 -32.70497791 83.66767566 -31.6796875 78.91796875 C-31.46119141 77.91862305 -31.24269531 76.91927734 -31.01757812 75.88964844 C-30.59840122 73.96385543 -30.18783035 72.03616308 -29.78710938 70.10644531 C-29.5019043 68.79885254 -29.5019043 68.79885254 -29.2109375 67.46484375 C-29.04899902 66.697771 -28.88706055 65.93069824 -28.72021484 65.14038086 C-27.8848411 62.65776338 -26.61170812 61.04817397 -25 59 C-20.980575 48.67250944 -19.94303162 37.94413016 -19 27 C-18.34 27 -17.68 27 -17 27 C-16.95875 25.865625 -16.9175 24.73125 -16.875 23.5625 C-15.86883894 15.66693056 -10.5610782 10.06192384 -4.546875 5.28515625 C-2.68575012 3.73891866 -1.32145409 2.02104744 0 0 Z " fill="#A43D34" transform="translate(282,248)"/>
<path d="M0 0 C4.36950052 3.6796195 8.49672166 7.42760494 12.421875 11.58203125 C14.05658808 13.24043634 14.05658808 13.24043634 17 14 C18.6484375 15.671875 18.6484375 15.671875 20.375 17.75 C25.56588487 23.8911088 25.56588487 23.8911088 31.875 28.8125 C35.30799383 31.21559568 37.65042718 33.85904906 40.33984375 37.0390625 C43.07504605 40.26981909 45.69176037 43.24598997 49.37890625 45.37109375 C52.12894195 47.08013233 54.07903389 48.91445591 56.3125 51.25 C59.71540738 54.7315224 63.19367968 58.0072898 66.890625 61.171875 C70.19527592 64.0359058 73.39391457 67.01667065 76.60546875 69.984375 C78.93589488 72.0591071 78.93589488 72.0591071 81.6015625 73.53515625 C84.05171961 75.03158771 85.43174667 76.44220687 87.1875 78.6875 C88.59585169 80.53798428 88.59585169 80.53798428 90 82 C90.66 82 91.32 82 92 82 C92 82.66 92 83.32 92 84 C92.556875 84.226875 93.11375 84.45375 93.6875 84.6875 C96.65855185 86.37377267 98.64522125 88.530354 101 91 C101.825 91.825 102.65 92.65 103.5 93.5 C106 96 108.5 98.5 111 101 C111.845625 101.825 112.69125 102.65 113.5625 103.5 C116 106 116 106 117.8125 108.375 C120.2722012 111.32664144 122.99670468 113.57941816 126 115.9609375 C128.13411803 118.13673752 129.35536327 120.42495646 130.79931641 123.08691406 C133.55174867 127.47244867 137.51275385 130.98918959 141.13085938 134.65820312 C141.74123047 135.29048828 142.35160156 135.92277344 142.98046875 136.57421875 C143.53629639 137.13713623 144.09212402 137.70005371 144.66479492 138.2800293 C146.14678662 140.18908607 146.45239565 141.67995943 147 144 C147.66 144.33 148.32 144.66 149 145 C149.78020873 146.28281511 150.50012762 147.6026369 151.1875 148.9375 C153.1062992 152.52457269 155.22211987 155.78076519 157.625 159.0625 C160.64598845 163.25649698 162.32081558 167.139203 164 172 C164.66 172.33 165.32 172.66 166 173 C168.54948225 177.64905587 168.61749169 182.81600584 169 188 C169.66 188 170.32 188 171 188 C178.9803249 208.21682309 175.78869448 239.02030546 168 259 C167.608125 260.010625 167.21625 261.02125 166.8125 262.0625 C166.544375 262.701875 166.27625 263.34125 166 264 C165.34 264 164.68 264 164 264 C163.9175 264.825 163.835 265.65 163.75 266.5 C161.59307635 276.56564372 154.90785998 282.86645709 148 290 C147.319375 290.72058594 146.63875 291.44117188 145.9375 292.18359375 C138.83377769 299.55687695 130.47742617 305.0591335 120.04394531 305.49829102 C117.80543466 305.51912016 115.56667466 305.52000629 113.328125 305.50390625 C112.12871277 305.51332748 110.92930054 305.52274872 109.69354248 305.53245544 C105.87885287 305.5609855 102.06478733 305.56418924 98.25 305.5625 C94.44958603 305.56612635 90.64962515 305.57588195 86.8493042 305.60325623 C84.49295673 305.61983258 82.13646109 305.62309107 79.78009033 305.61024475 C66.2611634 305.69552881 54.49438239 308.97565521 43 316 C41.948125 316.40025391 41.948125 316.40025391 40.875 316.80859375 C36.26194742 318.72025277 31.95394653 321.21596363 27.58984375 323.63476562 C21.11973451 327.1379509 14.44274159 330.15049109 7 330.5625 C4.82422587 330.64311709 4.82422587 330.64311709 3 331 C2.67 331.66 2.34 332.32 2 333 C1.01 333 0.02 333 -1 333 C-1 332.01 -1 331.02 -1 330 C-0.01 330 0.98 330 2 330 C2.34339304 325.6674027 2.67368731 321.33391599 3 317 C3.08378906 315.89720703 3.16757812 314.79441406 3.25390625 313.65820312 C3.9833983 303.46268327 4.31050608 293.27905332 4.5625 283.0625 C4.60584289 281.39647715 4.64946122 279.73046144 4.69335938 278.06445312 C4.79873508 274.04304366 4.90042956 270.02155722 5 266 C8.12384776 264.43807612 11.49301535 264.68039357 14.9296875 264.53515625 C16.54558495 264.45662737 18.16147001 264.37784334 19.77734375 264.29882812 C22.32717455 264.17922038 24.87706804 264.0624092 27.42724609 263.95043945 C29.88683418 263.84067468 32.34569 263.71985095 34.8046875 263.59765625 C35.94549271 263.55222435 35.94549271 263.55222435 37.10934448 263.50587463 C42.38418982 263.28681338 42.38418982 263.28681338 47 261 C47.92499783 257.9017122 47.92499783 257.9017122 48.25 254.375 C48.39953125 253.18648437 48.5490625 251.99796875 48.703125 250.7734375 C48.80109375 249.85820312 48.8990625 248.94296875 49 248 C48.01 248 47.02 248 46 248 C45.99191315 247.42529968 45.98382629 246.85059937 45.97549438 246.25848389 C45.88876508 240.22257087 45.78924076 234.18696082 45.68261719 228.15136719 C45.64457055 225.90532561 45.60967748 223.65922813 45.578125 221.41308594 C45.53194157 218.1658137 45.47404045 214.91891839 45.4140625 211.671875 C45.40251129 210.68386902 45.39096008 209.69586304 45.37905884 208.67791748 C45.25247855 202.56164545 44.58808055 196.73878554 43.46757507 190.72354126 C42.86894656 187.23663712 42.61016522 183.76621904 42.36767578 180.23999023 C41.2090532 163.42426338 37.57158088 146.91260844 32 131 C31.67902344 130.01257813 31.35804688 129.02515625 31.02734375 128.0078125 C26.28822781 114.92853194 17.17128592 105.47992406 5 99 C4.14664063 98.49210937 3.29328125 97.98421875 2.4140625 97.4609375 C-9.66462799 90.71209897 -24.2749372 87.19165509 -38 86 C-38 80.39 -38 74.78 -38 69 C-33.71 69 -29.42 69 -25 69 C-25 68.34 -25 67.68 -25 67 C-23.4609375 65.95703125 -23.4609375 65.95703125 -21.375 64.8125 C-17.48385937 62.50817204 -14.95643887 59.9317593 -12.2265625 56.35546875 C-11.82179688 55.90816406 -11.41703125 55.46085937 -11 55 C-10.34 55 -9.68 55 -9 55 C-8.88527344 54.14535156 -8.77054687 53.29070312 -8.65234375 52.41015625 C-7.97336723 48.860776 -6.8757973 45.80063224 -5.5625 42.4375 C-0.58012124 28.63903895 -0.48079797 14.51579887 0 0 Z " fill="#F8EFDD" transform="translate(353,205)"/>
<path d="M0 0 C2.20487145 1.95988574 2.86423675 3.68718389 3.6875 6.5 C3.6875 7.49 3.6875 8.48 3.6875 9.5 C4.3475 9.5 5.0075 9.5 5.6875 9.5 C8.6875 15.25 8.6875 15.25 8.6875 17.5 C9.3475 17.5 10.0075 17.5 10.6875 17.5 C12.0546875 19.2578125 12.0546875 19.2578125 13.5625 21.625 C14.09488281 22.44742188 14.62726563 23.26984375 15.17578125 24.1171875 C15.92408203 25.29667969 15.92408203 25.29667969 16.6875 26.5 C19.36443246 30.7181966 22.1166719 34.01419162 25.6875 37.5 C26.67541864 38.65926496 27.65417063 39.82638643 28.625 41 C31.3750998 44.26440418 34.33435875 46.86538902 37.6875 49.5 C37.08055845 52.65330554 36.0458335 54.68888867 34.125 57.25 C33.66996094 57.86359375 33.21492187 58.4771875 32.74609375 59.109375 C32.22208984 59.79773438 32.22208984 59.79773438 31.6875 60.5 C30.71158417 57.11682513 30.82893345 54.9342662 31.6875 51.5 C28.70491104 51.82298764 27.12890889 52.0347031 25.02734375 54.25 C18.35960608 64.94809721 14.08737659 75.90111071 12.6875 88.5 C12.0275 88.5 11.3675 88.5 10.6875 88.5 C10.63851562 87.74074219 10.58953125 86.98148437 10.5390625 86.19921875 C10.42691406 84.70841797 10.42691406 84.70841797 10.3125 83.1875 C10.20808594 81.70830078 10.20808594 81.70830078 10.1015625 80.19921875 C9.84884528 77.28471567 9.84884528 77.28471567 7.6875 74.5 C6.3675 74.5 5.0475 74.5 3.6875 74.5 C0.64457682 85.15980008 0.0250824 95.47618855 -0.3125 106.5 C-1.075625 106.479375 -1.83875 106.45875 -2.625 106.4375 C-5.41435786 106.37057159 -5.41435786 106.37057159 -8.3125 107.5 C-8.3125 108.16 -8.3125 108.82 -8.3125 109.5 C-9.27929688 109.74234375 -10.24609375 109.9846875 -11.2421875 110.234375 C-18.05162846 111.97465314 -24.64116157 113.80930535 -31.12109375 116.57421875 C-33.16398506 117.43725839 -35.21388049 118.16155281 -37.3125 118.875 C-50.78832189 123.95206316 -62.84491203 133.58368 -69.3125 146.5 C-70.01816507 148.48657526 -70.69562443 150.48408607 -71.3125 152.5 C-71.9725 152.5 -72.6325 152.5 -73.3125 152.5 C-73.43625 153.29792969 -73.56 154.09585938 -73.6875 154.91796875 C-74.44261225 159.24570584 -75.36328623 163.52384212 -76.3125 167.8125 C-76.57933594 169.04709961 -76.57933594 169.04709961 -76.8515625 170.30664062 C-78.19366733 176.38116733 -78.19366733 176.38116733 -79.3125 177.5 C-84.13357802 203.14489399 -83.64383242 230.47089119 -84.3125 256.5 C-85.9625 256.5 -87.6125 256.5 -89.3125 256.5 C-89.3125 257.16 -89.3125 257.82 -89.3125 258.5 C-89.9725 258.5 -90.6325 258.5 -91.3125 258.5 C-90.8952893 264.71500073 -89.64130901 269.72860375 -87.3125 275.5 C-87.3125 276.16 -87.3125 276.82 -87.3125 277.5 C-86.61382812 277.56058594 -85.91515625 277.62117188 -85.1953125 277.68359375 C-84.28523438 277.76738281 -83.37515625 277.85117187 -82.4375 277.9375 C-81.53257812 278.01871094 -80.62765625 278.09992188 -79.6953125 278.18359375 C-77.3125 278.5 -77.3125 278.5 -75.3125 279.5 C-74.96662676 296.06348503 -74.96662676 296.06348503 -76.3125 301.4375 C-78.90312874 312.28459301 -79.01939229 325.7639196 -73.12890625 335.4453125 C-69.67943874 340.11626284 -66.03287125 341.707901 -60.484375 343.1875 C-58.3125 344.5 -58.3125 344.5 -57.015625 348.125 C-56.78359375 349.23875 -56.5515625 350.3525 -56.3125 351.5 C-59.91664885 351.52953103 -63.52076576 351.54697407 -67.125 351.5625 C-68.12982422 351.57087891 -69.13464844 351.57925781 -70.16992188 351.58789062 C-76.94118824 351.60966319 -83.58160926 351.2369831 -90.3125 350.5 C-90.3125 349.84 -90.3125 349.18 -90.3125 348.5 C-91.03953125 348.53480469 -91.7665625 348.56960938 -92.515625 348.60546875 C-104.60591687 348.93097661 -115.2816619 346.50204608 -125.3125 339.5 C-127.06872259 337.78098552 -128.56731255 336.0321682 -130.05859375 334.08203125 C-131.3714689 332.30265173 -131.3714689 332.30265173 -133.75 330.5625 C-136.80323313 328.10501968 -139.15974549 325.30760156 -141.6640625 322.3046875 C-143.37882331 320.28227744 -143.37882331 320.28227744 -146.3125 318.5 C-146.6425 317.51 -146.9725 316.52 -147.3125 315.5 C-147.9725 314.84 -148.6325 314.18 -149.3125 313.5 C-153.3125 307.31021898 -153.3125 307.31021898 -153.3125 304.5 C-153.9725 304.5 -154.6325 304.5 -155.3125 304.5 C-155.98307887 302.7097939 -156.6488469 300.91778511 -157.3125 299.125 C-157.68375 298.12726563 -158.055 297.12953125 -158.4375 296.1015625 C-159.3125 293.5 -159.3125 293.5 -159.3125 291.5 C-159.9725 291.5 -160.6325 291.5 -161.3125 291.5 C-161.81994423 289.60614563 -162.31814574 287.70981334 -162.8125 285.8125 C-163.0909375 284.75675781 -163.369375 283.70101563 -163.65625 282.61328125 C-164.2516715 279.78857328 -164.44036492 277.37163292 -164.3125 274.5 C-164.9725 274.5 -165.6325 274.5 -166.3125 274.5 C-170.7168862 251.27210612 -170.08686349 228.78193365 -166.3125 205.5 C-165.6525 205.5 -164.9925 205.5 -164.3125 205.5 C-164.1578125 203.6128125 -164.1578125 203.6128125 -164 201.6875 C-162.27781016 186.26055999 -155.23924357 172.16457595 -148.3125 158.5 C-147.45729688 156.79218529 -146.60311973 155.0838564 -145.75 153.375 C-145.34007812 152.55902344 -144.93015625 151.74304688 -144.5078125 150.90234375 C-143.71920139 149.31739005 -142.94284416 147.72627209 -142.1796875 146.12890625 C-139.52068662 140.60409331 -139.52068662 140.60409331 -137.3125 139.5 C-136.32657957 137.85614699 -136.32657957 137.85614699 -135.4375 135.875 C-132.71707449 130.22177376 -129.56075055 124.86667482 -126.3125 119.5 C-125.8175 118.63375 -125.3225 117.7675 -124.8125 116.875 C-123.44456341 114.7091004 -122.1437664 113.25801574 -120.3125 111.5 C-117.8575756 108.59872571 -115.96314569 105.90445673 -114.3125 102.5 C-112.19199658 99.14823652 -110.10351259 96.29101259 -107.3125 93.5 C-106.13675289 91.40010348 -106.13675289 91.40010348 -105.3125 89.5 C-104.6525 89.5 -103.9925 89.5 -103.3125 89.5 C-103.18875 88.943125 -103.065 88.38625 -102.9375 87.8125 C-102.73125 87.049375 -102.525 86.28625 -102.3125 85.5 C-102.10625 84.71625 -101.9 83.9325 -101.6875 83.125 C-100.01041622 79.92329461 -97.9399518 78.35143838 -95.06640625 76.22265625 C-93.11938356 74.49953659 -93.11938356 74.49953659 -91.91796875 71.67578125 C-90.11475661 68.10884337 -87.80514501 65.47342195 -85.0625 62.625 C-84.13954659 61.64945665 -83.21769107 60.67287354 -82.296875 59.6953125 C-81.57226074 58.92948853 -81.57226074 58.92948853 -80.83300781 58.14819336 C-79.20907993 56.38789517 -77.65228943 54.58009119 -76.09375 52.76171875 C-71.65882767 47.66338064 -66.86121312 42.94061131 -62.0625 38.1875 C-60.71671875 36.84848633 -60.71671875 36.84848633 -59.34375 35.48242188 C-57.68963288 33.83697154 -56.03448449 32.19255673 -54.37792969 30.54956055 C-53.13610757 29.31727962 -51.89737308 28.08185912 -50.66479492 26.84033203 C-44.47312437 20.70343524 -37.66754946 16.36482952 -29.78125 12.7265625 C-27.2152056 11.61512661 -27.2152056 11.61512661 -25.3125 9.5 C-22.97916667 8.5 -20.64583333 7.5 -18.3125 6.5 C-17.6525 5.84 -16.9925 5.18 -16.3125 4.5 C-13.98440457 3.81526605 -11.65012223 3.15146849 -9.3125 2.5 C-8.07663815 1.93098861 -6.84714575 1.3479032 -5.625 0.75 C-2.3125 -0.5 -2.3125 -0.5 0 0 Z " fill="#F7EEDC" transform="translate(215.3125,176.5)"/>
<path d="M0 0 C4.69958987 -0.70641017 8.47910451 -1.10258878 12.45703125 1.78125 C13.94923864 3.22515767 15.39958772 4.71405062 16.796875 6.25 C19.66952691 8.53182279 21.41908207 8.25856764 25 8 C28.91974945 9.26815423 30.48957144 11.84403267 33 15 C33.86044922 15.54333984 33.86044922 15.54333984 34.73828125 16.09765625 C37.58531186 17.93083745 39.5695895 19.4542291 40.51025391 22.83251953 C41.36498244 27.52320889 41.72326195 32.24462364 42 37 C42.66 37 43.32 37 44 37 C48.21428151 44.61957149 49.31377141 51.38456562 47.31640625 59.921875 C46.61090216 62.31181231 45.85305874 64.65916621 45 67 C44.34 67 43.68 67 43 67 C42.67 66.01 42.34 65.02 42 64 C39.50240018 62.30117552 39.50240018 62.30117552 37 61 C36.731875 61.61875 36.46375 62.2375 36.1875 62.875 C35 65 35 65 32 67 C30.865625 66.979375 29.73125 66.95875 28.5625 66.9375 C24.56085534 67.00770429 24.0055895 67.673092 21 70 C18 70.375 18 70.375 15 70 C14.319375 69.46375 13.63875 68.9275 12.9375 68.375 C12.298125 67.92125 11.65875 67.4675 11 67 C8.59915538 67.80972016 8.59915538 67.80972016 6 69 C-0.34375 69.4375 -0.34375 69.4375 -4 67 C-4.309375 67.804375 -4.61875 68.60875 -4.9375 69.4375 C-6 72 -6 72 -7 73 C-8.99958364 73.04080783 -11.00045254 73.04254356 -13 73 C-13.66 71.68 -14.32 70.36 -15 69 C-15.804375 69.825 -16.60875 70.65 -17.4375 71.5 C-20.92918765 74.47253985 -23.79502351 74.43263066 -28.2421875 74.17578125 C-28.82226562 74.11777344 -29.40234375 74.05976563 -30 74 C-30.495 75.98 -30.495 75.98 -31 78 C-34.85645121 78.22036864 -37.49223216 77.60355101 -41 76 C-41.92107666 81.45315628 -42.13255632 86.6907242 -42.09765625 92.21484375 C-42.09553383 93.49845543 -42.09553383 93.49845543 -42.09336853 94.80799866 C-42.0878099 97.51786931 -42.07526525 100.22765468 -42.0625 102.9375 C-42.05747965 104.78450401 -42.05291768 106.63150932 -42.04882812 108.47851562 C-42.03785405 112.98570951 -42.0206183 117.49284034 -42 122 C-43.98 122.495 -43.98 122.495 -46 123 C-46.66 122.01 -47.32 121.02 -48 120 C-49.96361864 119.42251197 -49.96361864 119.42251197 -52.125 119.3125 C-53.40375 119.209375 -54.6825 119.10625 -56 119 C-59.59615954 124.3942393 -58.6914283 132.22098669 -57.546875 138.4765625 C-56.98762531 140.51717581 -56.98762531 140.51717581 -56 143 C-64.09329786 136.46310558 -70.52005065 128.86843874 -76 120 C-76 119.34 -76 118.68 -76 118 C-76.66 118 -77.32 118 -78 118 C-81 112.25 -81 112.25 -81 110 C-81.66 110 -82.32 110 -83 110 C-83.26554688 109.36191406 -83.53109375 108.72382813 -83.8046875 108.06640625 C-84.15789062 107.24011719 -84.51109375 106.41382813 -84.875 105.5625 C-85.22304687 104.73878906 -85.57109375 103.91507812 -85.9296875 103.06640625 C-86.8244937 100.84253285 -86.8244937 100.84253285 -89 100 C-89.40729228 97.67843403 -89.74438677 95.3431213 -90 93 C-90.66 93 -91.32 93 -92 93 C-94.25046419 82.9733783 -95.69500192 72.80935033 -92 63 C-91.34 63 -90.68 63 -90 63 C-89.5978125 62.0409375 -89.5978125 62.0409375 -89.1875 61.0625 C-88 59 -88 59 -85 58 C-84.67 57.34 -84.34 56.68 -84 56 C-82 54 -82 54 -79.5 53.125 C-76.8604924 52.21791378 -76.8604924 52.21791378 -75.6875 49.875 C-75.460625 49.25625 -75.23375 48.6375 -75 48 C-74.34 48 -73.68 48 -73 48 C-72.87625 47.29875 -72.7525 46.5975 -72.625 45.875 C-71.55114369 40.93526098 -70.58799618 37.55255918 -67 34 C-65.72154494 32.04825199 -64.55508836 30.04980481 -63.37890625 28.03515625 C-60.74856524 24.15298156 -59.09030012 22.28780102 -54.43359375 21.05859375 C-53.10408938 20.83591165 -51.77182101 20.62922018 -50.4375 20.4375 C-45.99376134 19.77711698 -43.18183216 19.29641338 -40 16 C-37.1875 15.48046875 -37.1875 15.48046875 -34 15.1875 C-30.81890618 14.81301854 -30.81890618 14.81301854 -28 14 C-25.62265218 11.09413157 -25.62265218 11.09413157 -25 8 C-24.34 8 -23.68 8 -23 8 C-23 7.34 -23 6.68 -23 6 C-21.2507786 5.91857073 -19.50045458 5.86061459 -17.75 5.8125 C-16.77546875 5.77769531 -15.8009375 5.74289063 -14.796875 5.70703125 C-11.62531258 6.03924798 -10.32959693 6.88672279 -8 9 C-8 8.34 -8 7.68 -8 7 C-7.34 7 -6.68 7 -6 7 C-5.62875 6.0409375 -5.62875 6.0409375 -5.25 5.0625 C-4 3 -4 3 -1.875 2.25 C-1.25625 2.1675 -0.6375 2.085 0 2 C0 1.34 0 0.68 0 0 Z " fill="#634940" transform="translate(302,76)"/>
<path d="M0 0 C2.7205636 8.16169079 2.22073401 17.4873448 2 26 C1.97317139 27.09997314 1.97317139 27.09997314 1.94580078 28.22216797 C1.8781244 30.64913195 1.78613909 33.07411011 1.6875 35.5 C1.66510254 36.27802979 1.64270508 37.05605957 1.61962891 37.85766602 C1.40542957 42.29624461 0.90721004 44.67747423 -2 48 C-3.31357139 50.48710319 -4.58030471 52.97355213 -5.8125 55.5 C-6.51949442 56.93230985 -7.22652604 58.36460133 -7.93359375 59.796875 C-8.28147949 60.50521484 -8.62936523 61.21355469 -8.98779297 61.94335938 C-10.43605848 64.88600015 -11.90537849 67.8179787 -13.375 70.75 C-14.06722656 72.13445312 -14.06722656 72.13445312 -14.7734375 73.546875 C-15.84895833 75.69791667 -16.92447917 77.84895833 -18 80 C-18.66 80 -19.32 80 -20 80 C-20.09152344 80.69480469 -20.18304688 81.38960938 -20.27734375 82.10546875 C-21.15805446 85.63307218 -22.69058127 88.19507761 -24.5625 91.3125 C-27.56857402 96.40783954 -30.34077419 101.5596945 -32.9375 106.875 C-35.96232624 113.04618236 -39.22834058 119.03163729 -42.64208984 124.99511719 C-45.64654781 130.28037874 -48.37335709 135.67193989 -51.04418945 141.13183594 C-53.25537861 145.6148552 -55.65209285 149.9432155 -58.1875 154.25 C-61.713131 160.29989934 -64.50923641 166.46174558 -67 173 C-74.16070963 173.35803548 -81.45969538 173.23603746 -88 170 C-92.35721667 164.43759573 -92.43713131 157.77553526 -92 151 C-91.34 151 -90.68 151 -90 151 C-90 150.34 -90 149.68 -90 149 C-88.35 149 -86.7 149 -85 149 C-85.01047363 148.22849609 -85.02094727 147.45699219 -85.03173828 146.66210938 C-85.78748373 81.64886763 -85.78748373 81.64886763 -78.86328125 63.50390625 C-77.61162568 59.87353874 -76.72730773 56.16491535 -75.8125 52.4375 C-75.63348145 51.70917969 -75.45446289 50.98085938 -75.27001953 50.23046875 C-74.84387985 48.48766138 -74.42153797 46.74392611 -74 45 C-73.34 45 -72.68 45 -72 45 C-71.89171875 44.11699219 -71.7834375 43.23398437 -71.671875 42.32421875 C-69.41219449 31.14405529 -59.90150149 23.28861038 -51 17 C-43.67296521 12.28726522 -36.29101215 9.18459971 -27.921875 6.83203125 C-25.51445714 6.14649648 -23.25483663 5.37113769 -20.9375 4.4375 C-14.28802099 1.86259536 -7.16836288 -0.27520223 0 0 Z " fill="#A53F35" transform="translate(216,284)"/>
<path d="M0 0 C-0.66 0 -1.32 0 -2 0 C-1.40584291 3.14780702 -0.79780079 6.29278645 -0.1875 9.4375 C-0.02185547 10.31599609 0.14378906 11.19449219 0.31445312 12.09960938 C2.02927113 20.86782976 3.63637373 28.47320383 10 35 C10.99 35.495 10.99 35.495 12 36 C12 36.66 12 37.32 12 38 C13.65 38.33 15.3 38.66 17 39 C16.67 40.65 16.34 42.3 16 44 C15.0925 44.20625 14.185 44.4125 13.25 44.625 C8.48996427 45.96558149 4.23941454 48.29121323 -0.1328125 50.5625 C-3 52 -3 52 -5.3515625 52.91015625 C-9.88811213 54.7769665 -14.12311044 57.25867242 -18.41015625 59.63476562 C-24.88026549 63.1379509 -31.55725841 66.15049109 -39 66.5625 C-41.17577413 66.64311709 -41.17577413 66.64311709 -43 67 C-43.495 67.99 -43.495 67.99 -44 69 C-44.99 69 -45.98 69 -47 69 C-47 68.01 -47 67.02 -47 66 C-46.01 66 -45.02 66 -44 66 C-43.65660696 61.6674027 -43.32631269 57.33391599 -43 53 C-42.91621094 51.89720703 -42.83242188 50.79441406 -42.74609375 49.65820312 C-42.0166017 39.46268327 -41.68949392 29.27905332 -41.4375 19.0625 C-41.39415711 17.39647715 -41.35053878 15.73046144 -41.30664062 14.06445312 C-41.20126492 10.04304366 -41.09957044 6.02155722 -41 2 C-37.86947342 0.43473671 -34.48030169 0.61692047 -31.03515625 0.4296875 C-30.24604355 0.38433868 -29.45693085 0.33898987 -28.64390564 0.29226685 C-26.97374764 0.19765699 -25.30345832 0.10534194 -23.63305664 0.01513672 C-21.0758443 -0.12427252 -18.51942902 -0.27457091 -15.96289062 -0.42578125 C-14.34118266 -0.51628727 -12.71943877 -0.60615234 -11.09765625 -0.6953125 C-10.33195816 -0.74108429 -9.56626007 -0.78685608 -8.77735901 -0.83401489 C-5.52315873 -1.00213025 -3.12198582 -1.04066194 0 0 Z " fill="#F0B090" transform="translate(399,469)"/>
<path d="M0 0 C0.66 0 1.32 0 2 0 C2.1044444 14.0373272 2.18400916 28.00332032 1 42 C0.01 42.33 -0.98 42.66 -2 43 C-2 42.01 -2 41.02 -2 40 C-2.99 40.495 -2.99 40.495 -4 41 C-4 42.98 -4 44.96 -4 47 C-2.68 47.33 -1.36 47.66 0 48 C-0.33 49.32 -0.66 50.64 -1 52 C-3.475 50.02 -3.475 50.02 -6 48 C-5.175 48.804375 -4.35 49.60875 -3.5 50.4375 C-0.70014572 53.81636097 -0.44756871 56.34881678 -0.69921875 60.6484375 C-1.09294092 63.72662897 -1.69138875 66.70052243 -2.44140625 69.7109375 C-2.99663694 71.9862185 -3.40755478 74.25624054 -3.8125 76.5625 C-5.78867728 86.5367491 -9.16722812 96.3052038 -13.0859375 105.671875 C-14.66543745 109.69487488 -15.83221497 113.84197756 -17 118 C-17.66 118 -18.32 118 -19 118 C-19.12375 118.70125 -19.2475 119.4025 -19.375 120.125 C-20.03838345 123.17656387 -20.97211955 126.05340938 -22 129 C-22.66 129 -23.32 129 -24 129 C-24.4021875 130.3303125 -24.4021875 130.3303125 -24.8125 131.6875 C-26.89168389 137.48732876 -29.56426752 140.74293636 -34.28125 144.5703125 C-35.99843478 145.95307882 -35.99843478 145.95307882 -37.4375 147.4453125 C-39.35730314 149.35551663 -41.39219482 151.04970382 -43.5 152.75 C-44.2734375 153.38421875 -45.046875 154.0184375 -45.84375 154.671875 C-46.5553125 155.11015625 -47.266875 155.5484375 -48 156 C-48.99 155.67 -49.98 155.34 -51 155 C-50.34 154.38125 -49.68 153.7625 -49 153.125 C-35.78292536 139.79527984 -30.24402773 124.86210615 -27.07373047 106.66162109 C-26.45127469 103.15639052 -25.73059395 99.84109447 -24.5 96.5 C-23.04628168 92.53805266 -22.29146575 88.5190331 -21.5625 84.375 C-19.99736569 75.51388389 -17.70783087 66.93471228 -15.21875 58.28515625 C-12.67026497 49.29620632 -10.86782171 40.14948199 -9 31 C-8.34 31 -7.68 31 -7 31 C-6.85304688 29.49373047 -6.85304688 29.49373047 -6.703125 27.95703125 C-5.68444462 18.3684814 -4.37102885 8.7420577 0 0 Z " fill="#8A3228" transform="translate(244,357)"/>
<path d="M0 0 C1.24546405 2.49092811 0.7767578 3.41080733 0 6 C2.18321646 7.44437483 4.37119246 8.88049052 6.5625 10.3125 C7.17158203 10.71662109 7.78066406 11.12074219 8.40820312 11.53710938 C12.46273506 14.17577302 16.4907506 16.19630024 21 18 C22.09183594 18.45761719 23.18367188 18.91523438 24.30859375 19.38671875 C25.34113281 19.81597656 26.37367188 20.24523437 27.4375 20.6875 C28.48808594 21.12449219 29.53867187 21.56148438 30.62109375 22.01171875 C31.79865234 22.50091797 31.79865234 22.50091797 33 23 C26.50079205 25.20208458 19.45959126 22.15076705 13.53515625 19.37890625 C8.17985965 16.52642868 2.91371295 13.57160927 -2 10 C-2 9.34 -2 8.68 -2 8 C-7.64245332 10.74062018 -10.86982897 14.77440456 -12.91015625 20.59765625 C-15.05451342 28.60397473 -16.04579337 36.78259699 -17 45 C-17.66 45 -18.32 45 -19 45 C-20.59694828 52.94485516 -20.59694828 52.94485516 -18.68359375 60.5390625 C-15.58406839 64.11389305 -12.24820222 66.87589889 -8 69 C-6.7625 69.7734375 -6.7625 69.7734375 -5.5 70.5625 C-3.05639899 71.96757058 -0.63891571 73.01983131 2 74 C2 74.66 2 75.32 2 76 C11.75181689 77.62530281 18.53110548 77.71612774 27 72 C29.53312969 69.24272185 29.53312969 69.24272185 31 66 C31.556875 65.030625 32.11375 64.06125 32.6875 63.0625 C35.12659025 57.22989289 34.76681655 50.24770831 35 44 C42.53216715 44.44238385 49.6802723 45.13905228 57 47 C53.58389775 47.94314127 50.54865136 48.08065117 47 48 C46.94392578 48.89138672 46.94392578 48.89138672 46.88671875 49.80078125 C46.24904325 57.84049395 44.85191342 65.82977155 41 73 C40.34 73 39.68 73 39 73 C38.88269531 73.58910156 38.76539063 74.17820312 38.64453125 74.78515625 C37.19679901 79.76009068 33.75689419 82.94796755 29.390625 85.5625 C19.28327575 90.26856738 10.32933931 90.38441117 -0.1875 86.875 C-10.84359399 82.65032487 -18.7428964 76.90573749 -27 69 C-27.66 70.65 -28.32 72.3 -29 74 C-30.07079018 70.78762947 -29.95713639 69.0604445 -28.6875 65.9375 C-28.42324219 65.26589844 -28.15898437 64.59429687 -27.88671875 63.90234375 C-27 62 -27 62 -25 59 C-21.1593366 48.54319379 -19.94942464 38.01832276 -19 27 C-18.34 27 -17.68 27 -17 27 C-16.95875 25.865625 -16.9175 24.73125 -16.875 23.5625 C-15.86883894 15.66693056 -10.5610782 10.06192384 -4.546875 5.28515625 C-2.68575012 3.73891866 -1.32145409 2.02104744 0 0 Z " fill="#A87A48" transform="translate(282,248)"/>
<path d="M0 0 C0.33 0 0.66 0 1 0 C2.22024564 5.70010938 2.12702021 11.28871925 2.09765625 17.0859375 C2.0962413 18.14285797 2.09482635 19.19977844 2.09336853 20.28872681 C2.0877894 23.65084716 2.07524069 27.01289991 2.0625 30.375 C2.05748231 32.66015529 2.05291987 34.94531162 2.04882812 37.23046875 C2.03782679 42.8203354 2.02110944 48.41016287 2 54 C2.99 54 3.98 54 5 54 C4.9669712 56.10483555 4.89755454 58.2091243 4.8125 60.3125 C4.77769531 61.48425781 4.74289062 62.65601563 4.70703125 63.86328125 C4 67 4 67 1.9921875 68.65039062 C-1.84954125 70.38318081 -5.43683429 70.58094085 -9.58203125 70.73046875 C-10.80329964 70.79068962 -10.80329964 70.79068962 -12.04924011 70.85212708 C-14.63658274 70.97676684 -17.22429759 71.08239411 -19.8125 71.1875 C-21.57232416 71.26892687 -23.33209134 71.35159552 -25.09179688 71.43554688 C-29.39408 71.6404175 -33.69634742 71.8195311 -38 72 C-38 66.39 -38 60.78 -38 55 C-33.2494154 54.2082359 -28.95933436 53.86659811 -24.1953125 53.90234375 C-23.55263428 53.90335083 -22.90995605 53.90435791 -22.24780273 53.90539551 C-19.8735167 53.91058199 -17.49925634 53.92454284 -15.125 53.9375 C-9.80375 53.958125 -4.4825 53.97875 1 54 C0.67 36.18 0.34 18.36 0 0 Z " fill="#A87949" transform="translate(397,399)"/>
<path d="M0 0 C0.33 0.99 0.66 1.98 1 3 C14.365 3.495 14.365 3.495 28 4 C26.33090945 8.17272637 24.47597265 12.13211543 22.4375 16.125 C19.96794118 20.95144398 19.96794118 20.95144398 18 26 C10.83929037 26.35803548 3.54030462 26.23603746 -3 23 C-7.35721667 17.43759573 -7.43713131 10.77553526 -7 4 C-6.34 4 -5.68 4 -5 4 C-5 3.34 -5 2.68 -5 2 C-3.35 2 -1.7 2 0 2 C0 1.34 0 0.68 0 0 Z " fill="#A67A47" transform="translate(131,431)"/>
<path d="M0 0 C0.99 0 1.98 0 3 0 C2.34 1.32 1.68 2.64 1 4 C1.33 4.33 1.66 4.66 2 5 C3.89337774 9.59332072 4.13558971 13.07641187 3.6875 18 C3.58824219 19.175625 3.48898437 20.35125 3.38671875 21.5625 C3.02983681 24.73478388 2.56039733 27.85794316 2 31 C1.01 31 0.02 31 -1 31 C-1 31.99 -1 32.98 -1 34 C-20.95495495 36.52252252 -20.95495495 36.52252252 -26 34 C-25.34 32.68 -24.68 31.36 -24 30 C-22.68 30 -21.36 30 -20 30 C-20.103125 29.2575 -20.20625 28.515 -20.3125 27.75 C-20 25 -20 25 -17.625 22.6875 C-15 21 -15 21 -13 21 C-12.773125 20.21625 -12.54625 19.4325 -12.3125 18.625 C-11 16 -11 16 -8.5 14.625 C-6 14 -6 14 -4 15 C-4.33 13.68 -4.66 12.36 -5 11 C-2.11562221 12.29299694 -0.12780579 13.65941363 2 16 C2.33 14.68 2.66 13.36 3 12 C2.21625 11.773125 1.4325 11.54625 0.625 11.3125 C-2 10 -2 10 -3.3125 7.375 C-3.539375 6.59125 -3.76625 5.8075 -4 5 C-2.1875 2.5 -2.1875 2.5 0 0 Z " fill="#A5443C" transform="translate(353,504)"/>
<path d="M0 0 C0.33 0 0.66 0 1 0 C1.33 12.54 1.66 25.08 2 38 C0.02 38.495 0.02 38.495 -2 39 C-2.37125 38.030625 -2.7425 37.06125 -3.125 36.0625 C-4.69308727 32.694187 -4.69308727 32.694187 -8.0625 32.25 C-9.031875 32.1675 -10.00125 32.085 -11 32 C-11.66 31.34 -12.32 30.68 -13 30 C-14.98387708 28.96838392 -16.98276656 27.96476382 -19 27 C-18.65213292 28.97536745 -18.65213292 28.97536745 -18 31 C-17.34 31.33 -16.68 31.66 -16 32 C-16.33 32.99 -16.66 33.98 -17 35 C-19.31 33.02 -21.62 31.04 -24 29 C-22.25 26 -22.25 26 -20 23 C-18.68 23 -17.36 23 -16 23 C-16 22.01 -16 21.02 -16 20 C-15.34 19.34 -14.68 18.68 -14 18 C-13.83318891 14.91652174 -13.83318891 14.91652174 -14 12 C-13.34 11.67 -12.68 11.34 -12 11 C-12 12.32 -12 13.64 -12 15 C-10.35 14.01 -8.7 13.02 -7 12 C-7.50603992 14.16874252 -7.99983813 15.99967627 -9 18 C-8.236875 17.79375 -7.47375 17.5875 -6.6875 17.375 C-4 17 -4 17 -1 19 C-0.67 17.35 -0.34 15.7 0 14 C-0.99 13.67 -1.98 13.34 -3 13 C-3.625 10.6875 -3.625 10.6875 -4 8 C-3.34 7.01 -2.68 6.02 -2 5 C-1.34 5 -0.68 5 0 5 C0 3.35 0 1.7 0 0 Z " fill="#6A4F45" transform="translate(258,160)"/>
<path d="M0 0 C2.40478307 2.40478307 2.53296389 3.68909543 3.18359375 6.98828125 C3.38919922 8.00599609 3.59480469 9.02371094 3.80664062 10.07226562 C4.01482422 11.14154297 4.22300781 12.21082031 4.4375 13.3125 C4.85135668 15.39222772 5.26672945 17.4716543 5.68359375 19.55078125 C5.89508057 20.61119629 6.10656738 21.67161133 6.32446289 22.76416016 C6.99962331 25.99819566 7.75285528 29.20546244 8.5234375 32.41796875 C10.11541958 39.23103875 11.19578479 46.07728761 12.1875 53 C12.36474609 54.18722656 12.54199219 55.37445313 12.72460938 56.59765625 C13.43168548 61.44071808 14.11078006 66.09643575 14 71 C11.69 71 9.38 71 7 71 C5.57548001 63.00357769 4.4893874 55.03681471 3.7109375 46.953125 C3.60278717 45.85707947 3.49463684 44.76103394 3.38320923 43.6317749 C3.1577728 41.3362548 2.93435448 39.04053567 2.71289062 36.74462891 C2.37446856 33.24450359 2.02750134 29.7452969 1.6796875 26.24609375 C1.46042724 24.00265398 1.2416601 21.75916594 1.0234375 19.515625 C0.92034271 18.47899719 0.81724792 17.44236938 0.71102905 16.37432861 C0.18743941 10.8855056 -0.10751505 5.51363462 0 0 Z " fill="#8D3026" transform="translate(351,382)"/>
<path d="M0 0 C2 2 2 2 3.3046875 4.7734375 C5.73158663 9.39237456 9.21726284 12.68568937 12.8203125 16.4140625 C14.82286943 18.78985584 15.64528616 19.97783805 16 23 C11.94670358 25.83885455 8.63772473 26.53589367 3.75 27.0625 C1.49175846 27.30847029 -0.76305639 27.60472855 -3 28 C-3.33 28.66 -3.66 29.32 -4 30 C-4.99 30 -5.98 30 -7 30 C-7 29.01 -7 28.02 -7 27 C-6.01 27 -5.02 27 -4 27 C-3.95101563 26.21238281 -3.90203125 25.42476562 -3.8515625 24.61328125 C-2.32147395 2.32147395 -2.32147395 2.32147395 0 0 Z " fill="#F8EEDB" transform="translate(359,508)"/>
<path d="M0 0 C1.24546405 2.49092811 0.7767578 3.41080733 0 6 C2.18321646 7.44437483 4.37119246 8.88049052 6.5625 10.3125 C7.17158203 10.71662109 7.78066406 11.12074219 8.40820312 11.53710938 C12.46273506 14.17577302 16.4907506 16.19630024 21 18 C22.09183594 18.45761719 23.18367188 18.91523438 24.30859375 19.38671875 C25.34113281 19.81597656 26.37367188 20.24523437 27.4375 20.6875 C28.48808594 21.12449219 29.53867187 21.56148438 30.62109375 22.01171875 C31.79865234 22.50091797 31.79865234 22.50091797 33 23 C26.50079205 25.20208458 19.45959126 22.15076705 13.53515625 19.37890625 C8.17985965 16.52642868 2.91371295 13.57160927 -2 10 C-2 9.34 -2 8.68 -2 8 C-7.64245332 10.74062018 -10.86982897 14.77440456 -12.91015625 20.59765625 C-15.05451342 28.60397473 -16.04579337 36.78259699 -17 45 C-17.66 45 -18.32 45 -19 45 C-19.02578125 45.97582031 -19.0515625 46.95164062 -19.078125 47.95703125 C-19.13484375 49.22933594 -19.1915625 50.50164062 -19.25 51.8125 C-19.29640625 53.07707031 -19.3428125 54.34164062 -19.390625 55.64453125 C-20 59 -20 59 -21.921875 60.94921875 C-24 62 -24 62 -26 62 C-25.80664062 61.443125 -25.61328125 60.88625 -25.4140625 60.3125 C-25.15367187 59.549375 -24.89328125 58.78625 -24.625 58 C-24.24214844 56.88625 -24.24214844 56.88625 -23.8515625 55.75 C-21.76206949 49.00227944 -20.57151167 42.51078957 -19.875 35.5 C-19.78863281 34.67757812 -19.70226562 33.85515625 -19.61328125 33.0078125 C-19.40376148 31.00573474 -19.20114956 29.00293603 -19 27 C-18.34 27 -17.68 27 -17 27 C-16.95875 25.865625 -16.9175 24.73125 -16.875 23.5625 C-15.86883894 15.66693056 -10.5610782 10.06192384 -4.546875 5.28515625 C-2.68575012 3.73891866 -1.32145409 2.02104744 0 0 Z " fill="#C2816E" transform="translate(282,248)"/>
<path d="M0 0 C0.33 2.31 0.66 4.62 1 7 C-0.175625 7.5775 -1.35125 8.155 -2.5625 8.75 C-10.29018256 12.59826221 -10.29018256 12.59826221 -17.125 17.8125 C-20 20 -20 20 -22.875 19.8125 C-23.57625 19.544375 -24.2775 19.27625 -25 19 C-25.734375 16.74609375 -25.734375 16.74609375 -26 14 C-20.390783 6.33899047 -9.55649253 -0.55967745 0 0 Z " fill="#76544E" transform="translate(300,178)"/>
<path d="M0 0 C1 3 1 3 -0.51171875 6.6171875 C-1.22663588 8.04169649 -1.95237721 9.4608123 -2.6875 10.875 C-3.21633789 11.93654297 -3.21633789 11.93654297 -3.75585938 13.01953125 C-8.9935183 23.30334421 -8.9935183 23.30334421 -12.90698242 24.66210938 C-15.18420593 25.16092255 -17.43852996 25.51158723 -19.75 25.8125 C-20.54277344 25.93302734 -21.33554688 26.05355469 -22.15234375 26.17773438 C-24.09878862 26.47087366 -26.04911476 26.73803615 -28 27 C-28 26.34 -28 25.68 -28 25 C-26.56504815 23.76527399 -25.12376768 22.53677934 -23.64453125 21.35546875 C-21.79644951 19.87637449 -21.79644951 19.87637449 -19.5 17.5 C-16.77837804 14.77837804 -14.03828379 12.36310961 -11 10 C-10.34 10 -9.68 10 -9 10 C-8.7525 9.401875 -8.505 8.80375 -8.25 8.1875 C-6.81927475 5.68373081 -5.4308418 4.51927612 -3 3 C-2.34 3 -1.68 3 -1 3 C-0.67 2.01 -0.34 1.02 0 0 Z " fill="#8C3127" transform="translate(208,339)"/>
<path d="M0 0 C0.88236328 -0.00257813 1.76472656 -0.00515625 2.67382812 -0.0078125 C3.59744141 -0.00007812 4.52105469 0.00765625 5.47265625 0.015625 C6.39240234 0.00789062 7.31214844 0.00015625 8.25976562 -0.0078125 C9.58524414 -0.00394531 9.58524414 -0.00394531 10.9375 0 C11.74695068 0.00225586 12.55640137 0.00451172 13.39038086 0.00683594 C15.53515625 0.265625 15.53515625 0.265625 18.53515625 2.265625 C18.78515625 5.328125 18.78515625 5.328125 18.53515625 8.265625 C16.05916892 10.74161233 9.42655467 9.4511376 6.09765625 9.453125 C4.48407227 9.47149414 4.48407227 9.47149414 2.83789062 9.49023438 C1.81115234 9.49216797 0.78441406 9.49410156 -0.2734375 9.49609375 C-1.69354126 9.50225708 -1.69354126 9.50225708 -3.14233398 9.50854492 C-5.46484375 9.265625 -5.46484375 9.265625 -7.46484375 7.265625 C-6.92328989 1.85008637 -5.43050746 0.01515541 0 0 Z " fill="#735049" transform="translate(331.46484375,172.734375)"/>
<path d="M0 0 C2.475 0.99 2.475 0.99 5 2 C5 2.66 5 3.32 5 4 C5.66 4 6.32 4 7 4 C7 4.66 7 5.32 7 6 C7.66 6 8.32 6 9 6 C9.1875 8.875 9.1875 8.875 9 12 C6 14 6 14 2 14 C2 13.34 2 12.68 2 12 C2.99 11.67 3.98 11.34 5 11 C4.67 10.67 4.34 10.34 4 10 C2.32457024 10.28604898 0.65614657 10.61781233 -1 11 C-1.12375 11.5775 -1.2475 12.155 -1.375 12.75 C-2.02855574 15.10280066 -2.65913896 16.95342262 -4 19 C-5.875 19.9375 -5.875 19.9375 -8 20 C-10.25 18.875 -10.25 18.875 -12 17 C-12.5 14.5625 -12.5 14.5625 -12 12 C-10 9.6875 -10 9.6875 -8 8 C-7.01 8.33 -6.02 8.66 -5 9 C-4.5978125 7.6078125 -4.5978125 7.6078125 -4.1875 6.1875 C-3.08851629 3.23759634 -2.37581439 1.94384814 0 0 Z " fill="#AB4940" transform="translate(172,360)"/>
<path d="M0 0 C3.51769206 5.27653809 3.10579441 10.86392402 3 17 C2.608125 16.34 2.21625 15.68 1.8125 15 C0.14583333 12.70833333 0.14583333 12.70833333 -2.6875 12.75 C-3.450625 12.8325 -4.21375 12.915 -5 13 C-5 14.32 -5 15.64 -5 17 C-7 16 -9 15 -11 14 C-10.67 15.98 -10.34 17.96 -10 20 C-13.71599191 20.20086443 -14.77208445 20.1519437 -18 18 C-18.33 18.99 -18.66 19.98 -19 21 C-19.99 20.34 -20.98 19.68 -22 19 C-22 17.68 -22 16.36 -22 15 C-19.36 15.33 -16.72 15.66 -14 16 C-14.33 13.36 -14.66 10.72 -15 8 C-12.03824877 8.61277612 -10.61941217 9.25372522 -8 11 C-8.12375 10.2575 -8.2475 9.515 -8.375 8.75 C-8 6 -8 6 -5 3.6875 C-4.01 3.130625 -3.02 2.57375 -2 2 C-1.67 2.33 -1.34 2.66 -1 3 C-0.67 2.01 -0.34 1.02 0 0 Z " fill="#AD4B41" transform="translate(392,362)"/>
<path d="M0 0 C0.99 0.33 1.98 0.66 3 1 C3 1.66 3 2.32 3 3 C3.5775 3.2475 4.155 3.495 4.75 3.75 C7.43058226 5.23921237 9.04921748 6.61972421 11 9 C11.5390625 11.98828125 11.5390625 11.98828125 11.625 15.3125 C11.85258331 20.24162136 12.37903377 24.35323014 14 29 C6.10095133 22.61999915 0.45859263 15.53630976 -5 7 C-2.03 7.495 -2.03 7.495 1 8 C1.33 7.01 1.66 6.02 2 5 C1.34 4.67 0.68 4.34 0 4 C0 2.68 0 1.36 0 0 Z " fill="#73574C" transform="translate(232,190)"/>
<path d="M0 0 C1.48199902 0.44909061 2.96055236 0.90956564 4.4375 1.375 C5.26121094 1.63023437 6.08492188 1.88546875 6.93359375 2.1484375 C9 3 9 3 10 5 C9.34 5 8.68 5 8 5 C8 5.99 8 6.98 8 8 C7.34 8 6.68 8 6 8 C6.20625 8.7425 6.4125 9.485 6.625 10.25 C7 13 7 13 6.375 15.25 C5 17 5 17 2.375 17.75 C1.59125 17.8325 0.8075 17.915 0 18 C0 17.34 0 16.68 0 16 C0.99 15.34 1.98 14.68 3 14 C2.67 13.67 2.34 13.34 2 13 C0.02 13.99 0.02 13.99 -2 15 C-4 13.8125 -4 13.8125 -6 12 C-6.25 9.3125 -6.25 9.3125 -6 7 C-4.68 6.34 -3.36 5.68 -2 5 C-2 4.34 -2 3.68 -2 3 C-1.34 3 -0.68 3 0 3 C0 2.01 0 1.02 0 0 Z " fill="#AF4A41" transform="translate(344,297)"/>
<path d="M0 0 C0.66 0 1.32 0 2 0 C2.23074219 1.05058594 2.46148437 2.10117188 2.69921875 3.18359375 C4.37208513 10.48195155 6.06379444 16.73697477 10.0078125 23.1796875 C11.54489563 25.9996904 11.70716925 27.88845529 11 31 C8.875 33.875 8.875 33.875 6 36 C2.6875 36.3125 2.6875 36.3125 0 36 C0 35.34 0 34.68 0 34 C1.98 33.01 3.96 32.02 6 31 C6.741471 26.25458561 4.75879224 23.62683536 2.19140625 19.8671875 C-0.37986081 15.83746404 -0.11829559 11.90919856 -0.0625 7.3125 C-0.05798828 6.61060547 -0.05347656 5.90871094 -0.04882812 5.18554688 C-0.03706927 3.45699462 -0.01913454 1.72848635 0 0 Z " fill="#BD7866" transform="translate(324,191)"/>
<path d="M0 0 C3.04316701 1.34257368 4.89180832 3.51820901 7.125 5.9375 C6.465 7.2575 5.805 8.5775 5.125 9.9375 C4.135 9.9375 3.145 9.9375 2.125 9.9375 C2.125 9.2775 2.125 8.6175 2.125 7.9375 C1.135 7.9375 0.145 7.9375 -0.875 7.9375 C-0.545 8.535625 -0.215 9.13375 0.125 9.75 C1.125 11.9375 1.125 11.9375 1.125 14.9375 C0.135 14.9375 -0.855 14.9375 -1.875 14.9375 C-1.875 14.2775 -1.875 13.6175 -1.875 12.9375 C-4.845 12.4425 -4.845 12.4425 -7.875 11.9375 C-6.225 13.5875 -4.575 15.2375 -2.875 16.9375 C-3.205 17.9275 -3.535 18.9175 -3.875 19.9375 C-5.22000955 18.86869777 -6.55071438 17.78187492 -7.875 16.6875 C-8.6175 16.08421875 -9.36 15.4809375 -10.125 14.859375 C-11.875 12.9375 -11.875 12.9375 -11.875 8.9375 C-9.20833333 8.9375 -6.54166667 8.9375 -3.875 8.9375 C-4.205 6.6275 -4.535 4.3175 -4.875 1.9375 C-1.875 -0.0625 -1.875 -0.0625 0 0 Z " fill="#6E564E" transform="translate(330.875,88.0625)"/>
<path d="M0 0 C2.86177795 0.22013677 4.51743851 0.6036102 6.75 2.4375 C9.28492182 5.60615227 9.32004364 7.9994545 9 12 C7.5 14.375 7.5 14.375 6 16 C3.15190074 15.69209738 1.41713852 15.34521809 -0.8125 13.5 C-2.57140928 9.79703311 -2.6000365 6.03660916 -2 2 C-1.34 1.34 -0.68 0.68 0 0 Z " fill="#3B3534" transform="translate(292,199)"/>
<path d="M0 0 C0.33 0.66 0.66 1.32 1 2 C1.556875 1.773125 2.11375 1.54625 2.6875 1.3125 C5.98462608 0.86694242 7.40318302 2.03484121 10 4 C10.33 4.99 10.66 5.98 11 7 C7.42424104 7 5.94704065 5.91159393 3 4 C3.309375 4.763125 3.61875 5.52625 3.9375 6.3125 C4.67893593 8.18789677 5.36228217 10.08684652 6 12 C3.50638429 10.79618552 1.31856917 9.54571278 -1 8 C-1 8.66 -1 9.32 -1 10 C-0.401875 10.226875 0.19625 10.45375 0.8125 10.6875 C3.65550249 12.39330149 4.70007475 13.96684109 6 17 C5.5625 19.25 5.5625 19.25 4 21 C0.875 21.75 0.875 21.75 -2 22 C-2 21.34 -2 20.68 -2 20 C-0.35 19.67 1.3 19.34 3 19 C2.67 18.34 2.34 17.68 2 17 C1.01 17.66 0.02 18.32 -1 19 C-1.99 19 -2.98 19 -4 19 C-3.37968409 12.42465139 -1.85102717 6.33307408 0 0 Z " fill="#913D35" transform="translate(231,407)"/>
<path d="M0 0 C1.24546405 2.49092811 0.7767578 3.41080733 0 6 C2.18321646 7.44437483 4.37119246 8.88049052 6.5625 10.3125 C7.17158203 10.71662109 7.78066406 11.12074219 8.40820312 11.53710938 C12.46273506 14.17577302 16.4907506 16.19630024 21 18 C22.09183594 18.45761719 23.18367188 18.91523438 24.30859375 19.38671875 C25.34113281 19.81597656 26.37367188 20.24523437 27.4375 20.6875 C28.48808594 21.12449219 29.53867187 21.56148438 30.62109375 22.01171875 C31.79865234 22.50091797 31.79865234 22.50091797 33 23 C26.50079205 25.20208458 19.45959126 22.15076705 13.53515625 19.37890625 C8.17985965 16.52642868 2.91371295 13.57160927 -2 10 C-2 9.34 -2 8.68 -2 8 C-2.66 7.67 -3.32 7.34 -4 7 C-1.125 1.125 -1.125 1.125 0 0 Z " fill="#C08072" transform="translate(282,248)"/>
<path d="M0 0 C2.3125 -0.25 2.3125 -0.25 5 0 C7.78767132 2.40316493 7.98892571 3.87375308 8.3125 7.5625 C8 11 8 11 6 14 C3.375 14.1875 3.375 14.1875 1 14 C-1.61007735 10.08488397 -1.22006613 6.5480334 -1 2 C-0.67 1.34 -0.34 0.68 0 0 Z " fill="#443A35" transform="translate(333,191)"/>
<path d="M0 0 C2.49361571 1.20381448 4.68143083 2.45428722 7 4 C6.67 4.99 6.34 5.98 6 7 C5.34 7 4.68 7 4 7 C3.67 7.99 3.34 8.98 3 10 C1.75 11.75 1.75 11.75 0 13 C-2.5 13 -2.5 13 -5 12 C-6.8125 9.4375 -6.8125 9.4375 -8 7 C-6.25 4.9375 -6.25 4.9375 -4 3 C-1.60211564 3.21157803 -0.14415639 3.92792181 2 5 C1.34 3.35 0.68 1.7 0 0 Z " fill="#AC4940" transform="translate(183,350)"/>
<path d="M0 0 C2.4375 0.25 2.4375 0.25 5 1 C7.40119059 4.60178588 7.43771322 7.50866369 7.625 11.6875 C7.66367188 12.38939453 7.70234375 13.09128906 7.7421875 13.81445312 C7.8362334 15.54254655 7.9191968 17.27123675 8 19 C7.34 19 6.68 19 6 19 C4.40837921 13.42932723 3.79325056 8.78898419 4 3 C3.01 3.33 2.02 3.66 1 4 C0.67 5.65 0.34 7.3 0 9 C-0.66 9 -1.32 9 -2 9 C-2.33 16.92 -2.66 24.84 -3 33 C-3.33 33 -3.66 33 -4 33 C-4.31459367 21.96591843 -4.51809183 11.60896087 -1 1 C-0.67 0.67 -0.34 0.34 0 0 Z " fill="#ECC0A4" transform="translate(219,250)"/>
<path d="M0 0 C2.31 1.65 4.62 3.3 7 5 C4.85882353 11.09411765 4.85882353 11.09411765 2 13 C-0.5625 12.875 -0.5625 12.875 -3 12 C-5 9 -5 9 -4.875 6.5625 C-3.83687696 3.52228253 -2.39854906 2.08905886 0 0 Z " fill="#AA473E" transform="translate(334,308)"/>
<path d="M0 0 C-3.6209063 3.99263432 -7.22938746 6.45163875 -12.125 8.75 C-12.74503906 9.05292969 -13.36507813 9.35585938 -14.00390625 9.66796875 C-16.64079278 10.94388159 -19.21820492 12.07273497 -22 13 C-22.33 11.68 -22.66 10.36 -23 9 C-5.30088496 -1.76696165 -5.30088496 -1.76696165 0 0 Z " fill="#E7B59A" transform="translate(404,514)"/>
<path d="M0 0 C3.875 0.875 3.875 0.875 5 2 C4.77265843 6.01636782 4.57290919 8.32292551 1.9375 11.4375 C1.298125 11.953125 0.65875 12.46875 0 13 C0.309375 13.598125 0.61875 14.19625 0.9375 14.8125 C2 17 2 17 3 20 C1.68 19.34 0.36 18.68 -1 18 C-1 17.34 -1 16.68 -1 16 C-5.00510159 19.26341611 -6.74027787 23.2630885 -8.8515625 27.85546875 C-10 30 -10 30 -12 31 C-10.57620767 21.94401854 -5.73698561 14.02561664 0.77734375 7.71875 C2.24470681 6.06283144 2.24470681 6.06283144 1.75390625 3.90625 C1.01573064 1.95902477 1.01573064 1.95902477 0 0 Z " fill="#BA7E6B" transform="translate(269,228)"/>
<path d="M0 0 C0 1.32 0 2.64 0 4 C0.99 4 1.98 4 3 4 C3.25 6.3125 3.25 6.3125 3 9 C0.95575462 10.97610386 -0.1176825 12 -3 12 C-5.6113848 9.92625325 -6.86829899 8.77139161 -7.4375 5.4375 C-7 3 -7 3 -5.75 1.1875 C-4 0 -4 0 0 0 Z " fill="#AA463D" transform="translate(202,334)"/>
<path d="M0 0 C2.46278801 2.46278801 2.99771255 4.70676982 4 8 C3.35160156 8.33 2.70320313 8.66 2.03515625 9 C-0.5175848 11.5086438 -0.46731008 13.31956031 -0.56054688 16.8046875 C-0.56119141 17.52914062 -0.56183594 18.25359375 -0.5625 19 C-0.6086843 26.4158786 -0.6086843 26.4158786 -2.33984375 29 C-4 30 -4 30 -7 30 C-7 29.01 -7 28.02 -7 27 C-6.01 27 -5.02 27 -4 27 C-3.95101563 26.21238281 -3.90203125 25.42476562 -3.8515625 24.61328125 C-2.32147395 2.32147395 -2.32147395 2.32147395 0 0 Z " fill="#F5E1CC" transform="translate(359,508)"/>
<path d="M0 0 C0.33 0 0.66 0 1 0 C1 4.95 1 9.9 1 15 C0.34 15 -0.32 15 -1 15 C-1.02578125 15.97582031 -1.0515625 16.95164062 -1.078125 17.95703125 C-1.13484375 19.22933594 -1.1915625 20.50164062 -1.25 21.8125 C-1.29640625 23.07707031 -1.3428125 24.34164063 -1.390625 25.64453125 C-2 29 -2 29 -3.921875 30.94921875 C-6 32 -6 32 -8 32 C-7.56042969 30.76378906 -7.12085938 29.52757812 -6.66796875 28.25390625 C-4.77396055 22.57188166 -3.53560684 16.79437113 -2.3125 10.9375 C-2.08755859 9.88111328 -1.86261719 8.82472656 -1.63085938 7.73632812 C-1.08263137 5.15849004 -0.53911564 2.57975631 0 0 Z " fill="#BC7A67" transform="translate(264,278)"/>
<path d="M0 0 C7.16431395 0.35234331 7.16431395 0.35234331 10.5 2.9375 C12 5 12 5 12 7 C10.68 7 9.36 7 8 7 C8 7.99 8 8.98 8 10 C7.34 10 6.68 10 6 10 C5.34 9.01 4.68 8.02 4 7 C1.44816596 5.79549696 1.44816596 5.79549696 -1 5 C-1 1 -1 1 0 0 Z " fill="#CF957B" transform="translate(246,194)"/>
<path d="M0 0 C1.65 0 3.3 0 5 0 C4.67 0.66 4.34 1.32 4 2 C4.99 2.33 5.98 2.66 7 3 C7 2.34 7 1.68 7 1 C12.75 0.875 12.75 0.875 15 2 C17.65756465 2.43225449 20.32332885 2.69779519 23 3 C22.67 3.99 22.34 4.98 22 6 C20.02 6.33 18.04 6.66 16 7 C16 6.34 16 5.68 16 5 C14.2365625 5.061875 14.2365625 5.061875 12.4375 5.125 C8.23890561 5.11752919 4.92200653 4.52077804 1 3 C0.67 2.01 0.34 1.02 0 0 Z " fill="#953F38" transform="translate(293,531)"/>
<path d="M0 0 C0.66 0 1.32 0 2 0 C2 0.99 2 1.98 2 3 C2.598125 2.505 3.19625 2.01 3.8125 1.5 C6 0 6 0 9 0 C11.1875 1.8125 11.1875 1.8125 13 4 C13 4.99 13 5.98 13 7 C12.401875 6.690625 11.80375 6.38125 11.1875 6.0625 C8.91043228 4.89790296 8.91043228 4.89790296 6 4 C6.33 4.598125 6.66 5.19625 7 5.8125 C8 8 8 8 8 11 C6.66666667 10.33333333 5.33333333 9.66666667 4 9 C3.278125 8.7525 2.55625 8.505 1.8125 8.25 C0 7 0 7 -0.8125 3.9375 C-0.874375 2.968125 -0.93625 1.99875 -1 1 C-0.67 0.67 -0.34 0.34 0 0 Z " fill="#AE4A41" transform="translate(295,452)"/>
<path d="M0 0 C0.70189453 0.00451172 1.40378906 0.00902344 2.12695312 0.01367188 C3.85550538 0.02543073 5.58401365 0.04336546 7.3125 0.0625 C7.3125 0.7225 7.3125 1.3825 7.3125 2.0625 C0.43247829 4.68346065 -6.40926039 4.24420362 -13.6875 4.0625 C-9.67101983 -0.33650209 -5.64545497 -0.0685256 0 0 Z " fill="#BE7F72" transform="translate(328.6875,239.9375)"/>
<path d="M0 0 C0.33 0 0.66 0 1 0 C1.09796875 0.69867188 1.1959375 1.39734375 1.296875 2.1171875 C1.44640625 3.02726563 1.5959375 3.93734375 1.75 4.875 C1.88921875 5.77992188 2.0284375 6.68484375 2.171875 7.6171875 C2.77983843 10.16214243 2.77983843 10.16214243 5.078125 11.3203125 C5.71234375 11.54460937 6.3465625 11.76890625 7 12 C5.68 12 4.36 12 3 12 C3 12.66 3 13.32 3 14 C2.34 14 1.68 14 1 14 C0.67 14.99 0.34 15.98 0 17 C-0.6987693 15.23358317 -1.38366583 13.46167336 -2.0625 11.6875 C-2.44535156 10.70136719 -2.82820313 9.71523437 -3.22265625 8.69921875 C-4 6 -4 6 -3 3 C-2.01 2.67 -1.02 2.34 0 2 C0 1.34 0 0.68 0 0 Z " fill="#ECA88F" transform="translate(331,194)"/>
<path d="M0 0 C0.33 0.99 0.66 1.98 1 3 C2.65 2.34 4.3 1.68 6 1 C7.65 2.65 9.3 4.3 11 6 C10.01 6.33 9.02 6.66 8 7 C8 6.34 8 5.68 8 5 C7.34 5 6.68 5 6 5 C6 4.34 6 3.68 6 3 C5.01 3.495 5.01 3.495 4 4 C4 5.32 4 6.64 4 8 C4.66 8.33 5.32 8.66 6 9 C6 9.99 6 10.98 6 12 C5.01 11.67 4.02 11.34 3 11 C2.67 10.34 2.34 9.68 2 9 C1.34 8.731875 0.68 8.46375 0 8.1875 C-2 7 -2 7 -2.75 4.375 C-2.8325 3.59125 -2.915 2.8075 -3 2 C-2.01 1.34 -1.02 0.68 0 0 Z " fill="#AD4A41" transform="translate(187,341)"/>
<path d="M0 0 C-0.4640625 1.1446875 -0.4640625 1.1446875 -0.9375 2.3125 C-1.67893593 4.18789677 -2.36228217 6.08684652 -3 8 C0.12197478 6.6910428 0.12197478 6.6910428 2 4 C2.66 4 3.32 4 4 4 C3.8125 6.375 3.8125 6.375 3 9 C0.6875 10.5 0.6875 10.5 -2 11 C-4.3125 9.9375 -4.3125 9.9375 -6 8 C-6.4375 5.5 -6.4375 5.5 -6 3 C-4.01004621 0.25196858 -3.48943694 0 0 0 Z " fill="#AD4840" transform="translate(256,389)"/>
<path d="M0 0 C0.66 0 1.32 0 2 0 C4 3 4 3 4 6 C2.5390625 7.60546875 2.5390625 7.60546875 0.625 9.1875 C-0.31472656 9.98220703 -0.31472656 9.98220703 -1.2734375 10.79296875 C-3 12 -3 12 -5 12 C-4.52583422 7.02125936 -3.0900669 3.93281242 0 0 Z " fill="#F6E0CD" transform="translate(266,244)"/>
<path d="M0 0 C1.48199902 0.44909061 2.96055236 0.90956564 4.4375 1.375 C5.26121094 1.63023437 6.08492188 1.88546875 6.93359375 2.1484375 C9 3 9 3 10 5 C9.34 5 8.68 5 8 5 C8 5.99 8 6.98 8 8 C7.01 8.33 6.02 8.66 5 9 C3.17578125 8.00390625 3.17578125 8.00390625 1.3125 6.5625 C0.68988281 6.08941406 0.06726563 5.61632812 -0.57421875 5.12890625 C-1.04472656 4.75636719 -1.51523437 4.38382812 -2 4 C-1.34 3.67 -0.68 3.34 0 3 C0 2.01 0 1.02 0 0 Z " fill="#A85044" transform="translate(344,297)"/>
<path d="M0 0 C0.33 0 0.66 0 1 0 C1 8.58 1 17.16 1 26 C0.67 26 0.34 26 0 26 C0 22.04 0 18.08 0 14 C-0.99 13.67 -1.98 13.34 -3 13 C-3.625 10.6875 -3.625 10.6875 -4 8 C-3.34 7.01 -2.68 6.02 -2 5 C-1.34 5 -0.68 5 0 5 C0 3.35 0 1.7 0 0 Z " fill="#815F52" transform="translate(258,160)"/>
<path d="M0 0 C2.69082872 0.17635452 5.32851446 0.61835921 8 1 C8 1.33 8 1.66 8 2 C6.02 2 4.04 2 2 2 C2.02320313 3.15757812 2.04640625 4.31515625 2.0703125 5.5078125 C2.08908148 7.04686851 2.10728046 8.58593155 2.125 10.125 C2.15013672 11.26582031 2.15013672 11.26582031 2.17578125 12.4296875 C2.21546246 17.03270731 1.75907577 20.66464004 0 25 C-0.85916865 22.02191841 -1.1285051 19.36501083 -1.1328125 16.26953125 C-1.13410156 15.38458984 -1.13539063 14.49964844 -1.13671875 13.58789062 C-1.13285156 12.67201172 -1.12898438 11.75613281 -1.125 10.8125 C-1.12886719 9.88501953 -1.13273437 8.95753906 -1.13671875 8.00195312 C-1.13542969 7.12087891 -1.13414062 6.23980469 -1.1328125 5.33203125 C-1.13168457 4.52483643 -1.13055664 3.7176416 -1.12939453 2.88598633 C-1 1 -1 1 0 0 Z " fill="#9E4C33" transform="translate(357,452)"/>
<path d="M0 0 C0.66 0.66 1.32 1.32 2 2 C1.03900391 2.72703125 1.03900391 2.72703125 0.05859375 3.46875 C-5.62157702 7.87067072 -10.49897386 12.39607341 -15 18 C-15.83583327 15.62392051 -16.1842383 14.45550373 -15.22265625 12.078125 C-13.61132812 9.5390625 -13.61132812 9.5390625 -12 7 C-11.67 7.66 -11.34 8.32 -11 9 C-10.27683594 8.3503125 -10.27683594 8.3503125 -9.5390625 7.6875 C-8.59160156 6.8521875 -8.59160156 6.8521875 -7.625 6 C-6.99851562 5.443125 -6.37203125 4.88625 -5.7265625 4.3125 C-4 3 -4 3 -2 3 C-2 2.34 -2 1.68 -2 1 C-1.34 0.67 -0.68 0.34 0 0 Z " fill="#CF957E" transform="translate(272,247)"/>
<path d="M0 0 C4.97186291 -0.56285241 8.02514589 -0.06631603 12 3 C14.29013653 6.4352048 14.17842973 7.985331 14 12 C12.25728062 9.702779 10.60088848 7.40133271 9 5 C6.35308332 4.19907746 6.35308332 4.19907746 3.375 3.8125 C1.87066406 3.57466797 1.87066406 3.57466797 0.3359375 3.33203125 C-0.43492187 3.22246094 -1.20578125 3.11289063 -2 3 C-1.34 2.01 -0.68 1.02 0 0 Z " fill="#533A31" transform="translate(330,113)"/>
<path d="M0 0 C0.99 0 1.98 0 3 0 C2.34 1.32 1.68 2.64 1 4 C1.33 4.33 1.66 4.66 2 5 C3.81361417 9.48069384 4.19263454 13.18413661 4 18 C3.67 18 3.34 18 3 18 C3 16.02 3 14.04 3 12 C2.21625 11.773125 1.4325 11.54625 0.625 11.3125 C-2 10 -2 10 -3.3125 7.375 C-3.539375 6.59125 -3.76625 5.8075 -4 5 C-2.1875 2.5 -2.1875 2.5 0 0 Z " fill="#AC4B42" transform="translate(353,504)"/>
<path d="M0 0 C2.31 0.66 4.62 1.32 7 2 C7 2.66 7 3.32 7 4 C6.01 4 5.02 4 4 4 C5.65 5.65 7.3 7.3 9 9 C8.67 9.99 8.34 10.98 8 12 C1.51714231 7.92654664 1.51714231 7.92654664 -0.5 4.3125 C-1 2 -1 2 0 0 Z " fill="#AE4A41" transform="translate(256,491)"/>
<path d="M0 0 C0.66 0 1.32 0 2 0 C1.58997722 15.74487472 1.58997722 15.74487472 -3 23 C-4.07072588 19.78782235 -3.94578406 19.01196921 -3.125 15.875 C-2.14733793 11.86592937 -1.6010934 7.95550934 -1.24609375 3.84765625 C-1 2 -1 2 0 0 Z " fill="#913024" transform="translate(370,318)"/>
<path d="M0 0 C0.33 0.66 0.66 1.32 1 2 C1.66 2 2.32 2 3 2 C3 4.31 3 6.62 3 9 C2.34 9 1.68 9 1 9 C1 10.98 1 12.96 1 15 C0.67 15 0.34 15 0 15 C-1.45184478 10.46298506 -2.23509196 6.81938524 -2 2 C-3.32 1.67 -4.64 1.34 -6 1 C-4.02 0.67 -2.04 0.34 0 0 Z " fill="#EAB09B" transform="translate(349,181)"/>
<path d="M0 0 C0.99 0.33 1.98 0.66 3 1 C2.01 1.66 1.02 2.32 0 3 C-0.25030977 5.58380177 -0.25030977 5.58380177 0 8 C1.98491642 7.73323796 1.98491642 7.73323796 4 7 C4.33 6.01 4.66 5.02 5 4 C5.66 4 6.32 4 7 4 C7.33 4.99 7.66 5.98 8 7 C6.3125 9.0625 6.3125 9.0625 4 11 C0.60845705 10.83849795 -0.58296757 10.41703243 -3 8 C-3.3125 5.5625 -3.3125 5.5625 -3 3 C-1.5 1.1875 -1.5 1.1875 0 0 Z " fill="#AE4840" transform="translate(308,444)"/>
<path d="M0 0 C0.33 0 0.66 0 1 0 C1.19908703 6.02066638 0.5380656 11.32850087 -0.8125 17.1875 C-0.97814453 17.96802734 -1.14378906 18.74855469 -1.31445312 19.55273438 C-2.2755499 23.82870831 -3.28885507 27.44918288 -6 31 C-6.66 31 -7.32 31 -8 31 C-5.27206092 21.55862219 -5.27206092 21.55862219 -3.4375 17.1875 C-1.28736048 11.69898595 -0.7529931 5.81133495 0 0 Z " fill="#FADFC7" transform="translate(352,227)"/>
<path d="M0 0 C0.66 0 1.32 0 2 0 C2 3.3 2 6.6 2 10 C-0.31 9.67 -2.62 9.34 -5 9 C-5 8.01 -5 7.02 -5 6 C-5.66 6 -6.32 6 -7 6 C-7 4.35 -7 2.7 -7 1 C-5.515 1.99 -5.515 1.99 -4 3 C-3.8125 5.625 -3.8125 5.625 -4 8 C-2.68 5.36 -1.36 2.72 0 0 Z " fill="#543C35" transform="translate(217,163)"/>
<path d="M0 0 C0.99 0.33 1.98 0.66 3 1 C2.39305845 4.15330554 1.3583335 6.18888867 -0.5625 8.75 C-1.24505859 9.67039063 -1.24505859 9.67039063 -1.94140625 10.609375 C-2.29074219 11.06828125 -2.64007813 11.5271875 -3 12 C-3.97591583 8.61682513 -3.85856655 6.4342662 -3 3 C-4.32 2.67 -5.64 2.34 -7 2 C-6.21625 2.04125 -5.4325 2.0825 -4.625 2.125 C-1.83883881 2.28728734 -1.83883881 2.28728734 0 0 Z " fill="#F7EAD5" transform="translate(250,225)"/>
<path d="M0 0 C2.92238988 1.1312477 4.99408218 2.59289861 7 5 C7 5.66 7 6.32 7 7 C6.34 7 5.68 7 5 7 C4 6 3 5 2 4 C1.34 4 0.68 4 0 4 C-0.33 4.99 -0.66 5.98 -1 7 C-0.34 7 0.32 7 1 7 C1.33 8.65 1.66 10.3 2 12 C0.02 10.35 -1.96 8.7 -4 7 C-3.39816251 4.97954558 -2.72693904 2.97888961 -2 1 C-1.34 0.67 -0.68 0.34 0 0 Z " fill="#AE4A41" transform="translate(345,518)"/>
<path d="M0 0 C1.65 0.33 3.3 0.66 5 1 C4.67 2.65 4.34 4.3 4 6 C2.88625 6.309375 1.7725 6.61875 0.625 6.9375 C-2.7945155 7.82326483 -2.7945155 7.82326483 -5 9 C-5 7.35 -5 5.7 -5 4 C-3.35 3.67 -1.7 3.34 0 3 C0 2.01 0 1.02 0 0 Z " fill="#EABBA5" transform="translate(411,507)"/>
<path d="M0 0 C0.33 0.99 0.66 1.98 1 3 C0.01 3.33 -0.98 3.66 -2 4 C-3.02700444 6.32891096 -3.02700444 6.32891096 -3.6875 9.0625 C-3.93886719 9.98160156 -4.19023438 10.90070313 -4.44921875 11.84765625 C-4.63097656 12.55792969 -4.81273438 13.26820313 -5 14 C-5.66 13.67 -6.32 13.34 -7 13 C-7 10.03 -7 7.06 -7 4 C-6.34 4 -5.68 4 -5 4 C-5 3.34 -5 2.68 -5 2 C-3.35 2 -1.7 2 0 2 C0 1.34 0 0.68 0 0 Z " fill="#AE8B63" transform="translate(131,431)"/>
<path d="M0 0 C0.82741699 0.01047363 1.65483398 0.02094727 2.50732422 0.03173828 C3.40322266 0.03818359 4.29912109 0.04462891 5.22216797 0.05126953 C6.62789063 0.07640625 6.62789063 0.07640625 8.06201172 0.10205078 C9.00689453 0.11107422 9.95177734 0.12009766 10.92529297 0.12939453 C13.26278464 0.15300556 15.59977295 0.18593562 17.93701172 0.22705078 C17.93701172 0.55705078 17.93701172 0.88705078 17.93701172 1.22705078 C8.53201172 1.72205078 8.53201172 1.72205078 -1.06298828 2.22705078 C-1.39298828 4.20705078 -1.72298828 6.18705078 -2.06298828 8.22705078 C-0.08298828 8.22705078 1.89701172 8.22705078 3.93701172 8.22705078 C3.93701172 8.55705078 3.93701172 8.88705078 3.93701172 9.22705078 C0.56201172 9.35205078 0.56201172 9.35205078 -3.06298828 9.22705078 C-3.72298828 8.56705078 -4.38298828 7.90705078 -5.06298828 7.22705078 C-4.69019033 3.49907125 -4.24216164 0.4668888 0 0 Z " fill="#956756" transform="translate(329.06298828125,172.77294921875)"/>
<path d="M0 0 C0.33 1.32 0.66 2.64 1 4 C2.65 3.01 4.3 2.02 6 1 C5.773125 1.886875 5.54625 2.77375 5.3125 3.6875 C4.94548054 7.57790624 5.73118159 8.91440696 8 12 C7.01 12 6.02 12 5 12 C4.34 11.01 3.68 10.02 3 9 C0.94996045 7.80767387 0.94996045 7.80767387 -1 7 C-1.04254356 5.00045254 -1.04080783 2.99958364 -1 1 C-0.67 0.67 -0.34 0.34 0 0 Z " fill="#70564E" transform="translate(245,171)"/>
<path d="M0 0 C3.67132431 0.45086439 5.60236458 1.28467424 8.5625 3.4375 C8.2325 4.4275 7.9025 5.4175 7.5625 6.4375 C6.5725 5.7775 5.5825 5.1175 4.5625 4.4375 C1.58800392 4.19530685 1.58800392 4.19530685 -1.625 4.3125 C-2.71167969 4.33054687 -3.79835938 4.34859375 -4.91796875 4.3671875 C-5.74941406 4.39039062 -6.58085937 4.41359375 -7.4375 4.4375 C-3.8671875 0.4921875 -3.8671875 0.4921875 0 0 Z " fill="#553B33" transform="translate(279.4375,99.5625)"/>
<path d="M0 0 C5.28 0 10.56 0 16 0 C16 0.33 16 0.66 16 1 C13.03 1 10.06 1 7 1 C7 1.66 7 2.32 7 3 C7.99 3.33 8.98 3.66 10 4 C8.54176788 4.0270043 7.08339325 4.04639787 5.625 4.0625 C4.81289063 4.07410156 4.00078125 4.08570313 3.1640625 4.09765625 C1 4 1 4 -1 3 C-0.67 2.01 -0.34 1.02 0 0 Z " fill="#9F4E4A" transform="translate(328,535)"/>
<path d="M0 0 C0.33 0 0.66 0 1 0 C1.03738281 0.60328125 1.07476562 1.2065625 1.11328125 1.828125 C1.49324802 6.4473289 1.75179373 9.46934101 5 13 C5 13.66 5 14.32 5 15 C3 14 1 13 -1 12 C-1.33 12.99 -1.66 13.98 -2 15 C-3.18024637 10.86913771 -2.74072356 8.86827457 -1 5 C-0.63128912 3.34080104 -0.28718326 1.6752357 0 0 Z " fill="#A8503E" transform="translate(326,308)"/>
<path d="M0 0 C0.99 0.33 1.98 0.66 3 1 C3.04254356 2.99954746 3.04080783 5.00041636 3 7 C2.67 7.33 2.34 7.66 2 8 C-0.53541298 7.90913549 -3.03554784 7.7629055 -5.5625 7.5625 C-6.27341797 7.51029297 -6.98433594 7.45808594 -7.71679688 7.40429688 C-9.47821999 7.27425893 -11.23916173 7.13773103 -13 7 C-13 6.67 -13 6.34 -13 6 C-9.04 6 -5.08 6 -1 6 C-0.67 4.02 -0.34 2.04 0 0 Z " fill="#8E6358" transform="translate(347,174)"/>
<path d="M0 0 C2 3 2 3 1.8125 5.25 C0.80660001 8.65458459 -0.54040868 11.76351489 -2 15 C-2.66 15 -3.32 15 -4 15 C-3.50341703 9.33895411 -2.45489316 5.12325529 0 0 Z " fill="#944333" transform="translate(243,361)"/>
<path d="M0 0 C-1.04874998 2.62187494 -1.64931313 3.79371361 -4.125 5.25 C-4.74375 5.4975 -5.3625 5.745 -6 6 C-6 6.99 -6 7.98 -6 9 C-4.35 9 -2.7 9 -1 9 C-1.33 9.99 -1.66 10.98 -2 12 C-3.65 11.67 -5.3 11.34 -7 11 C-7.875 8.875 -7.875 8.875 -8 6 C-5.98960691 3.2037855 -3.61259363 0 0 0 Z " fill="#865A4B" transform="translate(282,186)"/>
<path d="M0 0 C0.33 0 0.66 0 1 0 C1 3.96 1 7.92 1 12 C-0.98 12.99 -0.98 12.99 -3 14 C-3 11.03 -3 8.06 -3 5 C-2.34 5 -1.68 5 -1 5 C-0.67 3.35 -0.34 1.7 0 0 Z " fill="#CA9C84" transform="translate(348,138)"/>
<path d="M0 0 C3 1 3 1 4.1875 3.1875 C5.09471053 6.32784414 5.3611707 8.74946367 5 12 C1.77208445 14.1519437 0.71599191 14.20086443 -3 14 C-2.67 13.34 -2.34 12.68 -2 12 C0.5625 11.375 0.5625 11.375 3 11 C2.690625 9.9275 2.38125 8.855 2.0625 7.75 C1.33187904 5.17133778 0.62517096 2.60487898 0 0 Z " fill="#553934" transform="translate(324,122)"/>
<path d="M0 0 C0.79148437 -0.01417969 1.58296875 -0.02835937 2.3984375 -0.04296875 C4.625 0.1875 4.625 0.1875 7.625 2.1875 C4.325 2.1875 1.025 2.1875 -2.375 2.1875 C-2.49875 3.79625 -2.6225 5.405 -2.75 7.0625 C-3.125 11.9375 -3.125 11.9375 -5.375 14.1875 C-5.40185938 12.04173363 -5.42133088 9.89587355 -5.4375 7.75 C-5.44910156 6.55503906 -5.46070313 5.36007812 -5.47265625 4.12890625 C-5.32219474 -0.40299456 -4.12226626 0.03335167 0 0 Z " fill="#AA694B" transform="translate(331.375,293.8125)"/>
<path d="M0 0 C0.33 0 0.66 0 1 0 C1.39397781 3.44730584 1.1644697 4.75613114 -0.8125 7.6875 C-3.60306841 10.63752946 -5.06319663 11.96326261 -9.1875 12.125 C-10.115625 12.08375 -11.04375 12.0425 -12 12 C-11.01 11.34 -10.02 10.68 -9 10 C-4.98446016 6.90468804 -2.44725637 4.50810384 0 0 Z " fill="#553A33" transform="translate(278,128)"/>
<path d="M0 0 C2.875 -0.125 2.875 -0.125 6 0 C6.66 0.66 7.32 1.32 8 2 C7.67 2.66 7.34 3.32 7 4 C7.66 4.33 8.32 4.66 9 5 C5.7 4.67 2.4 4.34 -1 4 C-0.67 2.68 -0.34 1.36 0 0 Z " fill="#974036" transform="translate(283,529)"/>
<path d="M0 0 C1.24546405 2.49092811 0.7767578 3.41080733 0 6 C2.475 7.98 2.475 7.98 5 10 C3.02 10.99 3.02 10.99 1 12 C0.01 11.34 -0.98 10.68 -2 10 C-2 9.34 -2 8.68 -2 8 C-2.66 7.67 -3.32 7.34 -4 7 C-1.125 1.125 -1.125 1.125 0 0 Z " fill="#C68878" transform="translate(282,248)"/>
<path d="M0 0 C0.66 0.33 1.32 0.66 2 1 C1.01 3.97 0.02 6.94 -1 10 C-1.66 10 -2.32 10 -3 10 C-3.2475 10.598125 -3.495 11.19625 -3.75 11.8125 C-5.16370012 14.28647521 -6.65055383 15.43370255 -9 17 C-9 16.01 -9 15.02 -9 14 C-8.01 13.67 -7.02 13.34 -6 13 C-4.87151132 11.20292338 -4.87151132 11.20292338 -4 9 C-3.64679688 8.22140625 -3.29359375 7.4428125 -2.9296875 6.640625 C-2.58164062 5.85171875 -2.23359375 5.0628125 -1.875 4.25 C-1.34519531 3.05117187 -1.34519531 3.05117187 -0.8046875 1.828125 C-0.53914063 1.22484375 -0.27359375 0.6215625 0 0 Z " fill="#EAB89C" transform="translate(345,250)"/>
<path d="M0 0 C1.65 0 3.3 0 5 0 C5 0.66 5 1.32 5 2 C6.32 2.66 7.64 3.32 9 4 C9 6.31 9 8.62 9 11 C8.01 11.495 8.01 11.495 7 12 C6.773125 10.72125 6.54625 9.4425 6.3125 8.125 C5.83899916 5.93067868 5.83899916 5.93067868 5 4 C2.51686936 2.40311361 2.51686936 2.40311361 0 2 C0 1.34 0 0.68 0 0 Z " fill="#543B32" transform="translate(308,96)"/>
<path d="M0 0 C2.46688938 0.49074886 4.93239384 0.98588322 7.39453125 1.5 C12.58704762 2.57373521 17.72995496 3.41443944 23 4 C23 4.33 23 4.66 23 5 C7.86350792 5.63166196 7.86350792 5.63166196 1 2 C0.67 1.34 0.34 0.68 0 0 Z " fill="#AD6742" transform="translate(279,332)"/>
<path d="M0 0 C0.66 1.32 1.32 2.64 2 4 C4.31 4 6.62 4 9 4 C8.34 5.32 7.68 6.64 7 8 C4.69 7.67 2.38 7.34 0 7 C-0.38133299 5.0085944 -0.71325582 3.00720923 -1 1 C-0.67 0.67 -0.34 0.34 0 0 Z " fill="#553B32" transform="translate(295,118)"/>
<path d="M0 0 C1.31600093 3.94800278 0.07613159 6.39940306 -1.3125 10.125 C-1.53873047 10.77082031 -1.76496094 11.41664063 -1.99804688 12.08203125 C-3.73948991 16.86974496 -3.73948991 16.86974496 -6 18 C-5.05613723 11.13215645 -3.86694585 5.80041878 0 0 Z " fill="#D69477" transform="translate(250,243)"/>
<path d="M0 0 C1.98 0 3.96 0 6 0 C5.67 0.99 5.34 1.98 5 3 C5.598125 2.67 6.19625 2.34 6.8125 2 C9 1 9 1 12 1 C12 1.66 12 2.32 12 3 C8.07703567 4.30765478 5.13997567 4.1971417 1 4 C0.34 3.34 -0.32 2.68 -1 2 C-0.67 1.34 -0.34 0.68 0 0 Z " fill="#9A4741" transform="translate(262,526)"/>
<path d="M0 0 C3.3 0 6.6 0 10 0 C7.64046906 2.35953094 6.22104383 2.49141413 3 3 C3.33 4.32 3.66 5.64 4 7 C2.68 6.67 1.36 6.34 0 6 C0 4.02 0 2.04 0 0 Z " fill="#B26657" transform="translate(158,521)"/>
<path d="M0 0 C0.66 0 1.32 0 2 0 C2 0.99 2 1.98 2 3 C2.99 2.67 3.98 2.34 5 2 C5.66 2.66 6.32 3.32 7 4 C5.68 5.32 4.36 6.64 3 8 C2.01 7.67 1.02 7.34 0 7 C-0.38133299 5.0085944 -0.71325582 3.00720923 -1 1 C-0.67 0.67 -0.34 0.34 0 0 Z " fill="#953E36" transform="translate(240,397)"/>
<path d="M0 0 C0.99 0.495 0.99 0.495 2 1 C2.31241371 3.54941373 2.51303421 6.00361513 2.625 8.5625 C2.66367188 9.27341797 2.70234375 9.98433594 2.7421875 10.71679688 C2.83671783 12.47742425 2.91945817 14.23867728 3 16 C2.34 16 1.68 16 1 16 C-0.14077657 12.57767028 -0.09815117 9.91326783 -0.0625 6.3125 C-0.05347656 5.13300781 -0.04445312 3.95351563 -0.03515625 2.73828125 C-0.02355469 1.83464844 -0.01195312 0.93101562 0 0 Z " fill="#F5D4BA" transform="translate(224,253)"/>
<path d="M0 0 C1 2 1 2 1 6 C2.32 6.66 3.64 7.32 5 8 C4 9 4 9 1.5625 9.1875 C-1 9 -1 9 -3 7 C-3.3125 4.5 -3.3125 4.5 -3 2 C-2.01 1.34 -1.02 0.68 0 0 Z " fill="#553A33" transform="translate(261,114)"/>
<path d="M0 0 C0.66 0 1.32 0 2 0 C1 2 0 4 -1 6 C-1.66 6 -2.32 6 -3 6 C-3.226875 6.61875 -3.45375 7.2375 -3.6875 7.875 C-5.37929835 10.61410209 -6.99244161 11.05024472 -10 12 C-10 11.34 -10 10.68 -10 10 C-9.34 10 -8.68 10 -8 10 C-8 9.34 -8 8.68 -8 8 C-6.52295788 6.74772516 -5.04172601 5.49833478 -3.5078125 4.31640625 C-1.73237056 2.88235909 -1.73237056 2.88235909 0 0 Z " fill="#912F24" transform="translate(152,415)"/>
<path d="M0 0 C2.625 -0.1875 2.625 -0.1875 5 0 C5 1.65 5 3.3 5 5 C4.67 3.68 4.34 2.36 4 1 C3.59007812 1.5053125 3.18015625 2.010625 2.7578125 2.53125 C2.21898437 3.1809375 1.68015625 3.830625 1.125 4.5 C0.59132812 5.1496875 0.05765625 5.799375 -0.4921875 6.46875 C-0.98976562 6.9740625 -1.48734375 7.479375 -2 8 C-2.66 8 -3.32 8 -4 8 C-2.87548273 5.0280615 -1.77706209 2.66559313 0 0 Z " fill="#EBBA9C" transform="translate(242,228)"/>
<path d="M0 0 C0.33 0 0.66 0 1 0 C1.24887295 2.10192697 1.4734719 4.20673964 1.6875 6.3125 C1.81511719 7.48425781 1.94273437 8.65601563 2.07421875 9.86328125 C2 13 2 13 0.70703125 14.91796875 C-1 16 -1 16 -4 16 C-4 15.01 -4 14.02 -4 13 C-3.01 13 -2.02 13 -1 13 C-0.67 8.71 -0.34 4.42 0 0 Z " fill="#E7C7B7" transform="translate(356,522)"/>
<path d="M0 0 C5.37373222 5.86225333 5.41209089 14.45000936 6 22 C3.91902818 18.87854227 3.55247451 17.19797956 3 13.5625 C2.39902892 9.59746504 2.39902892 9.59746504 0.9375 5.90234375 C0 4 0 4 0 0 Z " fill="#E6C0AE" transform="translate(386,336)"/>
<path d="M0 0 C1.98 0 3.96 0 6 0 C6.33 2.31 6.66 4.62 7 7 C6.01 7.495 6.01 7.495 5 8 C4.67 6.02 4.34 4.04 4 2 C2.35 2.33 0.7 2.66 -1 3 C-0.67 2.01 -0.34 1.02 0 0 Z " fill="#885A4E" transform="translate(294,178)"/>
<path d="M0 0 C3.51769206 5.27653809 3.10579441 10.86392402 3 17 C2.33333333 15.66666667 1.66666667 14.33333333 1 13 C0.608125 12.360625 0.21625 11.72125 -0.1875 11.0625 C-1.25528033 8.35198071 -0.69735918 6.78943673 0 4 C0 2.68 0 1.36 0 0 Z " fill="#B56F64" transform="translate(392,362)"/>
<path d="M0 0 C0.66 0.99 1.32 1.98 2 3 C-0.77762123 6.60062011 -3.73991357 9.83047153 -7 13 C-7.66 12.67 -8.32 12.34 -9 12 C-8.43410156 11.30132812 -7.86820313 10.60265625 -7.28515625 9.8828125 C-6.55167969 8.97273438 -5.81820312 8.06265625 -5.0625 7.125 C-4.33160156 6.22007812 -3.60070312 5.31515625 -2.84765625 4.3828125 C-0.9963748 2.15497253 -0.9963748 2.15497253 0 0 Z " fill="#974636" transform="translate(207,495)"/>
<path d="M0 0 C2.61580479 0.3269756 4.64078137 0.82039068 7 2 C6.67 2.66 6.34 3.32 6 4 C3.03 3.505 3.03 3.505 0 3 C0 5.97 0 8.94 0 12 C-0.66 11.67 -1.32 11.34 -2 11 C-2.05399736 9.54207116 -2.09279177 8.08357288 -2.125 6.625 C-2.15980469 5.40683594 -2.15980469 5.40683594 -2.1953125 4.1640625 C-2 2 -2 2 0 0 Z " fill="#5F483B" transform="translate(292,199)"/>
<path d="M0 0 C0.66 0 1.32 0 2 0 C1.67 3.3 1.34 6.6 1 10 C0.01 9.67 -0.98 9.34 -2 9 C-2.125 5.625 -2.125 5.625 -2 2 C-1.34 1.34 -0.68 0.68 0 0 Z " fill="#533C33" transform="translate(219,140)"/>
<path d="M0 0 C0.99 0.66 1.98 1.32 3 2 C3 2.66 3 3.32 3 4 C4.32 4.66 5.64 5.32 7 6 C6.67 6.66 6.34 7.32 6 8 C4.02 6.35 2.04 4.7 0 3 C-0.66 4.65 -1.32 6.3 -2 8 C-2.93423645 4.98968256 -3.04449911 4.13349732 -2 1 C-1.34 0.67 -0.68 0.34 0 0 Z " fill="#B3714E" transform="translate(255,314)"/>
<path d="M0 0 C0.33 0 0.66 0 1 0 C1.36263859 5.8022175 0.25684543 9.63999211 -2 15 C-3.31534494 11.34142468 -2.65468309 8.91973519 -1.5625 5.25 C-1.27503906 4.26515625 -0.98757812 3.2803125 -0.69140625 2.265625 C-0.46324219 1.51796875 -0.23507813 0.7703125 0 0 Z " fill="#EBC0A3" transform="translate(231,247)"/>
<path d="M0 0 C0.33 0 0.66 0 1 0 C1.09796875 0.69867188 1.1959375 1.39734375 1.296875 2.1171875 C1.44640625 3.02726563 1.5959375 3.93734375 1.75 4.875 C1.88921875 5.77992188 2.0284375 6.68484375 2.171875 7.6171875 C2.77983843 10.16214243 2.77983843 10.16214243 5.078125 11.3203125 C5.71234375 11.54460937 6.3465625 11.76890625 7 12 C5.68 12 4.36 12 3 12 C3 12.66 3 13.32 3 14 C2.34 14 1.68 14 1 14 C-0.38226016 11.23547967 -0.09525387 8.9538637 -0.0625 5.875 C-0.05347656 4.77929688 -0.04445313 3.68359375 -0.03515625 2.5546875 C-0.02355469 1.71164063 -0.01195312 0.86859375 0 0 Z " fill="#C1917B" transform="translate(331,194)"/>
<path d="M0 0 C0.625 1.8125 0.625 1.8125 1 4 C0.01 5.485 0.01 5.485 -1 7 C-0.34 7 0.32 7 1 7 C1.66 8.65 2.32 10.3 3 12 C0.11562221 10.70700306 -1.87219421 9.34058637 -4 7 C-2.68 4.69 -1.36 2.38 0 0 Z " fill="#AA5140" transform="translate(321,321)"/>
<path d="M0 0 C0.66 0 1.32 0 2 0 C0.33333333 5 -1.33333333 10 -3 15 C-3.33 15 -3.66 15 -4 15 C-3.63495936 9.33557626 -2.9445679 4.99296295 0 0 Z " fill="#D49477" transform="translate(242,242)"/>
<path d="M0 0 C0.66 0 1.32 0 2 0 C4 3 4 3 4 6 C2.02 6.99 2.02 6.99 0 8 C-0.66 6.02 -1.32 4.04 -2 2 C-1.34 1.34 -0.68 0.68 0 0 Z " fill="#ECC1AC" transform="translate(266,244)"/>
<path d="M0 0 C0.66 1.32 1.32 2.64 2 4 C0.375 6 0.375 6 -2 8 C-5.25 8.25 -5.25 8.25 -8 8 C-8 7.34 -8 6.68 -8 6 C-5.69 5.34 -3.38 4.68 -1 4 C-0.67 2.68 -0.34 1.36 0 0 Z " fill="#C28069" transform="translate(332,219)"/>
<path d="M0 0 C3.26954202 0.56371414 4.82575883 1.49962266 7 4 C5.68 4.99 4.36 5.98 3 7 C1.5 5.75 1.5 5.75 0 4 C0 2.68 0 1.36 0 0 Z " fill="#A23F36" transform="translate(179,356)"/>
<path d="M0 0 C3.875 0.875 3.875 0.875 5 2 C4.71269945 4.33944736 4.38063221 6.6739143 4 9 C3.01 9 2.02 9 1 9 C1.20625 8.071875 1.4125 7.14375 1.625 6.1875 C2.36692966 2.84826598 2.36692966 2.84826598 0 0 Z " fill="#CB8670" transform="translate(269,228)"/>
<path d="M0 0 C2.375 -0.125 2.375 -0.125 5 0 C7 2 7 2 7 5 C4.69 4.34 2.38 3.68 0 3 C0 2.01 0 1.02 0 0 Z " fill="#EAAF94" transform="translate(247,195)"/>
<path d="M0 0 C0 0.66 0 1.32 0 2 C-0.99 1.67 -1.98 1.34 -3 1 C-5.56634861 0.77281504 -8.11678107 0.58391816 -10.6875 0.4375 C-11.38939453 0.39431641 -12.09128906 0.35113281 -12.81445312 0.30664062 C-14.54275206 0.2008264 -16.2713511 0.09993419 -18 0 C-18 -0.33 -18 -0.66 -18 -1 C-15.75135275 -1.22245975 -13.50097377 -1.42746557 -11.25 -1.625 C-9.37054688 -1.79902344 -9.37054688 -1.79902344 -7.453125 -1.9765625 C-4.16413097 -1.99888599 -2.68979224 -1.77961002 0 0 Z " fill="#D4A28A" transform="translate(350,173)"/>
<path d="M0 0 C2.475 0.495 2.475 0.495 5 1 C5.33 2.65 5.66 4.3 6 6 C5.01 6.66 4.02 7.32 3 8 C2.690625 7.05125 2.38125 6.1025 2.0625 5.125 C1.12605258 2.13919592 1.12605258 2.13919592 0 0 Z " fill="#553B32" transform="translate(233,159)"/>
<path d="M0 0 C1.32 0 2.64 0 4 0 C4 1.65 4 3.3 4 5 C2.35 4.67 0.7 4.34 -1 4 C-0.67 2.68 -0.34 1.36 0 0 Z " fill="#A24035" transform="translate(163,372)"/>
<path d="M0 0 C-0.33 1.65 -0.66 3.3 -1 5 C-2.65 4.67 -4.3 4.34 -6 4 C-6 3.01 -6 2.02 -6 1 C-3.92446352 0.4465236 -2.15634036 0 0 0 Z " fill="#574439" transform="translate(299,210)"/>
<path d="M0 0 C1.98 0.495 1.98 0.495 4 1 C3.67 2.32 3.34 3.64 3 5 C1.68 5 0.36 5 -1 5 C-0.67 3.35 -0.34 1.7 0 0 Z " fill="#A34036" transform="translate(337,529)"/>
<path d="M0 0 C0 1.98 0 3.96 0 6 C-0.99 5.01 -1.98 4.02 -3 3 C-3.33 4.98 -3.66 6.96 -4 9 C-4.33 9 -4.66 9 -5 9 C-5 6.36 -5 3.72 -5 1 C-3 0 -3 0 0 0 Z " fill="#DCA490" transform="translate(362,506)"/>
<path d="M0 0 C0.66 0.33 1.32 0.66 2 1 C2.5625 2.875 2.5625 2.875 3 5 C3.33 5.99 3.66 6.98 4 8 C1.53199953 6.84826645 -0.04783565 5.95216435 -2 4 C-2 3.01 -2 2.02 -2 1 C-1.34 0.67 -0.68 0.34 0 0 Z " fill="#AE4B43" transform="translate(288,466)"/>
<path d="M0 0 C0.33 1.32 0.66 2.64 1 4 C-0.98 4.99 -0.98 4.99 -3 6 C-3.33 4.35 -3.66 2.7 -4 1 C-2.68 0.67 -1.36 0.34 0 0 Z " fill="#A33F34" transform="translate(391,367)"/>
<path d="M0 0 C1.32 0 2.64 0 4 0 C3.67 1.65 3.34 3.3 3 5 C1.68 4.67 0.36 4.34 -1 4 C-0.67 2.68 -0.34 1.36 0 0 Z " fill="#A23F38" transform="translate(341,304)"/>
<path d="M0 0 C0.66 0.99 1.32 1.98 2 3 C0.35 5.64 -1.3 8.28 -3 11 C-4 7 -4 7 -3.22265625 5.078125 C-1.61132812 2.5390625 -1.61132812 2.5390625 0 0 Z " fill="#DDA086" transform="translate(260,254)"/>
<path d="M0 0 C0.99 0.33 1.98 0.66 3 1 C1.54744301 4.82946843 -0.42895561 6.12050295 -4 8 C-2.87548273 5.0280615 -1.77706209 2.66559313 0 0 Z " fill="#E9B897" transform="translate(253,227)"/>
<path d="M0 0 C0.66 0 1.32 0 2 0 C1.67 1.32 1.34 2.64 1 4 C0.34 4 -0.32 4 -1 4 C-0.67 4.99 -0.34 5.98 0 7 C-0.99 7.33 -1.98 7.66 -3 8 C-3.33 6.68 -3.66 5.36 -4 4 C-2.68 3.34 -1.36 2.68 0 2 C0 1.34 0 0.68 0 0 Z " fill="#675247" transform="translate(236,198)"/>
<path d="M0 0 C3.36720387 1.39332574 4.9859524 2.9789286 7 6 C3.47190093 6 2.53184488 5.35723489 0 3 C0 2.01 0 1.02 0 0 Z " fill="#AD4A41" transform="translate(348,515)"/>
<path d="M0 0 C0.33 0 0.66 0 1 0 C0.67 2.64 0.34 5.28 0 8 C0.99 8.33 1.98 8.66 3 9 C1.35 10.32 -0.3 11.64 -2 13 C-1.85769192 11.58297487 -1.71099254 10.1663904 -1.5625 8.75 C-1.48128906 7.96109375 -1.40007812 7.1721875 -1.31640625 6.359375 C-1.02365007 4.17635361 -0.57935581 2.1226818 0 0 Z " fill="#A35644" transform="translate(230,409)"/>
<path d="M0 0 C2.88437779 1.29299694 4.87219421 2.65941363 7 5 C6.01 5.33 5.02 5.66 4 6 C1.3125 4.5625 1.3125 4.5625 -1 3 C-0.67 2.01 -0.34 1.02 0 0 Z " fill="#AE4B40" transform="translate(246,397)"/>
<path d="M0 0 C2.375 0.3125 2.375 0.3125 5 1 C5.66 1.99 6.32 2.98 7 4 C6.01 4.66 5.02 5.32 4 6 C2.68 4.02 1.36 2.04 0 0 Z " fill="#726053" transform="translate(227,197)"/>
<path d="M0 0 C4.875 4.75 4.875 4.75 6 7 C5.01 7.33 4.02 7.66 3 8 C0.4345406 5.4345406 0.45953913 3.52313332 0 0 Z " fill="#A74E47" transform="translate(370,312)"/>
<path d="M0 0 C0.66 0 1.32 0 2 0 C1.38461538 6.52307692 1.38461538 6.52307692 -0.5625 8.9375 C-1.036875 9.288125 -1.51125 9.63875 -2 10 C-1.54177532 6.53058454 -1.10868317 3.32604951 0 0 Z " fill="#AF7850" transform="translate(324,310)"/>
<path d="M0 0 C2.31 0.66 4.62 1.32 7 2 C7.33 3.32 7.66 4.64 8 6 C4.74456771 5.65120368 3.98126893 4.97866739 1.75 2.4375 C1.1725 1.633125 0.595 0.82875 0 0 Z " fill="#916D58" transform="translate(248,221)"/>
<path d="M0 0 C0.66 0 1.32 0 2 0 C2.99 2.31 3.98 4.62 5 7 C4.34 7.66 3.68 8.32 3 9 C0.87491756 5.81237635 0.4979837 3.73487777 0 0 Z " fill="#D2A48A" transform="translate(244,213)"/>
<path d="M0 0 C0.99 1.32 1.98 2.64 3 4 C-0.75 7 -0.75 7 -3 7 C-1.125 1.125 -1.125 1.125 0 0 Z " fill="#B27B58" transform="translate(259,303)"/>
<path d="M0 0 C0.66 0.33 1.32 0.66 2 1 C-0.31 3.31 -2.62 5.62 -5 8 C-5.33 7.01 -5.66 6.02 -6 5 C-4.02 3.35 -2.04 1.7 0 0 Z " fill="#BD7D69" transform="translate(278,253)"/>
<path d="M0 0 C0.66 0.99 1.32 1.98 2 3 C-0.75 8.875 -0.75 8.875 -3 10 C-2.39009109 6.44219804 -1.4216319 3.3171411 0 0 Z " fill="#C98B77" transform="translate(260,249)"/>
<path d="M0 0 C1.65 0 3.3 0 5 0 C5.33 2.64 5.66 5.28 6 8 C5.01 8.66 4.02 9.32 3 10 C3.33 7.03 3.66 4.06 4 1 C2.68 0.67 1.36 0.34 0 0 Z " fill="#F8D5BB" transform="translate(243,227)"/>
<path d="M0 0 C1.65 0 3.3 0 5 0 C5.33 1.32 5.66 2.64 6 4 C5.4225 3.814375 4.845 3.62875 4.25 3.4375 C1.79307475 2.95976454 0.35602466 3.24270636 -2 4 C-1.34 2.68 -0.68 1.36 0 0 Z " fill="#875C4C" transform="translate(309,140)"/>
<path d="M0 0 C1.65 0 3.3 0 5 0 C5 1.32 5 2.64 5 4 C3.0625 3.6875 3.0625 3.6875 1 3 C0.67 2.01 0.34 1.02 0 0 Z " fill="#E8BEA6" transform="translate(373,526)"/>
<path d="M0 0 C0.99 0.66 1.98 1.32 3 2 C-0.625 5 -0.625 5 -4 5 C-3.67 3.68 -3.34 2.36 -3 1 C-3 1.66 -3 2.32 -3 3 C-2.34 3 -1.68 3 -1 3 C-0.67 2.01 -0.34 1.02 0 0 Z " fill="#97463B" transform="translate(231,421)"/>
<path d="M0 0 C0.66 0.99 1.32 1.98 2 3 C0.7260411 5.03833424 -0.61061923 7.03852126 -2 9 C-2.66 9 -3.32 9 -4 9 C-2.80100302 5.9168649 -1.52299523 2.93720508 0 0 Z " fill="#DE9378" transform="translate(206,346)"/>
<path d="M0 0 C0.6875 1.6875 0.6875 1.6875 1 4 C-0.3125 6.75 -0.3125 6.75 -2 9 C-2.66 9 -3.32 9 -4 9 C-2.25 2.25 -2.25 2.25 0 0 Z " fill="#E9C0A4" transform="translate(237,236)"/>
<path d="M0 0 C0.33 0 0.66 0 1 0 C1 2.64 1 5.28 1 8 C0.01 7.67 -0.98 7.34 -2 7 C-1.125 1.125 -1.125 1.125 0 0 Z " fill="#EAA283" transform="translate(351,216)"/>
<path d="M0 0 C0 1.98 0 3.96 0 6 C-1.32 6 -2.64 6 -4 6 C-3.625 3.5625 -3.625 3.5625 -3 1 C-1 0 -1 0 0 0 Z " fill="#DCB097" transform="translate(349,150)"/>
<path d="M0 0 C0.33 0 0.66 0 1 0 C1 2.31 1 4.62 1 7 C-0.32 7.33 -1.64 7.66 -3 8 C-3 7.01 -3 6.02 -3 5 C-2.34 5 -1.68 5 -1 5 C-0.67 3.35 -0.34 1.7 0 0 Z " fill="#A17861" transform="translate(348,138)"/>
<path d="M0 0 C1.32 0.66 2.64 1.32 4 2 C2.1875 3.5625 2.1875 3.5625 0 5 C-0.99 4.67 -1.98 4.34 -3 4 C-2.01 2.68 -1.02 1.36 0 0 Z " fill="#933A2A" transform="translate(196,508)"/>
<path d="M0 0 C0.66 0.33 1.32 0.66 2 1 C-0.31 2.65 -2.62 4.3 -5 6 C-5.33 5.01 -5.66 4.02 -6 3 C-4.03533587 1.93224776 -2.03144641 0.93446535 0 0 Z " fill="#80584B" transform="translate(288,189)"/>
</svg>
